<?xml version="1.0" standalone="no"?>
<!DOCTYPE svg PUBLIC "-//W3C//DTD SVG 1.1//EN" "http://www.w3.org/Graphics/SVG/1.1/DTD/svg11.dtd" >
<svg xmlns="http://www.w3.org/2000/svg">
<metadata>
Created by FontPrep 20130207 at Thu May  8 15:46:22 2014
 By Octavio cifuentes
Copyright (c) 2013 by Absolut Foundry. All rights reserved.
</metadata>
<defs>
<font id="a8d8cf1b3cc6df3cf80233ddae890b2a" horiz-adv-x='1024' >
  <font-face 
    font-family="Mohave-BoldItalic"
    font-weight="700"
    font-style="italic"
    font-stretch="normal"
    units-per-em="2048"
    panose-1="0 0 0 0 0 0 0 0 0 0"
    ascent="1845"
    descent="-203"
    x-height="1673"
    cap-height="1673"
    bbox="-145 -514 1759.18 2073"
    underline-thickness="102"
    underline-position="-100"
    unicode-range="U+0020-2212"
  />
<missing-glyph horiz-adv-x="804" 
d="M731 1538h-409l-252 -1434h409zM852 1640l-289 -1638h-612l287 1638h614z" />
    <glyph glyph-name=".notdef" horiz-adv-x="804" 
d="M731 1538h-409l-252 -1434h409zM852 1640l-289 -1638h-612l287 1638h614z" />
    <glyph glyph-name=".null" horiz-adv-x="0" 
 />
    <glyph glyph-name="nonmarkingreturn" horiz-adv-x="681" 
 />
    <glyph glyph-name="space" unicode=" " horiz-adv-x="409" 
 />
    <glyph glyph-name="exclam" unicode="!" horiz-adv-x="376" 
d="M442 1673l-245 -1339h-197l229 1339h213zM172 197l-35 -197h-194l34 197h195z" />
    <glyph glyph-name="quotedbl" unicode="&#x22;" horiz-adv-x="714" 
d="M508 1305h-117l86 114h-100l43 254h217l-43 -254zM227 1305h-116l86 114h-101l43 254h217l-43 -254z" />
    <glyph glyph-name="numbersign" unicode="#" horiz-adv-x="1085" 
d="M772 1124l203 549h203l-203 -549h96l-35 -196h-133l-117 -316h150l-35 -196h-184q-112 -305 -154 -416h-198l149 416h-225l-152 -416h-196l147 416h-111l33 196h148q16 46 54 146t62 170h-159l35 196h196l203 549h201l-203 -549h225zM700 928l-225 -2l-115 -314h226
q25 66 114 316z" />
    <glyph glyph-name="dollar" unicode="$" horiz-adv-x="837" 
d="M369 -39l-21 -111h-198l20 111q-104 35 -160 130q-55 95 -35 212l27 164h197l-29 -164q-12 -66 37 -123l96 543q-104 29 -162 120q-57 91 -37 206l48 268q23 119 110 213q88 94 207 127l18 108h199l-18 -108q110 -31 162 -125t32 -215l-28 -170h-197l29 170
q16 82 -37 125l-99 -555q102 -33 160 -122t41 -200l-47 -262q-20 -119 -109 -213t-206 -129zM350 1317l-47 -268q-12 -74 39 -113l88 504q-64 -43 -80 -123zM485 303l47 262q12 74 -38 115l-88 -500q67 51 79 123z" />
    <glyph glyph-name="percent" unicode="%" horiz-adv-x="1183" 
d="M854 561q-41 0 -47 -35l-66 -370q-6 -35 33 -35t47 35l66 370q2 14 -7 24t-26 11zM744 -51q-87 0 -138 59t-37 148l66 370q14 88 87 148t161 59q88 0 139 -60t37 -147l-66 -370q-14 -86 -88 -146t-161 -61zM389 1442q-43 0 -47 -37l-66 -369q-2 -14 8 -25t27 -12
q37 0 45 37l66 369q2 13 -9 25t-24 12zM280 829q-88 -1 -140 59t-38 148l66 369q14 86 89 146q75 61 160 61t138 -60t39 -147l-66 -369q-14 -88 -88 -148t-160 -59zM29 -51l934 1724h200l-934 -1724h-200z" />
    <glyph glyph-name="ampersand" unicode="&#x26;" horiz-adv-x="1083" 
d="M473 731q-63 0 -115 -40t-61 -101l-47 -266q-10 -61 26 -101q36 -39 100 -39t116 39q51 40 61 101l72 407h-152zM512 946h152l18 113h221l-18 -113h129l-39 -215h-129l-72 -407q-27 -150 -158 -253t-278 -103q-148 0 -240 102q-92 104 -67 254l47 266q25 137 145 252
q-78 129 -57 248l47 266q27 150 157 253t280 103t236 -121q85 -121 56 -313h-221q10 100 -20 158t-93 59q-63 0 -114 -39t-62 -100l-47 -266q-8 -60 31 -102t96 -42z" />
    <glyph glyph-name="quotesingle" unicode="'" horiz-adv-x="436" 
d="M229 1305h-116l86 114h-101l43 254h217l-43 -254z" />
    <glyph glyph-name="parenleft" unicode="(" horiz-adv-x="745" 
d="M672 1845h133l-37 -205q-129 0 -208 -24t-91 -94l-236 -1327q-20 -117 29 -153t217 -38l-37 -205h-133q-157 0 -245 81t-62 239l248 1403q28 160 146 242t276 81z" />
    <glyph glyph-name="parenright" unicode=")" horiz-adv-x="745" 
d="M440 1845q158 0 247 -82t61 -241l-248 -1403q-29 -158 -147 -239t-275 -81h-131l37 205q166 2 227 38t82 153l235 1327q12 77 -66 98q-78 20 -192 20l37 205h133z" />
    <glyph glyph-name="asterisk" unicode="*" horiz-adv-x="604" 
d="M84 1518q20 25 92 106l76 -65l20 112h136l-23 -117q12 10 54 37q41 27 50 33l56 -104l-125 -74q4 -2 43 -29t55 -41q-12 -14 -92 -108l-80 61l-18 -106h-135l22 112q-76 -49 -87 -55t-15 -10l-54 108l117 68z" />
    <glyph glyph-name="plus" unicode="+" horiz-adv-x="835" 
d="M821 909l-35 -198h-286l-51 -289h-199l51 289h-289l35 198h289l51 285h199l-51 -285h286z" />
    <glyph glyph-name="comma" unicode="," horiz-adv-x="333" 
d="M301 229l-35 -206l-221 -142l59 348h197z" />
    <glyph glyph-name="hyphen" unicode="-" horiz-adv-x="831" 
d="M694 711h-596l35 198h596z" />
    <glyph glyph-name="period" unicode="." horiz-adv-x="393" 
d="M309 229l-39 -229h-196l39 229h196z" />
    <glyph glyph-name="slash" unicode="/" horiz-adv-x="856" 
d="M993 1698l-934 -1725h-198l930 1725h202z" />
    <glyph glyph-name="zero" unicode="0" horiz-adv-x="1030" 
d="M414 174q72 0 148 60q75 60 89 147l119 676l-475 -854q47 -29 119 -29zM629 1481q-86 -1 -163 -61t-91 -146l-146 -821l539 970q-53 58 -139 58zM366 -18q-167 0 -270 115q-102 116 -73 284l157 893q31 168 173 284q143 116 311 116t270 -116t72 -284l-158 -893
q-31 -167 -173 -283t-309 -116z" />
    <glyph glyph-name="one" unicode="1" horiz-adv-x="567" 
d="M248 1497q129 0 164 31q18 16 22 43l19 102h196l-297 -1673h-196l231 1311q-60 -14 -148 -12q-88 1 -94 1l35 197h68z" />
    <glyph glyph-name="two" unicode="2" horiz-adv-x="933" 
d="M610 1673q144 0 230 -102q86 -101 62 -239t-36 -211t-22 -129t-46 -129t-96 -128t-103 -86t-149 -91t-192 -158q-86 -97 -82 -205h557l-35 -195h-761l26 145q35 203 109 324t238 215t224 143q60 50 86 95t35 102l50 305q8 61 -30 105q-37 44 -99 45t-118 -45t-65 -105
l-47 -264h-196l47 264q25 143 147 244q123 100 266 100z" />
    <glyph glyph-name="three" unicode="3" horiz-adv-x="913" 
d="M387 946q180 0 234 48q29 26 36 67l48 266q12 63 -28 107t-107 43q-68 0 -122 -43t-67 -107l-45 -262h-201l45 262q27 145 153 245t272 101q145 0 235 -99t63 -247l-47 -266q-13 -83 -72 -147q-20 -22 -73 -66q90 -96 65 -248l-47 -266q-27 -147 -150 -247
q-125 -99 -271 -99t-236 100t-66 246l45 260h201l-45 -260q-12 -66 30 -108q41 -42 107 -42t120 43t66 107l48 266q14 92 -54 124t-168 28h-98l33 194h96z" />
    <glyph glyph-name="four" unicode="4" horiz-adv-x="929" 
d="M512 498l119 665q-161 -244 -420 -665h301zM674 301l-53 -301h-197l53 301h-528l28 158l758 1214h183l-209 -1175h114l-35 -197h-114z" />
    <glyph glyph-name="five" unicode="5" horiz-adv-x="1011" 
d="M559 1135q170 0 268 -120t70 -290l-59 -330q-29 -170 -170 -290q-140 -119 -312 -119t-270 118t-70 291l21 113h194l-20 -113q-14 -88 39 -150q53 -63 141 -63t161 62t89 151l59 330q16 88 -35 152q-53 63 -139 63t-162 -72t-102 -174h-192l172 979h821l-35 -196h-627
l-69 -400q100 58 227 58z" />
    <glyph glyph-name="six" unicode="6" horiz-adv-x="1024" 
d="M524 905q-88 0 -162 -58t-88 -147l-57 -319q-14 -91 38 -149t140 -58t164 59t90 148l58 319q14 86 -40 146q-55 59 -143 59zM559 1100q166 0 269 -117t75 -283l-57 -319q-31 -168 -173 -284q-143 -115 -311 -115t-270 116t-74 283l158 893q31 168 173 284t310 116
t272 -116q103 -116 73 -284l-17 -94h-196l16 94q14 88 -39 147t-142 59t-163 -58q-74 -60 -88 -148l-41 -232q104 58 225 58z" />
    <glyph glyph-name="seven" unicode="7" horiz-adv-x="841" 
d="M911 1497l-718 -1497h-203l708 1477h-540l35 196h751z" />
    <glyph glyph-name="eight" unicode="8" horiz-adv-x="1019" 
d="M530 946q88 0 162 58t88 143l23 133q14 84 -39 143t-140 59t-163 -58q-76 -60 -90 -144l-23 -133q-14 -85 40 -143t142 -58zM362 176h60q74 0 140 51t77 123l35 199q14 86 -38 143q-52 58 -140 58t-164 -58t-90 -143l-35 -199q-13 -74 33 -124t122 -50zM389 -14h-59
q-156 0 -251 105t-69 259l35 199q33 178 201 299q-127 117 -94 299l22 133q31 166 173 280t310 114t271 -113q102 -113 71 -281l-22 -133q-35 -184 -199 -299q127 -117 92 -299l-34 -199q-27 -154 -159 -259t-288 -105z" />
    <glyph glyph-name="nine" unicode="9" horiz-adv-x="1021" 
d="M496 750q88 0 162 58t87 146l58 320q14 90 -38 148t-140 58t-164 -58q-76 -60 -90 -148l-58 -320q-13 -86 41 -145t142 -59zM461 555q-166 0 -270 117q-103 117 -74 282l57 320q31 168 173 284t310 116t272 -116q103 -116 72 -284l-157 -893q-31 -168 -173 -284
q-143 -115 -311 -115t-270 116t-74 283l17 94h196l-16 -94q-14 -87 39 -147t142 -60t163 59t88 148l41 231q-104 -57 -225 -57z" />
    <glyph glyph-name="colon" unicode=":" horiz-adv-x="346" 
d="M346 844l-41 -230h-196l41 230h196zM238 229l-41 -229h-197l41 229h197z" />
    <glyph glyph-name="semicolon" unicode=";" horiz-adv-x="346" 
d="M248 229l-37 -206l-219 -142l59 348h197zM356 844l-41 -230h-196l41 230h196z" />
    <glyph glyph-name="less" unicode="&#x3c;" horiz-adv-x="876" 
d="M795 643l-37 -205l-723 291l31 166l825 291l-37 -205l-524 -170q430 -156 465 -168z" />
    <glyph glyph-name="equal" unicode="=" horiz-adv-x="800" 
d="M674 555h-631l35 199h631zM727 864h-631l35 199h631z" />
    <glyph glyph-name="greater" unicode="&#x3e;" horiz-adv-x="876" 
d="M-14 438l34 205q88 29 268 86t255 82l-463 170l37 205l723 -291l-31 -166z" />
    <glyph glyph-name="question" unicode="?" horiz-adv-x="792" 
d="M252 197l-35 -197h-197l35 197h197zM508 1477q-64 0 -120 -47t-66 -113l-31 -168h-197l31 168q27 147 149 252q124 104 270 104q146 -1 232 -105t60 -251l-37 -207q-30 -167 -187 -296q-66 -54 -132 -106q-154 -122 -181 -268l-18 -104h-199l18 104q14 76 68 155
q53 79 121 142q69 63 135 123q161 147 174 232l39 225q10 66 -27 113q-38 47 -102 47z" />
    <glyph glyph-name="at" unicode="@" horiz-adv-x="1368" 
d="M614 362q62 0 116 48t77 118l108 396l-147 -4q-62 0 -120 -46t-75 -108l-73 -277q-8 -53 22 -90t92 -37zM565 -10h158q117 0 338 176l-47 -266q-178 -100 -324 -101h-158q-276 0 -436 193t-110 471l69 405q49 280 277 474t506 194h256q172 0 271 -120t69 -292l-78 -442
q-31 -172 -147 -302t-285 -130q-63 0 -103 10q-135 -88 -260 -88t-200 91t-52 226q4 23 76 287q39 138 160 236t258 98h180q63 0 99 -44t28 -108l-141 -518q78 14 130 84t66 158l78 442q16 90 -39 156t-143 66h-256q-195 0 -361 -142t-198 -336l-72 -405q-36 -195 80 -334
t311 -139z" />
    <glyph glyph-name="A" unicode="A" horiz-adv-x="952" 
d="M762 0h-203l-22 414h-277l-166 -414h-200l632 1673h183zM332 612h203l-15 504q-35 -92 -98 -263t-90 -241z" />
    <glyph glyph-name="B" unicode="B" horiz-adv-x="974" 
d="M586 1477h-183l-100 -568h182q73 -1 135 53t74 125l37 211q15 72 -29 126t-116 53zM479 713h-211l-92 -516h211q86 0 159 61t87 148l18 98q14 86 -36 148t-136 61zM621 1673q155 1 245 -109t64 -266l-37 -211q-27 -145 -150 -256q68 -57 96 -144t11 -183l-19 -98
q-29 -170 -169 -288t-310 -118h-405l295 1673h379z" />
    <glyph glyph-name="C" unicode="C" horiz-adv-x="983" 
d="M367 -14q-162 0 -268 104q-105 104 -81 252l170 975q27 145 170 251q144 106 306 105q162 0 254 -104t65 -252l-18 -111h-199l18 111q12 63 -32 111q-45 48 -125 48t-154 -48t-86 -111l-170 -975q-12 -64 45 -112q58 -48 138 -48t141 47t73 113l21 119h199l-21 -119
q-27 -148 -155 -252t-291 -104z" />
    <glyph glyph-name="D" unicode="D" horiz-adv-x="897" 
d="M303 0h-354l295 1673h356q143 0 231 -97t64 -241l-174 -997q-25 -142 -150 -240t-268 -98zM565 1481h-159l-228 -1288h160q63 0 118 41q54 42 66 104l174 997q12 61 -27 104q-41 42 -104 42z" />
    <glyph glyph-name="E" unicode="E" horiz-adv-x="796" 
d="M244 1673h643l-35 -196h-446l-101 -566h391l-34 -196h-392l-92 -518h447l-35 -197h-641z" />
    <glyph glyph-name="F" unicode="F" horiz-adv-x="751" 
d="M307 911h391l-34 -196h-392l-127 -715h-194l295 1673h643l-35 -196h-446z" />
    <glyph glyph-name="G" unicode="G" horiz-adv-x="1001" 
d="M365 -14q-158 0 -267 98t-84 240l176 997q27 145 169 249q141 104 303 103q162 0 256 -103t67 -249l-43 -242h-197l43 242q10 63 -35 110q-46 46 -126 46t-154 -46t-84 -110l-176 -997q-10 -62 48 -104q57 -42 137 -42t142 42t72 104l70 397h-209l35 194h405l-104 -591
q-27 -142 -157 -240t-287 -98z" />
    <glyph glyph-name="H" unicode="H" horiz-adv-x="921" 
d="M969 1673l-297 -1673h-199l127 715h-326l-127 -715h-196l295 1673h198l-135 -762h326l135 762h199z" />
    <glyph glyph-name="I" unicode="I" horiz-adv-x="405" 
d="M444 1673l-297 -1673h-194l295 1673h196z" />
    <glyph glyph-name="J" unicode="J" horiz-adv-x="595" 
d="M-4 0h-129l33 184q152 -2 224 29t83 100l242 1360h196l-242 -1360q-27 -153 -140 -233t-267 -80z" />
    <glyph glyph-name="K" unicode="K" horiz-adv-x="1028" 
d="M287 778l-137 -778h-195l295 1673h196l-100 -565q440 481 518 565h246l-596 -649l258 -1024h-211l-219 840z" />
    <glyph glyph-name="L" unicode="L" horiz-adv-x="698" 
d="M535 197l-35 -197h-545l295 1673h196l-262 -1476h351z" />
    <glyph glyph-name="M" unicode="M" horiz-adv-x="1241" 
d="M950 911l-381 -911h-176l-80 920l-163 -920h-195l295 1673h213l90 -1267l543 1267h188l-297 -1673h-199z" />
    <glyph glyph-name="N" unicode="N" horiz-adv-x="980" 
d="M346 1102l-194 -1102h-195l295 1673h213l170 -1069l190 1069h197l-297 -1673h-182z" />
    <glyph glyph-name="O" unicode="O" 
d="M358 -12q-166 0 -272 98t-82 240l178 1009q27 141 167 239t306 99q166 -1 272 -99t79 -239l-179 -1009q-27 -143 -165 -241q-138 -97 -304 -97zM392 180q87 0 158 42t81 104l178 1009q10 61 -46 103q-55 42 -143 43q-88 0 -160 -42t-81 -104l-178 -1009q-10 -62 47 -104
t144 -42z" />
    <glyph glyph-name="P" unicode="P" horiz-adv-x="841" 
d="M575 1477h-157l-101 -568h158q66 0 120 47t64 111l46 250q10 66 -28 113q-39 47 -102 47zM440 713h-157l-127 -713h-197l295 1673h356q145 0 233 -104q87 -105 60 -252l-45 -250q-27 -147 -148 -251q-122 -103 -270 -103z" />
    <glyph glyph-name="Q" unicode="Q" horiz-adv-x="995" 
d="M624 1479q-85 0 -158 -42t-85 -104l-176 -1009q-10 -58 39 -100t125 -46l-17 203h203l10 -141q59 43 70 84l176 1009q12 59 -45 103t-142 43zM360 -12q-168 0 -272 96t-80 240l176 1009q27 143 166 241t308 97q168 0 272 -97t78 -241l-177 -1009q-35 -193 -251 -281
l12 -231h-199l-12 176h-21z" />
    <glyph glyph-name="R" unicode="R" horiz-adv-x="929" 
d="M575 1477h-157l-101 -568h166q61 0 114 47q52 47 62 111l46 250q10 66 -27 113t-103 47zM610 1673q146 0 234 -104t61 -252l-45 -250q-25 -139 -149 -250q100 -104 73 -270l-98 -547h-199l99 547q10 68 -30 117t-105 49h-168l-127 -713h-197l295 1673h356z" />
    <glyph glyph-name="S" unicode="S" horiz-adv-x="923" 
d="M312 -8q-156 0 -246 104t-66 252l29 162h196l-28 -162q-11 -66 33 -112t118 -48q74 0 133 48t72 112l41 240q12 63 -34 104t-120 41q-152 0 -246 97t-67 241l43 246q27 147 156 251q128 104 284 105q156 0 247 -104t65 -252l-29 -168h-197l29 168q12 66 -33 113t-118 47
t-133 -47t-72 -113l-43 -246q-10 -61 34 -101t123 -44q147 -12 241 -104t69 -234l-41 -240q-27 -148 -156 -252t-284 -104z" />
    <glyph glyph-name="T" unicode="T" horiz-adv-x="882" 
d="M653 1477l-262 -1477h-196l262 1477h-267l35 196h725l-35 -196h-262z" />
    <glyph glyph-name="U" unicode="U" horiz-adv-x="956" 
d="M360 186q72 0 133 45q60 45 70 109l236 1333h198l-235 -1333q-25 -142 -154 -246q-130 -104 -282 -104t-242 102t-68 248l236 1333h197l-236 -1333q-9 -62 33 -108t114 -46z" />
    <glyph glyph-name="V" unicode="V" horiz-adv-x="972" 
d="M201 1673h200l17 -1241l448 1241h201l-598 -1673h-258z" />
    <glyph glyph-name="W" unicode="W" horiz-adv-x="1378" 
d="M719 1014l-334 -1014h-211l49 1673h201l-27 -1011l334 1011h211l-27 -1011l334 1011h201l-545 -1673h-211z" />
    <glyph glyph-name="X" unicode="X" horiz-adv-x="1142" 
d="M610 1063q249 413 373 610h215q-405 -676 -524 -860l229 -813h-213l-168 567q-66 -109 -190 -294t-178 -273h-211l516 811q-57 216 -219 862h215z" />
    <glyph glyph-name="Y" unicode="Y" horiz-adv-x="1036" 
d="M467 0h-197l144 807q-63 247 -228 866h215l158 -600q59 96 371 600h215l-535 -866z" />
    <glyph glyph-name="Z" unicode="Z" horiz-adv-x="1019" 
d="M205 197h614l-35 -197h-847l28 158l842 1319h-610l34 196h850l-28 -157z" />
    <glyph glyph-name="bracketleft" unicode="[" horiz-adv-x="608" 
d="M430 1647l-293 -1651h238l-35 -199h-434l360 2048h436l-34 -198h-238z" />
    <glyph glyph-name="backslash" unicode="\" horiz-adv-x="856" 
d="M487 -27l-323 1725h203l321 -1725h-201z" />
    <glyph glyph-name="bracketright" unicode="]" horiz-adv-x="608" 
d="M176 -4l293 1651h-238l35 198h436l-362 -2048h-434l35 199h235z" />
    <glyph glyph-name="asciicircum" unicode="^" horiz-adv-x="888" 
d="M416 1681h135l250 -401h-221l-131 209l-220 -209h-217z" />
    <glyph glyph-name="underscore" unicode="_" horiz-adv-x="1181" 
d="M1051 -143h-947l23 123h946z" />
    <glyph glyph-name="grave" unicode="`" horiz-adv-x="491" 
d="M61 1673h263l77 -291h-200z" />
    <glyph glyph-name="a" unicode="a" horiz-adv-x="970" 
d="M772 0h-242l-10 250h-280l-97 -250h-239l633 1673h182zM293 449h244l-7 667q-40 -112 -118 -332t-119 -335z" />
    <glyph glyph-name="b" unicode="b" horiz-adv-x="1015" 
d="M586 1477h-183l-100 -568h182q73 -1 135 53t74 125l37 211q15 72 -29 126t-116 53zM479 713h-211l-92 -516h211q86 0 159 61t87 148l18 98q14 86 -36 148t-136 61zM621 1673q155 1 245 -109t64 -266l-37 -211q-27 -145 -150 -256q68 -57 96 -144t11 -183l-19 -98
q-29 -170 -169 -288t-310 -118h-405l295 1673h379z" />
    <glyph glyph-name="c" unicode="c" horiz-adv-x="983" 
d="M367 -14q-162 0 -268 104q-105 104 -81 252l170 975q27 145 170 251q144 106 306 105q162 0 254 -104t65 -252l-18 -111h-199l18 111q12 63 -32 111q-45 48 -125 48t-154 -48t-86 -111l-170 -975q-12 -64 45 -112q58 -48 138 -48t141 47t73 113l21 119h199l-21 -119
q-27 -148 -155 -252t-291 -104z" />
    <glyph glyph-name="d" unicode="d" horiz-adv-x="897" 
d="M303 0h-354l295 1673h356q143 0 231 -97t64 -241l-174 -997q-25 -142 -150 -240t-268 -98zM565 1481h-159l-228 -1288h160q63 0 118 41q54 42 66 104l174 997q12 61 -27 104q-41 42 -104 42z" />
    <glyph glyph-name="e" unicode="e" horiz-adv-x="827" 
d="M264 1673h643l-35 -196h-446l-72 -402h391l-34 -196h-392l-120 -682h446l-35 -197h-641z" />
    <glyph glyph-name="f" unicode="f" horiz-adv-x="772" 
d="M297 748h391l-35 -197h-391l-98 -551h-195l295 1673h643l-35 -196h-446z" />
    <glyph glyph-name="g" unicode="g" horiz-adv-x="1001" 
d="M365 -14q-158 0 -267 98t-84 240l176 997q27 145 169 249q141 104 303 103q162 0 256 -103t67 -249l-43 -242h-197l43 242q10 63 -35 110q-46 46 -126 46t-154 -46t-84 -110l-176 -997q-10 -62 48 -104q57 -42 137 -42t142 42t72 104l41 233h-209l35 195h406l-76 -428
q-27 -142 -157 -240t-287 -98z" />
    <glyph glyph-name="h" unicode="h" horiz-adv-x="921" 
d="M969 1673l-297 -1673h-199l127 715h-326l-127 -715h-196l295 1673h198l-135 -762h326l135 762h199z" />
    <glyph glyph-name="i" unicode="i" horiz-adv-x="405" 
d="M444 1673l-297 -1673h-194l295 1673h196z" />
    <glyph glyph-name="j" unicode="j" horiz-adv-x="595" 
d="M-4 0h-129l33 184q152 -2 224 29t83 100l242 1360h196l-242 -1360q-27 -153 -140 -233t-267 -80z" />
    <glyph glyph-name="k" unicode="k" horiz-adv-x="1028" 
d="M287 778l-137 -778h-195l295 1673h196l-100 -565q440 481 518 565h246l-596 -649l258 -1024h-211l-219 840z" />
    <glyph glyph-name="l" unicode="l" horiz-adv-x="698" 
d="M535 197l-35 -197h-545l295 1673h196l-262 -1476h351z" />
    <glyph glyph-name="m" unicode="m" horiz-adv-x="1241" 
d="M950 911l-381 -911h-176l-80 920l-163 -920h-195l295 1673h213l90 -1267l543 1267h188l-297 -1673h-199z" />
    <glyph glyph-name="n" unicode="n" horiz-adv-x="980" 
d="M346 1102l-194 -1102h-195l295 1673h213l170 -1069l190 1069h197l-297 -1673h-182z" />
    <glyph glyph-name="o" unicode="o" 
d="M358 -12q-166 0 -272 98t-82 240l178 1009q27 141 167 239t306 99q166 -1 272 -99t79 -239l-179 -1009q-27 -143 -165 -241q-138 -97 -304 -97zM392 180q87 0 158 42t81 104l178 1009q10 61 -46 103q-55 42 -143 43q-88 0 -160 -42t-81 -104l-178 -1009q-10 -62 47 -104
t144 -42z" />
    <glyph glyph-name="p" unicode="p" horiz-adv-x="866" 
d="M586 1477h-158l-129 -732h158q66 -1 120 47t64 111l74 414q10 66 -28 113t-101 47zM422 549h-158l-98 -549h-197l295 1673h357q145 -1 232 -105t60 -251l-73 -414q-27 -147 -149 -251t-269 -103z" />
    <glyph glyph-name="q" unicode="q" horiz-adv-x="995" 
d="M624 1479q-85 0 -158 -42t-85 -104l-176 -1009q-10 -58 39 -100t125 -46l-17 203h203l10 -141q59 43 70 84l176 1009q12 59 -45 103t-142 43zM360 -12q-168 0 -272 96t-80 240l176 1009q27 143 166 241t308 97q168 0 272 -97t78 -241l-177 -1009q-35 -193 -251 -281
l12 -231h-199l-12 176h-21z" />
    <glyph glyph-name="r" unicode="r" horiz-adv-x="950" 
d="M586 1477h-158l-129 -732h166q61 -1 113 47t63 111l74 414q9 66 -27 113t-102 47zM621 1673q147 0 234 -104t60 -252l-73 -414q-25 -139 -150 -250q102 -109 72 -270l-68 -383h-198l67 383q12 68 -27 117q-40 49 -106 49h-168l-98 -549h-197l295 1673h357z" />
    <glyph glyph-name="s" unicode="s" horiz-adv-x="923" 
d="M312 -8q-156 0 -246 104t-66 252l29 162h196l-28 -162q-11 -66 33 -112t118 -48q74 0 133 48t72 112l41 240q12 63 -34 104t-120 41q-152 0 -246 97t-67 241l43 246q27 147 156 251q128 104 284 105q156 0 247 -104t65 -252l-29 -168h-197l29 168q12 66 -33 113t-118 47
t-133 -47t-72 -113l-43 -246q-10 -61 34 -101t123 -44q147 -12 241 -104t69 -234l-41 -240q-27 -148 -156 -252t-284 -104z" />
    <glyph glyph-name="t" unicode="t" horiz-adv-x="882" 
d="M653 1477l-262 -1477h-196l262 1477h-267l35 196h725l-35 -196h-262z" />
    <glyph glyph-name="u" unicode="u" horiz-adv-x="956" 
d="M360 186q72 0 133 45q60 45 70 109l236 1333h198l-235 -1333q-25 -142 -154 -246q-130 -104 -282 -104t-242 102t-68 248l236 1333h197l-236 -1333q-9 -62 33 -108t114 -46z" />
    <glyph glyph-name="v" unicode="v" horiz-adv-x="972" 
d="M201 1673h200l17 -1241l448 1241h201l-598 -1673h-258z" />
    <glyph glyph-name="w" unicode="w" horiz-adv-x="1378" 
d="M719 1014l-334 -1014h-211l49 1673h201l-27 -1011l334 1011h211l-27 -1011l334 1011h201l-545 -1673h-211z" />
    <glyph glyph-name="x" unicode="x" horiz-adv-x="1142" 
d="M610 1063q249 413 373 610h215q-405 -676 -524 -860l229 -813h-213l-168 567q-66 -109 -190 -294t-178 -273h-211l516 811q-57 216 -219 862h215z" />
    <glyph glyph-name="y" unicode="y" horiz-adv-x="1036" 
d="M467 0h-197l144 807q-63 247 -228 866h215l158 -600q59 96 371 600h215l-535 -866z" />
    <glyph glyph-name="z" unicode="z" horiz-adv-x="1019" 
d="M205 197h614l-35 -197h-847l28 158l842 1319h-610l34 196h850l-28 -157z" />
    <glyph glyph-name="braceleft" unicode="{" horiz-adv-x="634" 
d="M266 -203q-121 -1 -175 63t-34 183l111 625q8 49 -22 68t-107 20l33 184q78 0 114 19t45 69l80 455q32 197 75 251q64 81 122 97q59 16 121 16h133l-33 -184h-70q-47 0 -69 -3q-54 -8 -70 -83q-31 -177 -94 -565q-23 -115 -80 -164q43 -47 23 -164l-111 -621
q-2 -18 -2 -31q0 -12 1 -22q3 -30 67 -30h108l-31 -177q-80 -6 -135 -6z" />
    <glyph glyph-name="bar" unicode="|" horiz-adv-x="346" 
d="M438 1823l-354 -2007h-195l353 2007h196z" />
    <glyph glyph-name="braceright" unicode="}" horiz-adv-x="634" 
d="M-18 -20q47 0 64 3q48 8 58 80l111 621q10 61 27 98q16 37 53 66q-45 49 -24 163t56 300q34 185 46 255t-13 84t-92 13h-69l32 184h134q132 0 186 -74q45 -68 0 -290l-80 -455q-8 -48 24 -68t107 -20l-33 -184q-77 0 -115 -20t-46 -68l-111 -625q-20 -119 -97 -182
t-198 -64q-49 0 -129 6l31 177h78z" />
    <glyph glyph-name="asciitilde" unicode="~" horiz-adv-x="825" 
d="M296 944q60 0 136 -37t119 -37t151 93l109 -134q-93 -81 -157 -119t-126 -37t-142 37q-79 36 -119 36t-150 -95l-105 140q94 81 159 117t125 36z" />
    <glyph glyph-name="exclamdown" unicode="&#xa1;" horiz-adv-x="376" 
d="M375 930l-230 -1340h-211l244 1340h197zM434 1264l-35 -197h-196l35 197h196z" />
    <glyph glyph-name="cent" unicode="&#xa2;" horiz-adv-x="749" 
d="M459 1182q-72 0 -134 -54t-75 -127q-74 -411 -74 -421l324 594q-18 8 -41 8zM328 434q72 0 134 54t75 126l18 99h158l-19 -99q-24 -139 -140 -237t-255 -98q-57 0 -106 16q-13 -18 -68 -127h-166l115 217q-74 109 -51 229l69 387q25 139 139 238q115 98 254 98
q59 0 99 -12q24 49 47 90h168l-92 -170q55 -63 60 -147t-19 -187h-158l8 47q10 68 8 105l-334 -617q29 -12 56 -12z" />
    <glyph glyph-name="sterling" unicode="&#xa3;" horiz-adv-x="831" 
d="M614 1663q148 0 234 -104t61 -252l-20 -111h-199l21 111q10 67 -29 113t-102 46q-62 0 -118 -48t-67 -111l-65 -361h340l-35 -198h-340l-90 -519q75 15 155 -25t113 -40t109 63l114 -137q-90 -72 -138 -96t-112 -23q-64 0 -145 37q-82 37 -129 37t-158 -94l-102 139
q59 51 84 68l100 590h-90l35 198h90l66 361q25 147 147 252q123 104 270 104z" />
    <glyph glyph-name="currency" unicode="&#xa4;" horiz-adv-x="829" 
d="M438 1008q-57 0 -104 -46q-48 -46 -58 -104t21 -105q31 -46 88 -46t107 46q49 46 59 104q10 59 -23 105t-90 46zM474 1192q58 0 110 -27l102 133h215l-192 -243q45 -88 25 -198t-95 -198q70 -150 109 -241h-211l-58 127q-61 -21 -127 -21t-112 21l-103 -127h-209l187 241
q-43 94 -23 199q16 109 94 199q-2 4 -7 16q-5 11 -31 71t-64 154h209l55 -129q68 23 126 23z" />
    <glyph glyph-name="yen" unicode="&#xa5;" horiz-adv-x="1036" 
d="M467 0h-197l76 428h-217l35 199h217l20 110h-217l35 199h160l-193 737h215l158 -600q135 219 371 600h215l-457 -737h162l-35 -199h-217l-20 -110h217l-35 -199h-217z" />
    <glyph glyph-name="brokenbar" unicode="&#xa6;" horiz-adv-x="395" 
d="M256 606l-139 -790h-195l137 790h197zM471 1823l-139 -791h-197l139 791h197z" />
    <glyph glyph-name="section" unicode="&#xa7;" horiz-adv-x="755" 
d="M405 944q-51 0 -99 -32t-56 -81l-19 -108q-8 -39 33 -68q86 -61 187 2q47 31 55 80l18 105q8 46 -30 74t-89 28zM217 -131q-123 0 -208 80t-62 201l22 137h185l-23 -137q-8 -45 29 -75t89 -30t99 30t55 75l35 202q8 45 -30 72q-39 27 -93 27q-145 0 -219 83t-47 226
q25 178 135 268q-72 78 -53 186l37 207q23 123 136 204q114 81 239 81t210 -80t62 -205l-24 -143h-187l25 143q8 47 -29 78t-89 31t-100 -31t-57 -78l-37 -207q-8 -44 30 -70t91 -26q118 0 208 -78t67 -198l-19 -105q-20 -117 -129 -198q82 -74 62 -187l-35 -202
q-24 -121 -138 -201t-237 -80z" />
    <glyph glyph-name="dieresis" unicode="&#xa8;" horiz-adv-x="624" 
d="M520 1671l-31 -182h-155l31 182h155zM289 1671l-31 -182h-156l31 182h156z" />
    <glyph glyph-name="copyright" unicode="&#xa9;" horiz-adv-x="1773" 
d="M794 285q-146 0 -240 99q-95 99 -73 237l64 360q25 137 154 237q129 99 275 99t227 -99t56 -237l-14 -90h-158l15 90q14 74 -29 127t-125 53t-156 -53t-88 -127l-63 -360q-12 -74 43 -127q55 -54 137 -54q81 0 143 54t74 127l19 98h157l-18 -98q-23 -137 -138 -237
q-116 -99 -262 -99zM761 100q291 0 535 207t297 500q51 293 -120 500q-172 207 -464 207t-535 -208t-294 -499t119 -499t462 -208zM59 807q59 342 345 585q286 242 628 242t542 -242t140 -585q-60 -342 -347 -585q-286 -242 -628 -242q-343 0 -541 242t-139 585z" />
    <glyph glyph-name="guillemotleft" unicode="&#xab;" horiz-adv-x="989" 
d="M659 737q69 -97 199 -286l-43 -246l-344 467l23 133l507 467l-43 -246zM256 737q70 -97 199 -286l-43 -246l-344 467l22 133l508 467l-43 -246z" />
    <glyph glyph-name="logicalnot" unicode="&#xac;" horiz-adv-x="964" 
d="M899 909l-63 -370h-199l29 172h-576l35 198h774z" />
    <glyph glyph-name="registered" unicode="&#xae;" horiz-adv-x="1773" 
d="M761 100q291 0 535 207t297 500q51 293 -120 500q-172 207 -464 207t-535 -208t-294 -499t119 -499t462 -208zM59 807q59 342 345 585q286 242 628 242t542 -242t140 -585q-60 -342 -347 -585q-286 -242 -628 -242q-343 0 -541 242t-139 585zM862 786q68 0 122 50t67 118
l10 52q12 72 -29 120t-110 50h-86l-68 -390h94zM952 1352q142 0 228 -102t61 -244l-10 -52q-25 -139 -154 -249q106 -109 76 -271l-31 -174h-178l31 174q14 72 -28 124t-113 52h-97l-63 -350h-178l192 1092h264z" />
    <glyph glyph-name="degree" unicode="&#xb0;" horiz-adv-x="591" 
d="M312 1559q-40 0 -74 -31t-42 -70q-6 -38 18 -68t62 -30t75 30q36 30 42 68q8 39 -16 70q-25 31 -65 31zM332 1673q90 1 141 -63t36 -153t-89 -150t-165 -61t-141 60t-34 152t89 154t163 61z" />
    <glyph glyph-name="plusminus" unicode="&#xb1;" horiz-adv-x="907" 
d="M731 0h-768l35 197h768zM893 909l-35 -198h-287l-51 -289h-198l51 289h-289l35 198h289l51 285h198l-51 -285h287z" />
    <glyph glyph-name="twosuperior" unicode="&#xb2;" horiz-adv-x="901" 
d="M510 1495q-26 1 -52 -21t-30 -47l-31 -174h-153l30 174q16 91 94 155t169 64q90 0 145 -65q55 -66 39 -154l-35 -202q-14 -76 -54 -135t-75 -85t-96 -61q-147 -82 -162 -182h324l-27 -152h-479l18 105q21 119 69 193t152 139q84 47 126 83t50 91l35 206q2 27 -14 47
t-43 21z" />
    <glyph glyph-name="threesuperior" unicode="&#xb3;" horiz-adv-x="878" 
d="M492 1493q-29 0 -57 -20t-32 -48l-30 -172h-154l31 172q16 93 96 157t172 64t148 -62q56 -64 39 -159l-27 -153q-16 -86 -80 -146q45 -53 29 -141l-27 -154q-16 -94 -94 -157q-78 -64 -170 -64t-150 64t-41 157l29 168h154l-29 -168q-4 -29 15 -48t49 -19t55 19t28 48
l27 154q5 43 -27 57t-81 9h-78l26 151h109q90 4 102 70l27 153q4 29 -13 49t-46 19z" />
    <glyph glyph-name="acute" unicode="&#xb4;" horiz-adv-x="491" 
d="M211 1673h262l-242 -291h-200z" />
    <glyph glyph-name="mu" unicode="&#xb5;" horiz-adv-x="892" 
d="M399 197q61 0 115 42q53 42 68 103l145 823h199l-207 -1165h-197l13 68q-59 -68 -189 -68q-64 0 -129 35l-57 -328h-195l256 1458h197l-144 -815q-10 -63 27 -108t98 -45z" />
    <glyph glyph-name="mu" unicode="&#x3bc;" horiz-adv-x="892" 
d="M399 197q61 0 115 42q53 42 68 103l145 823h199l-207 -1165h-197l13 68q-59 -68 -189 -68q-64 0 -129 35l-57 -328h-195l256 1458h197l-144 -815q-10 -63 27 -108t98 -45z" />
    <glyph glyph-name="paragraph" unicode="&#xb6;" horiz-adv-x="1138" 
d="M526 1462h693l-35 -196h-146l-274 -1561h-197l275 1561h-205l-275 -1561h-196l205 1161q-107 14 -161 98t-34 206q20 120 123 206q102 86 227 86z" />
    <glyph glyph-name="periodcentered" unicode="&#xb7;" horiz-adv-x="393" 
d="M309 924l-39 -230h-196l39 230h196z" />
    <glyph glyph-name="cedilla" unicode="&#xb8;" horiz-adv-x="299" 
d="M82 35h88l-12 -66q59 5 94 -23q34 -28 22 -91t-58 -95q-89 -61 -216 -4l49 84q41 -22 84 -22t49 39q10 55 -119 34q-6 -2 -8 -2z" />
    <glyph glyph-name="onesuperior" unicode="&#xb9;" horiz-adv-x="542" 
d="M172 1393h-49l27 153h57q80 0 84 23l14 80h152l-183 -1037h-151l137 783q-14 -2 -88 -2z" />
    <glyph glyph-name="guillemotright" unicode="&#xbb;" horiz-adv-x="989" 
d="M389 205l43 246q55 55 297 286l-197 289l43 246l345 -467l-23 -133zM-12 205l41 246q55 55 297 286l-197 289l43 246l344 -467l-22 -133z" />
    <glyph glyph-name="onequarter" unicode="&#xbc;" horiz-adv-x="1353" 
d="M68 -27h-142l1354 1725h145zM244 1393h-49l28 153h56q82 0 86 23l14 80h151l-184 -1037h-151l139 783q-16 -2 -90 -2zM887 356l49 277q-47 -72 -172 -277h123zM1012 205l-35 -205h-152l35 205h-307l20 114l451 717h135l-121 -680h68l-27 -151h-67z" />
    <glyph glyph-name="onehalf" unicode="&#xbd;" horiz-adv-x="1392" 
d="M1022 817l-31 -174h-153l30 174q14 90 94 155q80 64 169 64q90 0 145 -66t39 -153l-37 -203q-14 -76 -53 -134t-75 -85t-97 -61q-145 -84 -160 -182h324l-27 -152h-479l18 104q19 117 67 193t142 131t136 92t52 90l35 207q2 27 -14 47t-43 20q-26 0 -52 -20
q-26 -22 -30 -47zM1430 1698l-1358 -1725h-142l1354 1725h146zM248 1393h-49l28 153h58q80 0 84 23l14 80h152l-185 -1037h-151l139 783q-14 -2 -90 -2z" />
    <glyph glyph-name="threequarters" unicode="&#xbe;" horiz-adv-x="1411" 
d="M938 356l49 277q-47 -72 -172 -277h123zM1063 205l-35 -205h-151l34 205h-307l21 114l450 717h135l-120 -680h67l-27 -151h-67zM438 1673q92 0 148 -63t39 -158l-29 -154q-14 -86 -78 -145q43 -51 29 -141l-29 -154q-14 -94 -93 -158t-171 -63q-92 0 -149 63
q-56 63 -42 158l31 168h154l-31 -168q-2 -29 17 -48q18 -19 48 -19t54 19t29 48l28 154q2 45 -28 57q-31 12 -82 8h-78l26 152h109q90 4 102 69l29 154q4 27 -14 47q-18 21 -47 21t-56 -20t-30 -48l-31 -172h-154l31 172q16 94 96 158t172 63zM1477 1698l-1358 -1725h-142
l1354 1725h146z" />
    <glyph glyph-name="questiondown" unicode="&#xbf;" horiz-adv-x="792" 
d="M539 1075l34 197h197l-35 -197h-196zM282 -207q64 0 120 48t67 114l31 168h196l-30 -168q-27 -147 -150 -251t-269 -105q-146 0 -232 104q-85 105 -58 252l37 207q26 167 184 296q66 54 132 106q155 123 182 267l18 105h199l-19 -105q-14 -77 -67 -155t-121 -141
t-134 -123q-161 -147 -175 -232l-39 -225q-10 -66 26 -114t102 -48z" />
    <glyph glyph-name="Agrave" unicode="&#xc0;" horiz-adv-x="952" 
d="M371 2052h262l78 -291h-201zM729 0h-203l-22 414h-277l-166 -414h-200l631 1673h182zM299 612h203l-17 504q-27 -72 -88 -238t-98 -266z" />
    <glyph glyph-name="Aacute" unicode="&#xc1;" horiz-adv-x="952" 
d="M688 2054h262l-241 -291h-201zM729 0h-203l-22 414h-277l-166 -414h-200l631 1673h182zM299 612h203l-17 504q-27 -72 -88 -238t-98 -266z" />
    <glyph glyph-name="Acircumflex" unicode="&#xc2;" horiz-adv-x="952" 
d="M707 1964l127 -203h-144l-59 86l-90 -86h-150l207 203h109zM535 0l-23 414h-276l-166 -414h-201l631 1673h182l55 -1673h-202zM510 612l-16 504q-27 -72 -88 -238t-99 -266h203z" />
    <glyph glyph-name="Atilde" unicode="&#xc3;" horiz-adv-x="952" 
d="M721 1778q-27 0 -99 26t-100 25q-29 -1 -49 -17q-19 -16 -35 -31t-22 -20l-54 94q86 81 116 91t54 10q25 0 93 -26q67 -26 115 -26t100 62l57 -100q-76 -88 -176 -88zM737 0h-202l-25 414h-277l-163 -414h-201l631 1673h182zM307 612h203l-16 504q-74 -197 -187 -504z
" />
    <glyph glyph-name="Adieresis" unicode="&#xc4;" horiz-adv-x="952" 
d="M840 1944l-33 -183h-156l33 183h156zM608 1944l-33 -183h-155l33 183h155zM739 0h-202l-25 414h-276l-164 -414h-201l631 1673h182zM309 612h203l-16 504q-74 -197 -187 -504z" />
    <glyph glyph-name="Aring" unicode="&#xc5;" horiz-adv-x="952" 
d="M639 1972q-23 0 -43 -17t-24 -40t10 -40t36 -17t45 17q21 17 23 40q4 23 -10 40t-37 17zM601 1759q-67 0 -103 44t-25 111q11 68 65 112t120 44t102 -46t25 -110t-64 -110q-53 -45 -120 -45zM727 0h-203l-22 414h-277l-166 -414h-200l630 1673h183zM297 612h203l-17 504
q-27 -72 -88 -238t-98 -266z" />
    <glyph glyph-name="AE" unicode="&#xc6;" horiz-adv-x="1466" 
d="M-111 0l988 1673h647l-35 -196h-465q-70 -393 -98 -566h407l-35 -196h-407q-20 -115 -50 -271t-46 -247h467l-35 -197h-668l74 414h-277l-262 -414h-205zM760 1116l-291 -504h201z" />
    <glyph glyph-name="Ccedilla" unicode="&#xc7;" horiz-adv-x="983" 
d="M422 182q80 0 141 47t74 113l20 119h199l-20 -119q-25 -140 -143 -242t-265 -112l-4 -19q59 5 94 -23t24 -91q-12 -63 -58 -95q-89 -60 -218 -4l49 84q41 -22 84 -22t52 39q5 20 -7 30q-12 11 -42 11t-40 -2t-38 -7l16 101q-148 16 -236 118t-63 234l170 975
q27 145 170 251t305 105q162 0 254 -104t66 -252l-19 -111h-199l19 111q12 63 -33 111t-125 48q-79 0 -153 -48t-86 -111l-170 -975q-12 -64 45 -112t137 -48z" />
    <glyph glyph-name="Egrave" unicode="&#xc8;" horiz-adv-x="796" 
d="M356 2052h262l78 -291h-200zM209 1673h643l-35 -196h-446l-99 -566h392l-35 -196h-391l-93 -518h447l-35 -197h-641z" />
    <glyph glyph-name="Eacute" unicode="&#xc9;" horiz-adv-x="796" 
d="M631 2052h262l-242 -291h-200zM209 1673h643l-35 -196h-446l-99 -566h392l-35 -196h-391l-93 -518h447l-35 -197h-641z" />
    <glyph glyph-name="Ecircumflex" unicode="&#xca;" horiz-adv-x="796" 
d="M629 1964l127 -203h-144l-59 86l-90 -86h-150l207 203h109zM860 1673l-35 -196h-446l-100 -566h391l-35 -196h-391l-90 -518h446l-35 -197h-641l293 1673h643z" />
    <glyph glyph-name="Edieresis" unicode="&#xcb;" horiz-adv-x="796" 
d="M780 1944l-32 -183h-156l33 183h155zM549 1944l-33 -183h-156l33 183h156zM219 1673h643l-35 -196h-446l-100 -566h391l-35 -196h-391l-90 -518h446l-35 -197h-641z" />
    <glyph glyph-name="Igrave" unicode="&#xcc;" horiz-adv-x="405" 
d="M86 2052h262l78 -291h-201zM410 1673l-295 -1673h-195l293 1673h197z" />
    <glyph glyph-name="Iacute" unicode="&#xcd;" horiz-adv-x="405" 
d="M412 2052h262l-242 -291h-201zM410 1673l-295 -1673h-195l293 1673h197z" />
    <glyph glyph-name="Icircumflex" unicode="&#xce;" horiz-adv-x="405" 
d="M434 1966l127 -203h-143l-60 86l-90 -86h-149l207 203h108zM123 0h-195l293 1673h197z" />
    <glyph glyph-name="Idieresis" unicode="&#xcf;" horiz-adv-x="405" 
d="M567 1946l-30 -183h-156l31 183h155zM336 1946l-31 -183h-155l30 183h156zM420 1673l-295 -1673h-195l293 1673h197z" />
    <glyph glyph-name="Eth" unicode="&#xd0;" horiz-adv-x="985" 
d="M653 1481h-159l-101 -572h209l-35 -198h-209l-92 -518h160q63 0 118 41q54 42 66 104l174 997q12 61 -27 104q-41 42 -104 42zM688 1673q144 0 232 -97t63 -241l-174 -997q-25 -142 -150 -240t-268 -98h-356l127 711h-131l35 198h131l135 764h356z" />
    <glyph glyph-name="Ntilde" unicode="&#xd1;" horiz-adv-x="980" 
d="M735 1780q-27 0 -99 26t-100 25q-29 -1 -49 -17t-35 -31t-22 -20l-53 95q86 82 127 94q18 6 44 6t92 -26t114 -26q49 0 100 62l59 -100q-78 -88 -178 -88zM322 1102l-195 -1102h-195l293 1673h213l172 -1069l189 1069h196l-295 -1673h-182z" />
    <glyph glyph-name="Ograve" unicode="&#xd2;" 
d="M385 2052h262l78 -291h-201zM325 -12q-165 0 -272 98q-106 98 -80 240l177 1009q25 141 164 240q140 98 306 98q166 1 272 -97t81 -241l-178 -1009q-27 -142 -166 -240t-304 -98zM357 180q87 0 158 42t83 104l178 1009q10 61 -46 103t-143 43q-87 0 -159 -42t-82 -104
l-178 -1009q-12 -62 45 -104t144 -42z" />
    <glyph glyph-name="Oacute" unicode="&#xd3;" 
d="M715 2052h262l-242 -291h-200zM325 -12q-165 0 -272 98q-106 98 -80 240l177 1009q25 141 164 240q140 98 306 98q166 1 272 -97t81 -241l-178 -1009q-27 -142 -166 -240t-304 -98zM357 180q87 0 158 42t83 104l178 1009q10 61 -46 103t-143 43q-87 0 -159 -42t-82 -104
l-178 -1009q-12 -62 45 -104t144 -42z" />
    <glyph glyph-name="Ocircumflex" unicode="&#xd4;" 
d="M739 1964l125 -203h-143l-57 86l-93 -86h-149l209 203h108zM332 -12q-166 0 -272 98q-105 98 -78 240l174 1009q27 141 168 239t307 99q166 0 270 -98t78 -240l-176 -1009q-27 -142 -166 -240t-305 -98zM366 180q88 0 158 42t82 104l176 1009q12 61 -44 103t-143 43
q-87 0 -159 -42t-84 -104l-176 -1009q-12 -61 45 -104q58 -42 145 -42z" />
    <glyph glyph-name="Otilde" unicode="&#xd5;" 
d="M752 1778q-27 0 -98 26q-72 26 -102 25q-30 0 -59 -25t-47 -43l-53 94q104 100 164 101q33 0 99 -26t114 -26q49 0 102 62l58 -100q-78 -88 -178 -88zM332 -12q-166 0 -272 98q-105 98 -80 240l176 1009q27 141 167 239t306 99q165 -1 271 -99t79 -239l-178 -1009
q-25 -142 -164 -240t-305 -98zM366 180q88 0 158 42t80 104l178 1009q12 61 -44 103t-143 43q-87 0 -159 -42t-84 -104l-178 -1009q-10 -61 47 -104q58 -42 145 -42z" />
    <glyph glyph-name="Odieresis" unicode="&#xd6;" 
d="M872 1944l-32 -183h-156l33 183h155zM641 1944l-33 -183h-155l32 183h156zM334 -12q-166 0 -272 98q-105 98 -80 240l176 1009q27 141 167 239t306 99q165 -1 271 -99t79 -239l-178 -1009q-25 -142 -164 -240t-305 -98zM368 180q88 0 158 42t80 104l178 1009
q12 61 -44 103t-143 43q-87 0 -159 -42t-84 -104l-178 -1009q-10 -61 47 -104q58 -42 145 -42z" />
    <glyph glyph-name="multiply" unicode="&#xd7;" horiz-adv-x="835" 
d="M680 1153l115 -139l-238 -203l168 -205l-166 -141l-166 205l-241 -205l-117 141l241 205l-165 201l163 139l168 -201z" />
    <glyph glyph-name="Oslash" unicode="&#xd8;" 
d="M618 1481q-86 0 -158 -42t-81 -104l-143 -803l561 869q-48 80 -179 80zM395 180q82 0 153 42t83 104l153 874l-585 -905q6 -51 60 -83t136 -32zM350 -12q-174 0 -278 110l-80 -125h-117l139 217q-23 63 -10 136l178 1009q25 141 165 239t303 99q163 0 265 -90l74 115h119
l-127 -197q39 -78 25 -166l-179 -1009q-27 -143 -165 -241q-138 -97 -312 -97z" />
    <glyph glyph-name="Ugrave" unicode="&#xd9;" horiz-adv-x="956" 
d="M367 2054h262l78 -291h-201zM328 186q72 0 132 45t70 109l236 1333h199l-236 -1333q-27 -142 -155 -246t-280 -104t-244 103q-91 103 -64 247l233 1333h197l-236 -1333q-10 -62 33 -108t115 -46z" />
    <glyph glyph-name="Uacute" unicode="&#xda;" horiz-adv-x="956" 
d="M686 2052h262l-241 -291h-201zM328 186q72 0 132 45t70 109l236 1333h199l-236 -1333q-27 -142 -155 -246t-280 -104t-244 103q-91 103 -64 247l233 1333h197l-236 -1333q-10 -62 33 -108t115 -46z" />
    <glyph glyph-name="Ucircumflex" unicode="&#xdb;" horiz-adv-x="956" 
d="M709 1964l127 -203h-144l-59 86l-90 -86h-150l207 203h109zM334 186q72 0 132 45t73 109l233 1333h199l-234 -1333q-27 -143 -154 -247q-128 -103 -281 -103t-244 103t-64 247l231 1333h197l-234 -1333q-12 -62 31 -108t115 -46z" />
    <glyph glyph-name="Udieresis" unicode="&#xdc;" horiz-adv-x="956" 
d="M844 1944l-33 -183h-156l33 183h156zM612 1944l-32 -183h-156l33 183h155zM336 186q72 0 132 45t73 109l233 1333h199l-234 -1333q-27 -143 -155 -247q-129 -103 -282 -103t-243 102t-63 248l231 1333h197l-234 -1333q-12 -62 31 -108t115 -46z" />
    <glyph glyph-name="Yacute" unicode="&#xdd;" horiz-adv-x="1036" 
d="M729 2052h262l-241 -291h-201zM526 1073l369 600h215l-532 -866l-144 -807h-196l143 807q-37 143 -118 444t-111 422h215z" />
    <glyph glyph-name="Thorn" unicode="&#xde;" horiz-adv-x="845" 
d="M381 322h-158l-57 -322h-197l295 1673h199l-70 -389h158q145 0 232 -105t61 -251l-43 -252q-27 -146 -150 -250t-270 -104zM516 1085h-158l-100 -565h158q66 0 120 46t66 110l43 252q12 63 -25 110q-38 47 -104 47z" />
    <glyph glyph-name="germandbls" unicode="&#xdf;" horiz-adv-x="1763" 
d="M324 -8q-154 0 -245 104t-67 252l29 162h197l-29 -162q-12 -66 33 -112q44 -46 118 -48q74 0 134 48t73 112l41 240q12 63 -35 104t-120 41q-152 0 -246 97t-68 241l43 246q27 147 156 251t285 105q157 0 247 -104t64 -252l-29 -168h-194l28 168q12 66 -32 113
q-45 47 -119 47t-134 -47t-73 -113l-43 -246q-10 -61 35 -101t123 -44q147 -12 240 -104t69 -234l-41 -240q-27 -148 -156 -252q-130 -104 -284 -104zM1144 -8q-154 0 -247 104q-92 104 -66 252l29 162h195l-29 -162q-12 -63 34 -111q46 -49 120 -49t133 48t71 112l41 240
q12 63 -33 104q-46 41 -120 41q-152 0 -246 97t-68 241l43 246q27 147 156 251t285 105q156 0 247 -104t64 -252l-29 -168h-196l28 168q12 66 -32 113q-45 47 -118 47q-72 0 -134 -47t-74 -113l-43 -246q-10 -61 36 -101t124 -44q147 -12 240 -104t69 -234l-41 -240
q-27 -148 -156 -252t-283 -104z" />
    <glyph glyph-name="agrave" unicode="&#xe0;" horiz-adv-x="970" 
d="M373 2052h262l78 -291h-201zM739 0h-241l-11 250h-280l-96 -250h-240l631 1673h182zM260 449h244l-8 667q-23 -61 -236 -667z" />
    <glyph glyph-name="aacute" unicode="&#xe1;" horiz-adv-x="970" 
d="M694 2052h262l-241 -291h-201zM739 0h-241l-11 250h-280l-96 -250h-240l631 1673h182zM260 449h244l-8 667q-23 -61 -236 -667z" />
    <glyph glyph-name="acircumflex" unicode="&#xe2;" horiz-adv-x="970" 
d="M711 1964l127 -203h-144l-59 86l-90 -86h-150l207 203h109zM506 0l-12 250h-281l-94 -250h-240l631 1673h182l56 -1673h-242zM512 449l-8 667q-23 -61 -236 -667h244z" />
    <glyph glyph-name="atilde" unicode="&#xe3;" horiz-adv-x="970" 
d="M729 1778q-27 0 -99 26t-100 25q-29 -1 -49 -17q-19 -16 -35 -31t-22 -20l-53 94q85 81 115 91t54 10t93 -26q68 -26 116 -26t99 62l57 -100q-76 -88 -176 -88zM748 0h-242l-12 250h-281l-94 -250h-240l631 1673h182zM266 449h244l-6 667q-236 -659 -238 -667z" />
    <glyph glyph-name="adieresis" unicode="&#xe4;" horiz-adv-x="970" 
d="M848 1944l-33 -183h-156l33 183h156zM616 1944l-32 -183h-156l33 183h155zM750 0h-242l-12 250h-281l-94 -250h-240l631 1673h182zM268 449h244l-6 667q-236 -659 -238 -667z" />
    <glyph glyph-name="aring" unicode="&#xe5;" horiz-adv-x="970" 
d="M649 1974q-23 0 -43 -17t-24 -40t10 -40t37 -17t44 17t23 40q4 23 -10 40t-37 17zM668 2073q66 -1 102 -47t26 -110t-64 -110q-54 -45 -121 -45t-103 44t-24 111q10 67 64 112t120 45zM737 0h-241l-11 250h-280l-96 -250h-240l631 1673h182zM258 449h244l-8 667
q-23 -61 -236 -667z" />
    <glyph glyph-name="ae" unicode="&#xe6;" horiz-adv-x="1466" 
d="M-111 0l988 1673h647l-35 -196h-465q-70 -393 -98 -566h407l-35 -196h-407q-20 -115 -50 -271t-46 -247h467l-35 -197h-668l74 414h-277l-262 -414h-205zM760 1116l-291 -504h201z" />
    <glyph glyph-name="ccedilla" unicode="&#xe7;" horiz-adv-x="983" 
d="M422 182q80 0 141 47t74 113l20 119h199l-20 -119q-25 -140 -143 -242t-265 -112l-4 -19q59 5 94 -23t24 -91q-12 -63 -58 -95q-89 -60 -218 -4l49 84q41 -22 84 -22t52 39q5 20 -7 30q-12 11 -42 11t-40 -2t-38 -7l16 101q-148 16 -236 118t-63 234l170 975
q27 145 170 251t305 105q162 0 254 -104t66 -252l-19 -111h-199l19 111q12 63 -33 111t-125 48q-79 0 -153 -48t-86 -111l-170 -975q-12 -64 45 -112t137 -48z" />
    <glyph glyph-name="egrave" unicode="&#xe8;" horiz-adv-x="827" 
d="M367 2052h262l78 -291h-201zM229 1673h643l-34 -196h-447l-69 -402h391l-35 -196h-391l-121 -682h446l-34 -197h-641z" />
    <glyph glyph-name="eacute" unicode="&#xe9;" horiz-adv-x="827" 
d="M627 2054h262l-242 -291h-201zM229 1673h643l-34 -196h-447l-69 -402h391l-35 -196h-391l-121 -682h446l-34 -197h-641z" />
    <glyph glyph-name="ecircumflex" unicode="&#xea;" horiz-adv-x="827" 
d="M678 1964l127 -203h-143l-60 86l-90 -86h-150l207 203h109zM881 1673l-35 -196h-447l-69 -402h391l-35 -196h-391l-121 -682h447l-35 -197h-641l293 1673h643z" />
    <glyph glyph-name="edieresis" unicode="&#xeb;" horiz-adv-x="827" 
d="M807 1944l-33 -183h-156l33 183h156zM575 1944l-32 -183h-156l33 183h155zM240 1673h643l-35 -196h-447l-71 -402h391l-35 -196h-391l-119 -682h447l-35 -197h-641z" />
    <glyph glyph-name="igrave" unicode="&#xec;" horiz-adv-x="405" 
d="M86 2052h262l78 -291h-201zM410 1673l-295 -1673h-195l293 1673h197z" />
    <glyph glyph-name="iacute" unicode="&#xed;" horiz-adv-x="405" 
d="M412 2052h262l-242 -291h-201zM410 1673l-295 -1673h-195l293 1673h197z" />
    <glyph glyph-name="icircumflex" unicode="&#xee;" horiz-adv-x="405" 
d="M434 1966l127 -203h-143l-60 86l-90 -86h-149l207 203h108zM123 0h-195l293 1673h197z" />
    <glyph glyph-name="idieresis" unicode="&#xef;" horiz-adv-x="405" 
d="M567 1946l-30 -183h-156l31 183h155zM336 1946l-31 -183h-155l30 183h156zM420 1673l-295 -1673h-195l293 1673h197z" />
    <glyph glyph-name="eth" unicode="&#xf0;" horiz-adv-x="985" 
d="M653 1481h-159l-101 -572h209l-35 -198h-209l-92 -518h160q63 0 118 41q54 42 66 104l174 997q12 61 -27 104q-41 42 -104 42zM688 1673q144 0 232 -97t63 -241l-174 -997q-25 -142 -150 -240t-268 -98h-356l127 711h-131l35 198h131l135 764h356z" />
    <glyph glyph-name="ntilde" unicode="&#xf1;" horiz-adv-x="980" 
d="M735 1780q-27 0 -99 26t-100 25q-29 -1 -49 -17t-35 -31t-22 -20l-53 95q86 82 127 94q18 6 44 6t92 -26t114 -26q49 0 100 62l59 -100q-78 -88 -178 -88zM322 1102l-195 -1102h-195l293 1673h213l172 -1069l189 1069h196l-295 -1673h-182z" />
    <glyph glyph-name="ograve" unicode="&#xf2;" 
d="M385 2052h262l78 -291h-201zM325 -12q-165 0 -272 98q-106 98 -80 240l177 1009q25 141 164 240q140 98 306 98q166 1 272 -97t81 -241l-178 -1009q-27 -142 -166 -240t-304 -98zM357 180q87 0 158 42t83 104l178 1009q10 61 -46 103t-143 43q-87 0 -159 -42t-82 -104
l-178 -1009q-12 -62 45 -104t144 -42z" />
    <glyph glyph-name="oacute" unicode="&#xf3;" 
d="M715 2052h262l-242 -291h-200zM325 -12q-165 0 -272 98q-106 98 -80 240l177 1009q25 141 164 240q140 98 306 98q166 1 272 -97t81 -241l-178 -1009q-27 -142 -166 -240t-304 -98zM357 180q87 0 158 42t83 104l178 1009q10 61 -46 103t-143 43q-87 0 -159 -42t-82 -104
l-178 -1009q-12 -62 45 -104t144 -42z" />
    <glyph glyph-name="ocircumflex" unicode="&#xf4;" 
d="M739 1964l125 -203h-143l-57 86l-93 -86h-149l209 203h108zM332 -12q-166 0 -272 98q-105 98 -78 240l174 1009q27 141 168 239t307 99q166 0 270 -98t78 -240l-176 -1009q-27 -142 -166 -240t-305 -98zM366 180q88 0 158 42t82 104l176 1009q12 61 -44 103t-143 43
q-87 0 -159 -42t-84 -104l-176 -1009q-12 -61 45 -104q58 -42 145 -42z" />
    <glyph glyph-name="otilde" unicode="&#xf5;" 
d="M752 1778q-27 0 -98 26q-72 26 -102 25q-30 0 -59 -25t-47 -43l-53 94q104 100 164 101q33 0 99 -26t114 -26q49 0 102 62l58 -100q-78 -88 -178 -88zM332 -12q-166 0 -272 98q-105 98 -80 240l176 1009q27 141 167 239t306 99q165 -1 271 -99t79 -239l-178 -1009
q-25 -142 -164 -240t-305 -98zM366 180q88 0 158 42t80 104l178 1009q12 61 -44 103t-143 43q-87 0 -159 -42t-84 -104l-178 -1009q-10 -61 47 -104q58 -42 145 -42z" />
    <glyph glyph-name="odieresis" unicode="&#xf6;" 
d="M872 1944l-32 -183h-156l33 183h155zM641 1944l-33 -183h-155l32 183h156zM334 -12q-166 0 -272 98q-105 98 -80 240l176 1009q27 141 167 239t306 99q165 -1 271 -99t79 -239l-178 -1009q-25 -142 -164 -240t-305 -98zM368 180q88 0 158 42t80 104l178 1009
q12 61 -44 103t-143 43q-87 0 -159 -42t-84 -104l-178 -1009q-10 -61 47 -104q58 -42 145 -42z" />
    <glyph glyph-name="divide" unicode="&#xf7;" horiz-adv-x="831" 
d="M580 1235l-41 -229h-197l41 229h197zM471 621l-41 -230h-197l41 230h197zM694 711h-596l35 198h596z" />
    <glyph glyph-name="oslash" unicode="&#xf8;" 
d="M618 1481q-86 0 -158 -42t-81 -104l-143 -803l561 869q-48 80 -179 80zM395 180q82 0 153 42t83 104l153 874l-585 -905q6 -51 60 -83t136 -32zM350 -12q-174 0 -278 110l-80 -125h-117l139 217q-23 63 -10 136l178 1009q25 141 165 239t303 99q163 0 265 -90l74 115h119
l-127 -197q39 -78 25 -166l-179 -1009q-27 -143 -165 -241q-138 -97 -312 -97z" />
    <glyph glyph-name="ugrave" unicode="&#xf9;" horiz-adv-x="956" 
d="M367 2054h262l78 -291h-201zM328 186q72 0 132 45t70 109l236 1333h199l-236 -1333q-27 -142 -155 -246t-280 -104t-244 103q-91 103 -64 247l233 1333h197l-236 -1333q-10 -62 33 -108t115 -46z" />
    <glyph glyph-name="uacute" unicode="&#xfa;" horiz-adv-x="956" 
d="M686 2052h262l-241 -291h-201zM328 186q72 0 132 45t70 109l236 1333h199l-236 -1333q-27 -142 -155 -246t-280 -104t-244 103q-91 103 -64 247l233 1333h197l-236 -1333q-10 -62 33 -108t115 -46z" />
    <glyph glyph-name="ucircumflex" unicode="&#xfb;" horiz-adv-x="956" 
d="M709 1964l127 -203h-144l-59 86l-90 -86h-150l207 203h109zM334 186q72 0 132 45t73 109l233 1333h199l-234 -1333q-27 -143 -154 -247q-128 -103 -281 -103t-244 103t-64 247l231 1333h197l-234 -1333q-12 -62 31 -108t115 -46z" />
    <glyph glyph-name="udieresis" unicode="&#xfc;" horiz-adv-x="956" 
d="M844 1944l-33 -183h-156l33 183h156zM612 1944l-32 -183h-156l33 183h155zM336 186q72 0 132 45t73 109l233 1333h199l-234 -1333q-27 -143 -155 -247q-129 -103 -282 -103t-243 102t-63 248l231 1333h197l-234 -1333q-12 -62 31 -108t115 -46z" />
    <glyph glyph-name="yacute" unicode="&#xfd;" horiz-adv-x="1036" 
d="M729 2052h262l-241 -291h-201zM526 1073l369 600h215l-532 -866l-144 -807h-196l143 807q-37 143 -118 444t-111 422h215z" />
    <glyph glyph-name="thorn" unicode="&#xfe;" horiz-adv-x="845" 
d="M381 322h-158l-57 -322h-197l295 1673h199l-70 -389h158q145 0 232 -105t61 -251l-43 -252q-27 -146 -150 -250t-270 -104zM516 1085h-158l-100 -565h158q66 0 120 46t66 110l43 252q12 63 -25 110q-38 47 -104 47z" />
    <glyph glyph-name="ydieresis" unicode="&#xff;" horiz-adv-x="1036" 
d="M881 1946l-31 -183h-156l31 183h156zM649 1946l-31 -183h-155l31 183h155zM535 1073l370 600h215l-534 -866l-142 -807h-196l141 807q-39 152 -121 462t-106 404h215z" />
    <glyph glyph-name="Lslash" unicode="&#x141;" horiz-adv-x="698" 
d="M535 197l-35 -197h-545l133 760l-145 -49l34 198l146 49l127 715h196l-114 -645l217 74l-35 -199l-217 -74l-113 -632h351z" />
    <glyph glyph-name="lslash" unicode="&#x142;" horiz-adv-x="698" 
d="M535 197l-35 -197h-545l133 760l-145 -49l34 198l146 49l127 715h196l-114 -645l217 74l-35 -199l-217 -74l-113 -632h351z" />
    <glyph glyph-name="OE" unicode="&#x152;" horiz-adv-x="1468" 
d="M407 193q87 -1 157 41t83 104l176 1003q8 59 -49 99t-142 41q-85 0 -157 -42t-84 -104l-174 -997q-12 -61 45 -104q58 -41 145 -41zM371 0q-164 0 -270 98q-105 98 -81 240l175 997q27 141 167 240q141 98 306 98q117 0 204 -51l11 51h643l-35 -196h-447l-100 -566h391
l-35 -196h-391l-92 -518h447l-35 -197h-643l10 49q-104 -49 -225 -49z" />
    <glyph glyph-name="oe" unicode="&#x153;" horiz-adv-x="1468" 
d="M407 193q87 -1 157 41t83 104l176 1003q8 59 -49 99t-142 41q-85 0 -157 -42t-84 -104l-174 -997q-12 -61 45 -104q58 -41 145 -41zM371 0q-164 0 -270 98q-105 98 -81 240l175 997q27 141 167 240q141 98 306 98q117 0 204 -51l11 51h643l-35 -196h-447l-100 -566h391
l-35 -196h-391l-92 -518h447l-35 -197h-643l10 49q-104 -49 -225 -49z" />
    <glyph glyph-name="Scaron" unicode="&#x160;" horiz-adv-x="923" 
d="M854 1964l-197 -203h-108l-137 203h149l62 -86l88 86h143zM288 -8q-154 0 -247 104q-92 104 -66 252l27 162h197l-29 -162q-10 -66 35 -112t119 -48q74 0 133 48t69 112l43 240q10 63 -35 104q-46 41 -120 41q-152 0 -245 97t-67 241l43 246q27 147 155 251t284 105
q156 0 248 -104t65 -252l-31 -168h-196l30 168q10 66 -34 113q-45 47 -118 47q-74 0 -134 -47t-70 -113l-43 -246q-12 -61 34 -101t122 -44q147 -12 241 -104t70 -234l-43 -240q-27 -148 -155 -252t-282 -104z" />
    <glyph glyph-name="scaron" unicode="&#x161;" horiz-adv-x="935" 
d="M860 1964l-196 -203h-109l-137 203h149l62 -86l88 86h143zM288 -8q-154 0 -247 104q-92 104 -66 252l27 162h197l-29 -162q-10 -66 35 -112t119 -48q74 0 133 48t69 112l43 240q10 63 -35 104q-46 41 -120 41q-152 0 -245 97t-67 241l43 246q27 147 155 251t284 105
q156 0 248 -104t65 -252l-31 -168h-196l30 168q10 66 -34 113q-45 47 -118 47q-74 0 -134 -47t-70 -113l-43 -246q-12 -61 34 -101t122 -44q147 -12 241 -104t70 -234l-43 -240q-27 -148 -155 -252t-282 -104z" />
    <glyph glyph-name="Ydieresis" unicode="&#x178;" horiz-adv-x="1036" 
d="M881 1946l-31 -183h-156l31 183h156zM649 1946l-31 -183h-155l31 183h155zM535 1073l370 600h215l-534 -866l-142 -807h-196l141 807q-39 152 -121 462t-106 404h215z" />
    <glyph glyph-name="Zcaron" unicode="&#x17d;" horiz-adv-x="1019" 
d="M903 1964l-196 -203h-109l-137 203h149l62 -86l88 86h143zM795 197l-35 -197h-848l29 158l839 1319h-610l35 196h850l-29 -157l-846 -1319h615z" />
    <glyph glyph-name="zcaron" unicode="&#x17e;" horiz-adv-x="1019" 
d="M903 1964l-196 -203h-109l-137 203h149l62 -86l88 86h143zM795 197l-35 -197h-848l29 158l839 1319h-610l35 196h850l-29 -157l-846 -1319h615z" />
    <glyph glyph-name="circumflex" unicode="&#x2c6;" horiz-adv-x="561" 
d="M356 1673l127 -203h-143l-59 86l-91 -86h-149l207 203h108z" />
    <glyph glyph-name="caron" unicode="&#x2c7;" horiz-adv-x="561" 
d="M518 1673l-196 -203h-109l-137 203h149l62 -86l88 86h143z" />
    <glyph glyph-name="breve" unicode="&#x2d8;" horiz-adv-x="428" 
d="M216 1593q28 0 52 24t31 56h119q-14 -84 -79 -141t-145 -57t-124 54q-43 54 -27 144h119q-6 -33 10 -57t44 -23z" />
    <glyph glyph-name="dotaccent" unicode="&#x2d9;" horiz-adv-x="393" 
d="M309 1673l-39 -229h-196l39 229h196z" />
    <glyph glyph-name="ring" unicode="&#x2da;" horiz-adv-x="436" 
d="M225 1575q-23 0 -43 -17t-23 -40t11 -40q14 -18 37 -18t43 18t24 40q4 23 -11 40t-38 17zM187 1362q-67 0 -103 44t-24 111q10 67 64 111t118 45q64 -1 103 -45q38 -44 27 -110q-10 -66 -64 -111t-121 -45z" />
    <glyph glyph-name="ogonek" unicode="&#x2db;" horiz-adv-x="315" 
d="M170 -514h-205l248 311h129z" />
    <glyph glyph-name="tilde" unicode="&#x2dc;" horiz-adv-x="690" 
d="M434 1475q-28 -1 -98 25t-100 26t-53 -19q-24 -19 -54 -49l-53 94q86 82 116 92t54 9q24 0 92 -26q68 -25 116 -25t99 61l59 -100q-78 -88 -178 -88z" />
    <glyph glyph-name="hungarumlaut" unicode="&#x2dd;" horiz-adv-x="624" 
d="M416 1434h-97l119 188h135zM166 1434h-94l116 188h136z" />
    <glyph glyph-name="endash" unicode="&#x2013;" horiz-adv-x="964" 
d="M850 711h-774l35 198h774z" />
    <glyph glyph-name="emdash" unicode="&#x2014;" horiz-adv-x="1210" 
d="M1073 711h-975l35 198h975z" />
    <glyph glyph-name="quoteleft" unicode="&#x2018;" horiz-adv-x="436" 
d="M207 1673h117l-86 -114h100l-43 -254h-217l43 254z" />
    <glyph glyph-name="quoteright" unicode="&#x2019;" horiz-adv-x="436" 
d="M229 1305h-116l86 114h-101l43 254h217l-43 -254z" />
    <glyph glyph-name="quotesinglbase" unicode="&#x201a;" horiz-adv-x="436" 
d="M229 -115h-116l86 115h-101l43 254h217l-43 -254z" />
    <glyph glyph-name="quotedblleft" unicode="&#x201c;" horiz-adv-x="714" 
d="M205 1673h117l-86 -114h100l-43 -254h-217l43 254zM485 1673h117l-86 -114h100l-43 -254h-217l43 254z" />
    <glyph glyph-name="quotedblright" unicode="&#x201d;" horiz-adv-x="714" 
d="M508 1305h-117l86 114h-100l43 254h217l-43 -254zM227 1305h-116l86 114h-101l43 254h217l-43 -254z" />
    <glyph glyph-name="quotedblbase" unicode="&#x201e;" horiz-adv-x="714" 
d="M508 -115h-117l86 115h-100l43 254h217l-43 -254zM227 -115h-116l86 115h-101l43 254h217l-43 -254z" />
    <glyph glyph-name="dagger" unicode="&#x2020;" horiz-adv-x="808" 
d="M375 1221h-289l35 198h289l71 404h197l-72 -404h289l-35 -198h-289l-247 -1405h-197z" />
    <glyph glyph-name="daggerdbl" unicode="&#x2021;" horiz-adv-x="823" 
d="M383 1221h-289l35 198h289l71 404h197l-72 -404h289l-35 -198h-288l-142 -803h289l-35 -199h-289l-71 -403h-197l72 403h-287l35 199h287z" />
    <glyph glyph-name="bullet" unicode="&#x2022;" horiz-adv-x="532" 
d="M227 596q-88 0 -137 62t-34 147q15 86 87 147q72 62 158 62t137 -60t36 -148q-15 -86 -87 -148t-160 -62z" />
    <glyph glyph-name="ellipsis" unicode="&#x2026;" horiz-adv-x="1179" 
d="M1096 229l-39 -229h-197l39 229h197zM702 229l-38 -229h-197l39 229h196zM309 229l-39 -229h-196l39 229h196z" />
    <glyph glyph-name="perthousand" unicode="&#x2030;" horiz-adv-x="1691" 
d="M1374 561q-41 0 -47 -35l-65 -370q-6 -35 32 -35t47 35l66 370q2 14 -7 24t-26 11zM1265 -51q-87 0 -139 59q-51 59 -36 148l65 370q14 88 87 148t161 59q88 0 139 -60t37 -147l-66 -370q-13 -86 -87 -146t-161 -61zM854 561q-41 0 -47 -35l-66 -370q-6 -35 33 -35t47 35
l66 370q2 14 -7 24t-26 11zM744 -51q-87 0 -138 59t-37 148l66 370q14 88 87 148t161 59q88 0 139 -60t37 -147l-66 -370q-14 -86 -88 -146t-161 -61zM389 1442q-43 0 -47 -37l-66 -369q-2 -14 8 -25t27 -12q37 0 45 37l66 369q2 13 -9 25t-24 12zM280 829q-88 -1 -140 59
t-38 148l66 369q14 86 89 146q75 61 160 61t138 -60t39 -147l-66 -369q-14 -88 -88 -148t-160 -59zM29 -51l934 1724h200l-934 -1724h-200z" />
    <glyph glyph-name="guilsinglleft" unicode="&#x2039;" horiz-adv-x="518" 
d="M221 737q70 -97 199 -286l-43 -246l-344 467l22 133l508 467l-43 -246z" />
    <glyph glyph-name="guilsinglright" unicode="&#x203a;" horiz-adv-x="518" 
d="M-47 205l43 246q66 68 295 286l-197 289l43 246l344 -467l-22 -133z" />
    <glyph glyph-name="fraction" unicode="&#x2044;" horiz-adv-x="1208" 
d="M1354 1698l-1356 -1725h-143l1353 1725h146z" />
    <glyph glyph-name="Euro" unicode="&#x20ac;" horiz-adv-x="1087" 
d="M473 -14q-162 0 -268 105t-80 251l37 213h-131l35 199h131l18 110h-131l37 199h131l43 254q27 145 170 251t305 105q162 0 254 -104t66 -252l-25 -150h-199l25 150q12 63 -33 111t-125 48q-79 0 -153 -48t-86 -111l-43 -254h301l-37 -199h-301l-19 -110h301l-34 -199
h-302l-36 -213q-12 -64 45 -112t137 -48t141 47t74 113l24 141h199l-24 -141q-27 -148 -156 -252t-291 -104z" />
    <glyph glyph-name="trademark" unicode="&#x2122;" horiz-adv-x="1343" 
d="M1128 1221l-229 -553h-104l-50 553l-98 -553h-117l179 1005h127l53 -762l325 762h115l-178 -1005h-121zM446 1554l-157 -886h-119l158 886h-160l20 119h437l-21 -119h-158z" />
    <glyph glyph-name="minus" unicode="&#x2212;" horiz-adv-x="831" 
d="M694 711h-596l35 198h596z" />
    </font>
</defs>
</svg>
