<?xml version="1.0" encoding="utf-8"?>
<!-- Generator: Adobe Illustrator 16.0.0, SVG Export Plug-In . SVG Version: 6.00 Build 0)  -->
<!DOCTYPE svg PUBLIC "-//W3C//DTD SVG 1.1//EN" "http://www.w3.org/Graphics/SVG/1.1/DTD/svg11.dtd">
<svg version="1.1" id="Layer_2" xmlns="http://www.w3.org/2000/svg" xmlns:xlink="http://www.w3.org/1999/xlink" x="0px" y="0px"
	 width="25px" height="25px" viewBox="2.5 2.5 25 25" enable-background="new 2.5 2.5 25 25" xml:space="preserve">
<g>
	<path fill="#FFFFFF" d="M16.868,13.097c-0.807,0.004-2.785,0.324-3.085-0.722c-0.229-0.792,0.636-1.779,1.268-2.088
		c0.821-0.399,1.888-0.211,2.741-0.03c0.113,0.024,0.346-0.145,0.173-0.182c-1.844-0.394-3.86-0.265-4.457,1.846
		c-0.474,1.68,2.363,1.374,3.255,1.369C16.891,13.292,17.067,13.096,16.868,13.097"/>
	<path fill="#FFFFFF" d="M18.198,7.498c-1.049,0.093-2.118-0.071-3.167-0.114c-0.722-0.03-1.77-0.114-2.409,0.306
		c-1.565,1.027-1.571,3.386-1.798,5.038c-0.197,1.426-0.294,2.866-0.425,4.302c-0.092,1.031-0.246,2.104-0.189,3.143
		c0.091,1.628,1.419,1.721,2.795,1.595c0.066-0.006,0.146-0.041,0.164-0.111c0.532-2.083-0.267-4.109-0.152-6.205
		c-0.067,0.038-0.134,0.075-0.201,0.112c1.15,0.193,2.499,0.498,3.607-0.019c0.183-0.088,0.019-0.22-0.126-0.154
		c-1.018,0.479-2.314,0.158-3.376-0.02c-0.062-0.011-0.197,0.032-0.201,0.111c-0.074,1.354,0.241,2.681,0.345,4.026
		c0.036,0.461,0.193,2.057-0.459,2.102c-0.495,0.032-1.036,0.024-1.492-0.196c-0.665-0.324-0.626-1.244-0.606-1.859
		c0.04-1.341,0.2-2.684,0.321-4.022c0.115-1.247,0.25-2.486,0.41-3.727c0.131-1.049,0.275-2.126,0.755-3.082
		c0.622-1.241,1.93-1.182,3.138-1.133c1.008,0.042,2.027,0.196,3.034,0.104C18.323,7.678,18.399,7.479,18.198,7.498"/>
	<path fill="#FFFFFF" d="M18.584,7.693c0.127,0,0.305-0.196,0.106-0.196C18.563,7.497,18.386,7.693,18.584,7.693"/>
	<path fill="#FFFFFF" d="M20.777,4.014c-1.412,0.155-2.852-0.023-4.26-0.165c-1.638-0.165-3.275-0.344-4.925-0.358
		C9.119,3.468,6.335,3.885,4.951,6.175c-1.463,2.423-1.429,5.737-1.439,8.463c-0.011,2.87,0.239,5.74,0.091,8.608
		c-0.021,0.449-0.27,1.699,0.452,1.785c0.351,0.042,0.714-0.016,1.067-0.024c1.006-0.034,2.001,0.186,2.996,0.311
		c2.485,0.308,4.992,0.398,7.49,0.537c2.051,0.116,4.059,0.456,6.103,0.614c1.433,0.108,2.845-0.067,3.917-1.099
		c0.886-0.851,0.573-2.241,0.48-3.319c-0.422-4.747-0.861-9.604-0.557-14.369c0.054-0.854,0.257-1.825,0.016-2.669
		c-0.159-0.54-0.725-0.718-1.218-0.828c-2.24-0.505-4.785-0.708-7.061-0.328c-0.153,0.026-0.229,0.234-0.028,0.2
		c2.028-0.342,4.07-0.093,6.089,0.178c0.565,0.078,1.34,0.113,1.76,0.56c0.41,0.438,0.259,1.314,0.228,1.845
		c-0.132,2.344-0.205,4.654-0.096,7.001c0.104,2.298,0.309,4.589,0.466,6.883c0.061,0.906,0.134,1.811,0.206,2.719
		c0.06,0.753,0.008,1.466-0.526,2.049c-1.424,1.557-4.037,0.963-5.857,0.699c-2.254-0.329-4.542-0.372-6.813-0.5
		c-1.201-0.068-2.4-0.156-3.596-0.274c-1.112-0.11-2.219-0.345-3.334-0.407c-0.46-0.024-0.92,0.015-1.379,0.032
		c-0.532,0.023-0.53-0.375-0.533-0.814c-0.009-1.262,0.091-2.521,0.064-3.786c-0.072-3.164-0.273-6.338,0.052-9.495
		C4.134,9.324,4.4,7.877,5.026,6.579c0.651-1.353,1.827-2.155,3.253-2.55c3.134-0.865,6.616-0.079,9.786,0.169
		c0.892,0.07,1.792,0.112,2.68,0.015C20.905,4.195,20.979,3.993,20.777,4.014"/>
	<path fill="#FFFFFF" d="M9.07,5.134C8.94,3.94,7.671,4.646,7.095,5.067C6.11,5.788,4.846,6.994,4.525,8.217
		C4.492,8.348,4.769,8.259,4.81,8.206c0.564-0.75,0.974-1.617,1.465-2.417c0.507-0.825,1.381-2.305,2.543-2.066
		c-0.002,0,0.532,0.218,0.454,0.246c-0.335,0.122-0.663,0.26-0.987,0.406c-0.599,0.27-1.164,0.6-1.695,0.98
		C5.541,6.109,4.783,7.15,4.374,8.369c-0.032,0.097,0.17,0.063,0.205,0.048c1.757-0.776,2.646-2.721,4.007-3.973
		C8.5,4.432,8.416,4.423,8.329,4.411C7.092,6.361,5.327,7.881,3.926,9.708C3.843,9.82,4.111,9.793,4.158,9.762
		c2.534-1.777,4.314-4.398,6.832-6.204l-0.232-0.055c-1.898,2.477-4.591,4.273-6.223,6.961c-0.066,0.11,0.148,0.096,0.196,0.071
		c2.87-1.475,4.884-4.073,7.193-6.242c-0.079-0.019-0.158-0.038-0.236-0.054c-2.241,2.357-5.031,4.248-6.849,6.984
		c-0.073,0.108,0.149,0.091,0.196,0.07c2.984-1.459,4.912-4.248,7.194-6.546c-0.079-0.018-0.16-0.037-0.237-0.055
		c-2.548,2.833-5.747,5.32-7.457,8.798c-0.069,0.14,0.203,0.081,0.256,0.034C7.345,11.24,9.03,8.259,10.73,5.332
		c-0.095,0.009-0.191,0.022-0.285,0.032c1.108,2.751-1.159,5.795-1.671,8.452c-0.023,0.13,0.261,0.054,0.295-0.034
		c1.174-2.972,1.81-6.125,3.035-9.079c-0.097,0.019-0.197,0.038-0.294,0.056c0.261,3.361-1.023,6.537-1.518,9.814
		c0.098-0.011,0.198-0.022,0.295-0.034c0.309-2.766,0.597-5.538,0.606-8.324C11.097,6.234,11,6.252,10.901,6.272
		c0.465,3.4-0.713,6.945-1.823,10.118c-0.038,0.109,0.255,0.062,0.295-0.034c1.362-3.397,1.674-7.072,2.58-10.593
		c-0.097,0.018-0.197,0.037-0.293,0.055c0.204,1.505-0.624,2.874-1.518,4.015c-0.957,1.219-2.168,2.276-3.437,3.162l0.229,0.054
		c1.433-3.055,4.512-4.852,6.224-7.718c0.021-0.034,0.009-0.058-0.02-0.081c-1.023-0.742-2.569-0.335-3.672-0.022
		C8.086,5.619,6.726,6.212,5.491,6.941C5.378,7.007,5.467,7.087,5.563,7.077c3.565-0.481,6.795-2.378,10.438-2.42
		c0.073-0.001,0.316-0.138,0.145-0.171c-2.416-0.455-4.879-0.311-7.321-0.308C8.789,4.235,8.751,4.295,8.715,4.354
		c2.988-0.01,5.973-0.279,8.958,0c0.117,0.011,0.308-0.151,0.112-0.175c-3.48-0.436-6.981-0.307-10.478-0.303
		C7.271,3.934,7.234,3.992,7.196,4.049c3.747-0.022,7.487-0.849,11.199-0.005c0.052-0.055,0.097-0.113,0.145-0.17
		c-3.985,0.15-8.009,0.158-11.914,1.069C6.523,4.969,6.431,5.099,6.59,5.11c4.348,0.275,8.68-0.887,13.021-0.309
		c0.05-0.057,0.098-0.114,0.146-0.17c-4.225,0.015-8.441,0.593-12.524,1.673c-0.139,0.037-0.17,0.178,0.002,0.165
		c4.379-0.33,8.595-1.928,13.017-1.814c0.013-0.054,0.022-0.111,0.036-0.165c-4.303,1.192-8.906,0.929-13.094,2.586
		c-0.095,0.038-0.123,0.146,0.003,0.15c4.989,0.266,9.745-1.774,14.727-1.665c0.021-0.057,0.05-0.115,0.073-0.173
		c-4.442,0.606-8.92,1.064-13.246,2.277c-0.138,0.039-0.174,0.179,0,0.166c4.031-0.326,7.894-1.781,11.955-1.815
		c0.012-0.054,0.023-0.111,0.035-0.165c-4.132,0.901-8.387,1.198-12.448,2.42C8.119,8.326,8.159,8.474,8.337,8.43
		c3.722-0.922,7.504-1.64,11.343-1.809c0.014-0.056,0.025-0.114,0.037-0.171c-3.376,0.313-6.732,0.89-10.133,0.906
		C9.586,7.409,9.587,7.458,9.588,7.51c2.19-0.977,4.607-1.338,6.944-1.803c0.182-0.036,0.135-0.19-0.042-0.156
		c-3.461,0.673-7.103,1.972-9.812,4.288c-0.106,0.089,0.076,0.124,0.14,0.104c2.838-0.847,4.496-3.483,6.903-5.026l-0.231-0.053
		c-1.624,2.799-4.945,3.926-6.983,6.356c-0.082,0.1,0.156,0.093,0.198,0.072c2.562-1.319,4.464-3.532,6.149-5.81
		c0.086-0.116-0.202-0.087-0.256-0.034c-2.746,2.719-5.831,5.073-8.5,7.868c0.085,0.012,0.169,0.021,0.255,0.033
		c1.298-1.773,3.506-4.333,2.59-6.705C6.911,6.564,6.757,6.6,6.706,6.64c-2.853,2.155-2.042,6.355-2.028,9.448
		c0.098-0.019,0.196-0.038,0.293-0.056c-0.629-2.456-0.606-5.028-0.606-7.544C4.267,8.505,4.168,8.523,4.07,8.542
		c0.693,2.802,0.031,5.638,0.152,8.477c0.006,0.108,0.253,0.021,0.283-0.034c1.578-2.816,0.493-6.286,0.163-9.277
		C4.656,7.602,4.364,7.669,4.375,7.786c0.298,3.376,0.311,6.776,0.758,10.14c0.018,0.118,0.27,0.019,0.294-0.055
		c1.196-3.57,0.624-7.362,0.758-11.048C6.091,6.845,5.997,6.871,5.903,6.897c1.315,1.468,1.361,3.675,1.354,5.536
		c-0.007,1.872-0.259,3.78,0,5.646c0.016,0.109,0.252,0.023,0.285-0.033c0.988-1.798,1.036-3.931,0.917-5.927
		c-0.136-2.253-0.599-4.477-1.06-6.68C7.376,5.329,7.091,5.404,7.106,5.517c0.609,4.659,1.492,9.332,1.062,14.05
		c-0.013,0.133,0.265,0.06,0.294-0.033c1.282-4.067,1.676-8.49,1.364-12.736C9.73,6.824,9.63,6.851,9.534,6.876
		c0.883,3.834,0.168,7.753,0.152,11.631c0,0.128,0.245,0.063,0.284-0.013c1.881-3.571,0.948-7.898,0.465-11.698
		c-0.096,0.026-0.196,0.053-0.294,0.079c1.444,4.32,0.382,9.366-0.911,13.599c0.097-0.013,0.197-0.021,0.294-0.033
		c1.097-4.151,1.247-8.719,0.151-12.885C9.649,7.448,9.399,7.521,9.382,7.61c-0.778,4.387-1.24,8.828-2.276,13.167
		c0.097-0.012,0.196-0.022,0.294-0.034c0.481-3.994,2.023-8.291,0.758-12.28C8.123,8.351,7.92,8.442,7.875,8.497
		c-1.136,1.346-1.826,3.029-2.403,4.67c-0.641,1.829-1.107,3.729-1.401,5.643c-0.018,0.127,0.245,0.054,0.285-0.013
		c1.76-2.924,2.716-6.452,2.743-9.86c0-0.111-0.185-0.067-0.239-0.03c-1.313,0.863-1.924,2.398-2.344,3.847
		c-0.512,1.771-0.696,3.623-0.898,5.449c-0.014,0.127,0.25,0.064,0.285-0.011c1.182-2.591,1.828-5.676,1.68-8.521
		C5.576,9.568,5.303,9.64,5.288,9.729c-0.715,4.156,1.026,8.12,1.821,12.129c0.021,0.107,0.276,0.031,0.295-0.057
		c0.615-3.371-0.959-7.083-2.746-9.875c-0.053-0.083-0.303-0.006-0.284,0.098c0.636,3.488,2.234,6.743,2.581,10.291
		c0.01,0.101,0.294,0.037,0.294-0.054C7.248,18.36,7.224,14.4,5.73,10.733c-0.096,0.033-0.188,0.065-0.283,0.098
		c3.02,2.636,3.324,6.809,3.327,10.553c0.001,0.128,0.295,0.068,0.295-0.033c0-4.239,0.019-8.665-1.823-12.585
		C7.203,8.675,6.952,8.719,6.954,8.821c0.054,3.867,2.373,7.303,2.276,11.199c0.097-0.019,0.197-0.038,0.293-0.056
		c-0.598-3.23,0.539-6.638-1.062-9.685c-0.048-0.095-0.271-0.045-0.292,0.056c-0.726,3.639,1.328,7.296,0.151,10.896
		c0.097-0.019,0.197-0.038,0.294-0.054c-0.521-2.016-0.764-4.084-1.381-6.075c-0.552-1.783-1.471-3.787-3.383-4.414
		c-0.073-0.024-0.213,0.019-0.235,0.099c-0.42,1.528-0.274,3.169-0.054,4.717c0.227,1.588,0.614,3.164,1.117,4.688
		c0.034,0.101,0.282,0.037,0.294-0.055c0.308-2.52,0.448-5.08,0-7.59c-0.019-0.102-0.296-0.038-0.294,0.056
		c0.027,2.036,0.579,4.017,0.607,6.054c0.002,0.127,0.293,0.068,0.293-0.034c0.012-1.573,0.197-3.139,0.189-4.71
		c-0.007-1.389-0.114-2.948-0.959-4.11C4.748,9.72,4.555,9.803,4.525,9.881c-0.827,2.282-0.765,4.864-0.614,7.252
		c0.158,2.5,0.527,5.034,1.221,7.45c0.032,0.109,0.244,0.026,0.284-0.033c1.476-2.254,0.83-5.739-0.143-8.065
		C5.229,16.38,4.96,16.449,4.98,16.563c0.593,3.056,2.497,5.395,3.979,8.048c0.051,0.091,0.289,0,0.282-0.096
		c-0.141-2.379-0.071-4.975-2.007-6.689c-0.06-0.054-0.324-0.016-0.282,0.097c0.818,2.173,2.4,3.941,3.338,6.053
		c0.048,0.106,0.334,0.022,0.294-0.078c-0.82-2.095-1.916-4.148-3.503-5.771c-0.085,0.044-0.167,0.089-0.252,0.131
		c1.967,1.181,3.56,2.947,4.837,4.829c0.054,0.076,0.317,0.002,0.282-0.097c-0.656-1.922-1.632-3.872-3.369-5.03
		c-0.06-0.042-0.298,0.011-0.263,0.112c0.507,1.485,1.186,2.961,2.287,4.106c0.06,0.062,0.314,0.013,0.282-0.097
		c-0.493-1.712-1.411-3.354-2.743-4.56c-0.062-0.055-0.313-0.017-0.281,0.097c0.693,2.528,2.934,4.158,4.563,6.072
		c0.069,0.084,0.349-0.019,0.272-0.115c-1.533-1.908-4.405-1.554-6.574-1.84c-0.049,0.055-0.096,0.114-0.143,0.169
		c3.143,0.154,6.277,0.458,9.41,0.758c0.038-0.06,0.074-0.119,0.111-0.176c-2.6-0.142-5.195,0.007-7.777,0.305
		c-0.015,0.057-0.026,0.116-0.038,0.171c2.182-0.315,4.344-0.745,6.525-1.06c0.1-0.016,0.263-0.164,0.075-0.174
		c-2.693-0.133-5.357,0.312-7.971,0.92c-0.1,0.021-0.196,0.16-0.035,0.163c2.99,0.114,5.955-0.841,8.923-0.156
		c0.021-0.054,0.045-0.106,0.068-0.164c-3.243,0.938-6.667,0.728-9.979,1.204c-0.014,0.059-0.025,0.116-0.038,0.172
		c1.718-0.318,3.419-0.733,5.161-0.907c0-0.055-0.001-0.11-0.003-0.164c-0.993,0.228-1.987,0.442-2.995,0.598
		c-0.462,0.072-0.926,0.117-1.395,0.153c-0.034,0.002-1.495,0.055-1.379-0.102c0.857-1.131,1.769-2.287,1.535-3.789
		c-0.017-0.103-0.226-0.024-0.266,0.013c-1.368,1.287-1.538,3.453-1.851,5.19c-0.021,0.132,0.258,0.052,0.294-0.034
		c0.872-2.045,2.41-4.377,1.67-6.681c-0.027-0.088-0.189-0.044-0.238-0.008c-0.981,0.677-1.272,1.942-1.388,3.057
		c-0.129,1.26-0.017,2.701,0.574,3.839c0.055,0.105,0.258,0.033,0.294-0.056c0.779-1.981,0.443-4.354-0.77-6.094
		c-0.061-0.089-0.285-0.002-0.283,0.097c0.037,2.041,0.869,3.984,0.759,6.031c0.098-0.019,0.196-0.038,0.293-0.054
		c-0.589-1.71-0.629-3.525-0.911-5.296c-0.018-0.106-0.254-0.031-0.284,0.031c-0.641,1.417-0.328,3.064-0.312,4.563
		c0.002,0.13,0.271,0.063,0.295-0.034c0.454-1.944,0.313-3.995-0.152-5.925c-0.025-0.102-0.29-0.037-0.294,0.056
		c-0.061,1.072-0.107,2.146,0.034,3.216c0.153,1.146,0.633,2.2,1.215,3.19c0.052,0.088,0.231-0.002,0.272-0.055
		c1.178-1.398,1.026-3.051,0.747-4.743c-0.099,0.023-0.197,0.053-0.294,0.078c0.504,1.612,1.243,2.811,2.311,4.115
		c0.054,0.066,0.274,0.019,0.28-0.075c0.122-1.913-0.138-3.633-0.63-5.481c-0.098,0.026-0.196,0.053-0.294,0.078
		c0.623,2.148,1.372,4.253,2.126,6.356c0.035,0.1,0.294,0.041,0.294-0.054c-0.033-2.204-0.895-4.497-2.441-6.095
		c-0.058-0.062-0.333,0.002-0.282,0.098c1.664,3.185,5.494,4.83,8.862,5.492c0.052,0.011,0.319-0.054,0.227-0.141
		c-1.249-1.181-3.182-1.375-4.819-1.428c-1.783-0.055-3.647,0.13-5.357,0.649c-0.061,0.019-0.209,0.133-0.068,0.163
		c3.041,0.591,6.09-0.272,9.14-0.299c0.024-0.057,0.05-0.117,0.074-0.173c-3.472,0.298-7.173-0.019-10.4,1.534
		c-0.058,0.027-0.145,0.128-0.03,0.148c3.909,0.755,7.804-0.719,11.722-0.6c0.026-0.059,0.05-0.117,0.075-0.173
		c-2.056,0.336-4.16-0.203-6.193-0.489c-1.635-0.231-3.418-0.385-4.946,0.369c-0.062,0.031-0.142,0.12-0.028,0.149
		c3.466,0.886,7.006-0.276,10.507,0.156c0.021-0.059,0.05-0.116,0.073-0.173c-3.19,0.138-6.389-0.127-9.562,0.302
		c-0.102,0.016-0.264,0.166-0.075,0.174c3.386,0.132,6.81-0.413,10.137,0.451c0.049-0.057,0.095-0.116,0.146-0.17
		c-3.506,0.128-6.973-0.58-10.477-0.453c-0.11,0.006-0.312,0.175-0.111,0.175h2.733c0.013-0.055,0.023-0.11,0.034-0.164
		c-0.626,0.136-1.255,0.142-1.896,0.143c-0.038,0.056-0.075,0.116-0.112,0.174c2.809-0.082,5.625,0.9,8.396,1.258
		c2.203,0.284,5.19,0.563,6.807-1.318c0.043-0.051,0.036-0.093-0.028-0.111c-2.087-0.562-4.242-0.34-6.359-0.098
		c-1.25,0.141-2.496,0.282-3.755,0.307c-0.583,0.009-1.168-0.024-1.752-0.089c-0.406-0.043-0.809-0.124-1.207-0.215
		c-0.186-0.041-0.742-0.099-0.373-0.326c1.606-0.992,4.02-0.564,5.761-0.271c1.756,0.296,3.472,0.778,5.212,1.146
		c0.036-0.054,0.071-0.112,0.107-0.167c-4.083,0.299-8.175,0.008-12.259-0.155c-0.013,0.056-0.023,0.113-0.035,0.166
		c4.165-1.211,8.501-1.635,12.825-1.352c0.024-0.058,0.051-0.117,0.075-0.174c-4.108,0.758-8.309,0.302-12.446,0.756
		c-0.148,0.017-0.241,0.193-0.038,0.171c4.589-0.466,9.119-1.334,13.662-2.12c0.142-0.022,0.243-0.183,0.037-0.17
		c-3.166,0.168-6.23,0.941-9.3,1.672c0.025,0.049,0.054,0.094,0.081,0.144c1.984-0.92,3.925-1.941,6.033-2.561
		c-0.014-0.054-0.027-0.106-0.041-0.157c-1.035,0.339-2.069,0.654-3.075,1.072c0.068,0.01,0.137,0.018,0.206,0.026
		c-0.375-1.37-0.164-2.683,0-4.063c0.016-0.133-0.263-0.054-0.295,0.033c-0.464,1.309-0.56,2.623-0.151,3.957
		c0.034,0.109,0.314,0.032,0.294-0.078c-0.455-2.258-0.142-4.705-1.216-6.812c-0.05-0.098-0.316-0.036-0.293,0.079
		c0.138,0.644,0.15,1.29,0.152,1.943c0.098-0.018,0.196-0.037,0.293-0.055c-0.301-0.615-0.558-1.254-0.922-1.834
		c-0.074,0.047-0.149,0.093-0.224,0.141c1.412,0.293,2.853,0.309,4.284,0.458c0.022-0.056,0.051-0.117,0.073-0.173
		c-1.107,0.145-2.23,0.158-3.339,0.303c0,0.055,0.001,0.11,0.002,0.163c0.986-0.271,1.985-0.452,2.995-0.599
		c0.101-0.015,0.264-0.176,0.076-0.173c-1.18,0.026-2.437,0.435-3.583,0.017c-0.057,0.054-0.114,0.107-0.171,0.162h1.062
		c-0.001-0.052-0.002-0.102-0.004-0.154c-0.458,0.193-0.82,0.524-1.247,0.774c-0.171,0.1,0.084,0.155,0.185,0.097
		c0.315-0.186,0.594-0.42,0.91-0.605c-0.062-0.033-0.123-0.063-0.185-0.094c-0.435,0.32-0.78,0.738-1.214,1.06
		c-0.096,0.07-0.036,0.153,0.073,0.131c0.917-0.166,1.726-0.476,2.415-1.115c-0.079-0.018-0.16-0.037-0.236-0.055
		c-0.421,0.439-0.792,0.925-1.216,1.361c-0.117,0.123,0.143,0.127,0.211,0.077l1.821-1.362c-0.07-0.023-0.142-0.052-0.211-0.076
		c-1,0.834-1.972,1.695-2.751,2.746c-0.066,0.091,0.114,0.097,0.159,0.083c1.596-0.523,2.786-1.713,4.17-2.603
		c0.165-0.107-0.087-0.159-0.184-0.093c-1.312,0.836-2.497,1.877-3.519,3.046c-0.116,0.129,0.142,0.12,0.211,0.075
		c1.285-0.818,2.475-1.84,3.384-3.069c0.09-0.124-0.208-0.073-0.257-0.034c-1.455,1.163-2.563,2.743-2.911,4.587
		c-0.023,0.123,0.264,0.062,0.293-0.034c0.427-1.436,0.148-2.866-0.305-4.262c-0.097,0.027-0.195,0.054-0.293,0.079
		c0.725,2.059,0.03,4.226,0,6.336c0.098-0.013,0.196-0.022,0.293-0.034c-0.007-2.019-0.146-4.034-0.152-6.054
		c0-0.127-0.282-0.07-0.294,0.034c-0.268,2.365,0.129,4.762-0.303,7.114c0.097-0.013,0.196-0.023,0.293-0.034
		c0.023-2.998,0.732-5.945,1.67-8.777c-0.097,0.018-0.197,0.037-0.294,0.056c0.131,2.682-0.434,5.331-0.606,7.998
		c-0.009,0.127,0.248,0.065,0.284-0.011c0.92-2.042,1.377-4.235,1.982-6.38c-0.096,0.02-0.195,0.037-0.294,0.057
		c0.107,2.445-1.159,4.704-1.973,6.939c-0.044,0.118,0.243,0.045,0.284-0.013c1.665-2.301,2.805-4.921,4.402-7.264
		c-0.096,0.004-0.189,0.009-0.285,0.012c-0.786,3.466-4.33,4.929-6.191,7.706c-0.083,0.121,0.184,0.08,0.23,0.054
		c1.923-1.201,4.239-1.755,5.772-3.508c0.102-0.118-0.104-0.131-0.178-0.094c-2.504,1.286-5.382,1.632-7.752,3.206
		c0.06,0.032,0.124,0.062,0.184,0.096c1.447-1.075,3.383-0.896,4.835-1.979c0.167-0.125-0.091-0.146-0.184-0.095
		c-2.455,1.313-5.409,0.962-7.871,2.278C7.188,23.981,7.36,24.05,7.448,24.03c1.86-0.407,3.917-0.348,5.389-1.726
		c0.084-0.078-0.029-0.122-0.099-0.113c-2.013,0.216-3.797,1.33-5.426,2.457c0.071,0.025,0.142,0.052,0.211,0.077
		c0.893-1.03,1.852-1.985,2.885-2.877c0.131-0.114-0.145-0.114-0.209-0.075c-1.641,0.979-3.666,0.884-5.167,2.149
		c-0.131,0.111,0.145,0.118,0.211,0.075c1.533-0.948,3.236-1.508,4.423-2.927c0.091-0.107-0.186-0.083-0.229-0.054
		c-1.646,1.062-3.119,2.35-4.429,3.803c-0.12,0.131,0.167,0.127,0.236,0.054c1.361-1.369,2.668-2.92,3.367-4.737
		c0.044-0.113-0.206-0.049-0.238-0.03c-1.791,0.998-3.725,2.558-4.306,4.602c-0.019,0.07,0.091,0.072,0.128,0.07
		c2.044-0.091,3.308-2.526,3.354-4.342c0.002-0.099-0.15-0.069-0.207-0.049c-1.371,0.522-5.36,2.372-3.012,4.093
		c0.956,0.698,2.356,0.381,3.358-0.02c0.949-0.381,2.174-1.145,2.442-2.209c0.01-0.037-0.029-0.056-0.059-0.064
		c-1.405-0.422-3.277,0.022-4.609,0.51C4.418,23.078,3.154,24.201,4.6,25.06c1.403,0.832,3.677,0.218,5.121-0.164
		c0.926-0.243,1.835-0.565,2.702-0.973c0.531-0.25,1.145-0.554,1.497-1.039c0.043-0.062-0.039-0.088-0.083-0.094
		c-2.15-0.278-5.87,0.07-6.86,2.386c-0.009,0.021,0.015,0.049,0.031,0.056c1.613,0.657,3.57,0.262,5.177-0.217
		c1.523-0.455,3.515-1.254,4.316-2.737c0.054-0.097-0.104-0.097-0.16-0.086c-2.474,0.607-5.833,0.96-7.23,3.414
		c-0.045,0.078,0.064,0.094,0.119,0.091c3.289-0.342,6.686-1.681,9.072-4.004c0.125-0.122-0.145-0.117-0.211-0.076
		c-2.137,1.31-5.318,0.997-6.854,3.23c-0.053,0.077,0.072,0.094,0.12,0.092c1.715-0.112,3.402-0.61,4.979-1.274
		c1.482-0.625,3.073-1.509,3.956-2.902c0.071-0.11-0.148-0.092-0.197-0.069c-1.625,0.744-3.376,1.19-5.029,1.875
		c-1.37,0.57-2.833,1.357-3.525,2.733c-0.042,0.08,0.059,0.094,0.118,0.091c3.384-0.219,6.697-2.155,9.223-4.306
		c0.133-0.114-0.163-0.12-0.238-0.056c-2.182,1.79-6.04,1.515-7.432,4.27c-0.03,0.06,0.024,0.091,0.082,0.093
		c1.956,0.063,3.908-0.744,5.606-1.637c1.649-0.863,3.398-2.015,4.431-3.601c0.073-0.112-0.152-0.09-0.198-0.071
		c-1.691,0.682-3.469,1.129-5.15,1.84c-1.277,0.536-2.708,1.291-3.262,2.638c-0.019,0.053,0.061,0.07,0.09,0.072
		c1.825,0.066,3.637-0.445,5.314-1.119c1.685-0.678,3.4-1.646,4.571-3.06c0.093-0.114-0.19-0.074-0.229-0.055
		c-2.526,1.375-6.452,1.438-8.068,4.138c-0.034,0.06,0.028,0.091,0.082,0.092c1.635,0.062,3.241-0.477,4.705-1.149
		c1.471-0.675,2.947-1.603,3.964-2.877c0.089-0.105-0.16-0.083-0.196-0.069c-2.808,0.971-6.64,1.473-8.404,4.155
		c-0.038,0.057,0.03,0.092,0.08,0.092c1.562-0.021,3.082-0.509,4.5-1.134c1.435-0.634,2.879-1.506,3.868-2.741
		c0.092-0.11-0.2-0.088-0.255-0.033c-2.19,2.102-6.229,2.016-7.586,5.025c-0.038,0.082,0.058,0.096,0.121,0.093
		c3.04-0.201,6.068-1.678,8.309-3.701c0.127-0.114-0.142-0.125-0.208-0.075c-2.117,1.447-5.372,1.357-6.705,3.833
		c-0.042,0.083,0.063,0.097,0.12,0.093c2.652-0.184,5.796-1.185,7.421-3.42c0.079-0.105-0.154-0.091-0.198-0.071
		c-2.233,1.072-5.126,1.111-6.583,3.396c-0.037,0.056,0.031,0.093,0.082,0.092c2.326-0.034,5.265-1.057,6.546-3.116
		c0.077-0.122-0.18-0.092-0.23-0.055c-1.374,1.036-3.329,1.042-4.269,2.626c-0.066,0.11,0.146,0.095,0.195,0.071
		c1.266-0.657,2.751-0.714,3.831-1.712c0.131-0.123-0.162-0.119-0.235-0.057c-1.108,0.927-2.514,1.339-3.619,2.281
		c-0.123,0.104,0.114,0.122,0.177,0.09c1.389-0.642,2.548-1.621,3.703-2.609c-0.078-0.018-0.158-0.036-0.237-0.055
		c-0.923,1.053-1.974,1.968-3.034,2.877c-0.121,0.104,0.114,0.123,0.179,0.092c1.391-0.648,2.476-1.691,3.551-2.761
		c-0.082-0.019-0.162-0.037-0.237-0.056c-0.779,0.788-1.497,1.633-2.276,2.422c-0.094,0.096,0.067,0.126,0.14,0.105
		c0.528-0.151,0.733-0.378,1.028-0.829c0.041-0.062-0.032-0.09-0.083-0.094c-3.192-0.307-6.409-0.292-9.601,0.001
		c-0.105,0.013-0.259,0.176-0.075,0.174c2.431-0.012,4.855-0.284,7.286-0.149c0.023-0.06,0.05-0.118,0.074-0.174
		c-3.234,0.607-6.534,1.046-9.829,0.754c0.002,0.052,0.003,0.101,0.003,0.153c3.049-1.31,6.386-0.749,9.601-0.733
		c0.078,0,0.312-0.148,0.145-0.172c-2.082-0.274-4.164-0.162-6.257-0.155c-0.012,0.054-0.022,0.11-0.035,0.165
		c2.861-0.925,5.897-1.037,8.881-0.899c0.021-0.058,0.05-0.115,0.075-0.172c-3.065,0.154-6.133,0.189-9.151,0.771
		c-0.141,0.029-0.167,0.191,0.002,0.165c3.069-0.469,6.104-1.187,9.223-1.212c0.024-0.056,0.052-0.116,0.075-0.172
		c-3.923,0.585-7.903,0.471-11.842,0.908c-0.146,0.018-0.24,0.189-0.038,0.171c3.486-0.291,6.967,0.279,10.454,0.142
		c0.112-0.005,0.252-0.181,0.075-0.173c-3.372,0.121-6.66-1.178-10.036-0.745c-0.146,0.018-0.238,0.195-0.037,0.171
		c3.515-0.428,7.042,0.125,10.566-0.011c0.025-0.055,0.054-0.116,0.075-0.171c-3.47,0.268-6.876-1.162-10.339-0.438
		c-0.103,0.021-0.193,0.159-0.035,0.166c3.12,0.178,6.38,0.936,9.467,0.131c0.096-0.024,0.197-0.161,0.033-0.165
		c-3.222-0.132-6.414,0.307-9.6,0.759c-0.144,0.02-0.242,0.193-0.038,0.171c3.254-0.337,6.763-1.07,9.521-2.913
		c0.085-0.055,0.059-0.127-0.035-0.135c-2.734-0.271-5.376,0.729-8.083,0.909c0.022,0.045,0.048,0.09,0.073,0.134
		c0.417-0.257,0.834-0.42,1.295-0.575c0.17-0.058,0.131-0.214-0.043-0.157c-0.505,0.168-0.983,0.355-1.437,0.636
		c-0.116,0.071-0.021,0.141,0.073,0.133c1.519-0.099,3-0.435,4.496-0.698c0.808-0.142,1.617-0.242,2.436-0.263
		c0.157-0.003,0.754,0.109,0.868,0.032c-0.347,0.235-0.72,0.433-1.092,0.622c-2.459,1.252-5.311,1.818-8.037,2.102
		c-0.014,0.057-0.025,0.114-0.037,0.17c3.158-0.45,6.326-0.891,9.525-0.754c0.013-0.055,0.021-0.111,0.034-0.164
		c-3.028,0.786-6.253,0.021-9.311-0.153c-0.012,0.053-0.024,0.11-0.036,0.166c3.421-0.715,6.824,0.715,10.259,0.452
		c0.109-0.009,0.256-0.181,0.075-0.172c-3.547,0.132-7.101-0.42-10.64,0.011c-0.013,0.057-0.024,0.116-0.038,0.174
		c3.352-0.43,6.613,0.866,9.962,0.745c0.021-0.056,0.049-0.116,0.075-0.172c-3.487,0.136-6.969-0.433-10.455-0.141
		c-0.012,0.055-0.023,0.114-0.037,0.169c3.937-0.438,7.92-0.325,11.843-0.907c0.097-0.015,0.262-0.174,0.074-0.172
		c-3.146,0.02-6.203,0.742-9.298,1.214c0.002,0.053,0.002,0.109,0.004,0.163c2.989-0.576,6.036-0.6,9.067-0.748
		c0.109-0.005,0.258-0.164,0.075-0.171c-3.035-0.142-6.125-0.02-9.034,0.916c-0.087,0.029-0.2,0.167-0.034,0.166
		c2.066-0.009,4.134-0.128,6.19,0.147c0.052-0.058,0.097-0.115,0.145-0.171c-3.298-0.018-6.701-0.564-9.829,0.781
		c-0.096,0.041-0.123,0.142,0.003,0.152c3.318,0.293,6.646-0.145,9.903-0.758c0.095-0.018,0.268-0.162,0.077-0.174
		c-2.433-0.132-4.856,0.14-7.288,0.152c-0.025,0.058-0.049,0.116-0.075,0.173c1.786-0.164,3.578-0.235,5.372-0.223
		c0.841,0.007,1.683,0.042,2.522,0.093c0.364,0.02,0.729,0.05,1.093,0.08c0.748,0.062-0.01,0.549-0.337,0.642
		c0.048,0.034,0.094,0.069,0.14,0.104c0.78-0.786,1.499-1.631,2.279-2.418c0.122-0.127-0.165-0.129-0.238-0.056
		c-1.038,1.035-2.087,2.06-3.433,2.687c0.058,0.03,0.119,0.062,0.178,0.093c1.062-0.908,2.113-1.824,3.034-2.875
		c0.121-0.138-0.165-0.118-0.236-0.056c-1.115,0.956-2.238,1.91-3.582,2.535c0.059,0.031,0.118,0.062,0.178,0.091
		c1.104-0.938,2.51-1.353,3.617-2.277c-0.079-0.018-0.157-0.037-0.235-0.055c-1.032,0.952-2.501,1.008-3.712,1.637l0.196,0.071
		c0.9-1.512,2.857-1.543,4.182-2.541c-0.075-0.019-0.152-0.035-0.229-0.055c-0.644,1.037-1.705,1.693-2.797,2.183
		c-0.562,0.252-1.152,0.431-1.749,0.573c-0.31,0.073-0.618,0.121-0.93,0.16c-0.235,0.027-0.607,0.126-0.373-0.207
		c1.372-1.929,4.212-1.983,6.195-2.937c-0.065-0.024-0.131-0.05-0.198-0.072c-0.841,1.155-2.102,1.884-3.406,2.417
		c-0.671,0.274-1.373,0.469-2.083,0.624c-0.334,0.071-0.673,0.121-1.012,0.163c-0.472,0.058-0.449,0.032-0.188-0.347
		c0.761-1.107,2.193-1.551,3.404-1.962c1.01-0.343,2.018-0.689,2.907-1.295c-0.069-0.024-0.14-0.053-0.211-0.078
		c-1.282,1.16-2.779,2.049-4.374,2.708c-0.882,0.365-1.8,0.625-2.743,0.78c-0.235,0.04-0.854,0.269-0.647-0.135
		c0.181-0.353,0.442-0.659,0.721-0.935c1.839-1.823,4.79-1.914,6.671-3.725c-0.087-0.011-0.17-0.021-0.256-0.032
		c-0.999,1.25-2.475,2.076-3.919,2.711c-0.721,0.318-1.474,0.564-2.24,0.756c-0.376,0.092-0.754,0.155-1.139,0.2
		c-0.018,0.004-0.532,0.03-0.505-0.013c0.124-0.188,0.274-0.357,0.43-0.523c1.905-2.054,5.189-2.489,7.722-3.366
		c-0.065-0.024-0.129-0.047-0.198-0.07c-0.983,1.229-2.403,2.084-3.806,2.754c-0.781,0.375-1.604,0.666-2.445,0.881
		c-0.382,0.097-0.765,0.159-1.152,0.202c-0.459,0.054-0.883,0.188-0.519-0.306c0.927-1.245,2.663-1.774,4.069-2.241
		c1.228-0.411,2.485-0.766,3.628-1.391l-0.232-0.054c-1.136,1.37-2.795,2.263-4.414,2.938c-0.861,0.361-1.762,0.635-2.672,0.84
		c-0.446,0.099-0.898,0.163-1.354,0.209c-0.236,0.022-0.471,0.031-0.705,0.034c-0.285,0.004-0.187-0.119-0.085-0.307
		c0.731-1.325,2.493-1.971,3.829-2.475c1.398-0.528,2.848-0.916,4.232-1.474c-0.064-0.021-0.131-0.047-0.196-0.069
		c-0.898,1.38-2.347,2.371-3.747,3.187c-1.56,0.915-3.329,1.662-5.141,1.865c-0.487,0.055-0.733,0.136-0.424-0.339
		c0.236-0.363,0.574-0.652,0.923-0.901c0.682-0.483,1.503-0.773,2.288-1.051c1.361-0.481,2.792-0.881,3.93-1.812
		c-0.079-0.018-0.16-0.037-0.239-0.054c-1.436,1.226-3.047,2.239-4.761,3.035c-0.866,0.399-1.767,0.713-2.694,0.938
		c-0.419,0.1-0.849,0.161-1.279,0.199c-0.054,0.006,0.5-0.763,0.536-0.802c0.995-1.085,2.521-1.649,3.869-2.143
		c1.3-0.481,2.64-0.862,3.903-1.439c-0.066-0.022-0.13-0.048-0.199-0.071c-0.742,1.176-2.001,1.929-3.226,2.525
		c-1.376,0.67-2.874,1.132-4.384,1.381c-0.282,0.047-0.568,0.077-0.855,0.101c0.091-0.009,0.698-0.696,0.82-0.786
		c0.652-0.482,1.471-0.724,2.238-0.943c1.254-0.359,2.539-0.624,3.663-1.313c-0.069-0.025-0.14-0.052-0.211-0.076
		c-2.266,2.206-5.452,3.487-8.567,3.864c-0.078,0.01,0.419-0.629,0.396-0.601c0.233-0.269,0.52-0.488,0.809-0.689
		c0.618-0.429,1.342-0.708,2.053-0.947c1.183-0.394,2.418-0.616,3.63-0.914c-0.053-0.027-0.105-0.054-0.158-0.085
		c-0.687,1.276-2.277,1.953-3.574,2.421c-1.518,0.553-3.316,0.921-4.921,0.56c-0.97-0.22,0.529-1.271,0.871-1.467
		c0.818-0.472,1.795-0.681,2.721-0.806c0.745-0.101,1.503-0.109,2.25-0.029c-0.022-0.003-0.957,0.691-1.147,0.787
		c-1.254,0.636-2.648,1.036-4.024,1.297c-1.126,0.215-2.612,0.45-3.652-0.166c-0.385-0.228-0.648-0.716-0.452-1.146
		c0.244-0.534,1.01-0.792,1.521-0.967c1.146-0.391,2.475-0.593,3.686-0.474c0.079,0.01,0.344,0.008,0.314,0.119
		c-0.055,0.227-0.207,0.426-0.347,0.607c-0.339,0.441-0.823,0.769-1.297,1.045c-1.056,0.614-2.498,0.975-3.601,0.291
		c-2.346-1.453,1.765-3.385,2.897-3.815c-0.068-0.017-0.136-0.032-0.206-0.05c-0.04,1.604-1.068,3.896-2.854,4.128
		c-0.006,0,0.478-1.099,0.571-1.248c0.287-0.456,0.654-0.857,1.03-1.242c0.745-0.76,1.625-1.394,2.555-1.909
		c-0.079-0.01-0.161-0.02-0.238-0.029c-0.687,1.781-1.979,3.304-3.312,4.646c0.08,0.019,0.158,0.037,0.236,0.056
		c1.295-1.438,2.747-2.713,4.377-3.764c-0.078-0.018-0.154-0.036-0.229-0.054C8.242,22.431,6.545,22.979,5.06,23.9
		c0.071,0.024,0.141,0.05,0.211,0.075c1.465-1.233,3.502-1.145,5.112-2.109c-0.07-0.022-0.14-0.05-0.21-0.074
		c-1.034,0.89-1.992,1.845-2.885,2.875c-0.113,0.13,0.141,0.125,0.211,0.076c0.77-0.534,1.557-1.038,2.39-1.474
		c0.388-0.202,0.792-0.376,1.201-0.529c0.217-0.086,1.288-0.284,1.336-0.329c-1.287,1.203-3.395,1.106-5.019,1.462
		C7.444,23.915,7.481,23.957,7.52,24c2.454-1.313,5.409-0.963,7.87-2.278c-0.061-0.032-0.124-0.064-0.184-0.096
		c-1.447,1.075-3.382,0.896-4.835,1.978c-0.162,0.121,0.088,0.162,0.184,0.095c2.345-1.557,5.206-1.898,7.685-3.171
		c-0.058-0.029-0.119-0.062-0.177-0.093c-1.513,1.736-3.819,2.286-5.719,3.471c0.076,0.018,0.152,0.036,0.229,0.054
		c1.875-2.799,5.417-4.253,6.211-7.751c0.029-0.128-0.245-0.047-0.284,0.012c-1.596,2.344-2.736,4.964-4.402,7.264
		c0.095-0.003,0.189-0.008,0.285-0.011c0.823-2.255,2.082-4.517,1.973-6.983c-0.005-0.111-0.271-0.024-0.294,0.054
		c-0.6,2.127-1.051,4.31-1.963,6.335c0.095-0.003,0.189-0.009,0.285-0.013c0.173-2.683,0.739-5.345,0.606-8.042
		c-0.007-0.114-0.27-0.02-0.294,0.054c-0.937,2.833-1.647,5.782-1.669,8.778c-0.001,0.128,0.274,0.066,0.293-0.034
		c0.435-2.352,0.036-4.748,0.305-7.114c-0.098,0.014-0.195,0.023-0.294,0.034c0.007,2.02,0.146,4.035,0.152,6.055
		c0,0.127,0.292,0.068,0.294-0.034c0.029-2.127,0.73-4.305-0.001-6.378c-0.039-0.109-0.327-0.025-0.293,0.078
		c0.449,1.377,0.727,2.798,0.306,4.217c0.096-0.013,0.194-0.022,0.292-0.034c0.345-1.812,1.426-3.354,2.855-4.495
		c-0.085-0.013-0.168-0.021-0.255-0.034c-0.885,1.192-2.047,2.189-3.295,2.985c0.071,0.024,0.14,0.053,0.21,0.076
		c1.009-1.151,2.173-2.182,3.465-3.008c-0.061-0.029-0.124-0.061-0.184-0.093c-1.334,0.854-2.49,2.037-4.027,2.543
		c0.052,0.026,0.105,0.054,0.158,0.085c0.769-1.037,1.728-1.881,2.715-2.702c0.126-0.106-0.141-0.129-0.212-0.077
		c-0.607,0.454-1.214,0.908-1.822,1.361c0.072,0.026,0.142,0.053,0.211,0.075c0.421-0.439,0.793-0.921,1.215-1.36
		c0.125-0.13-0.165-0.126-0.236-0.057c-0.615,0.572-1.322,0.853-2.139,1.002c0.022,0.044,0.049,0.088,0.073,0.131
		c0.435-0.32,0.78-0.739,1.214-1.06c0.166-0.122-0.088-0.153-0.185-0.094c-0.315,0.186-0.595,0.417-0.911,0.604
		c0.062,0.032,0.123,0.062,0.185,0.095c0.405-0.236,0.743-0.555,1.181-0.74c0.09-0.037,0.127-0.153-0.003-0.153h-1.065
		c-0.048,0-0.309,0.11-0.171,0.163c1.208,0.441,2.463,0.043,3.702,0.014c0.025-0.056,0.052-0.116,0.076-0.172
		c-1.038,0.15-2.062,0.335-3.076,0.613c-0.134,0.035-0.171,0.186,0.003,0.163c1.108-0.145,2.229-0.16,3.339-0.305
		c0.105-0.016,0.263-0.155,0.075-0.172c-1.406-0.145-2.828-0.164-4.216-0.451c-0.066-0.014-0.292,0.034-0.226,0.141
		c0.355,0.569,0.605,1.196,0.899,1.799c0.044,0.091,0.294,0.048,0.294-0.056c-0.001-0.668-0.012-1.332-0.152-1.989
		c-0.097,0.026-0.196,0.054-0.293,0.08c1.073,2.107,0.76,4.554,1.214,6.811c0.098-0.025,0.197-0.053,0.295-0.078
		c-0.404-1.322-0.309-2.623,0.152-3.912c-0.098,0.013-0.197,0.021-0.295,0.034c-0.165,1.403-0.381,2.718,0.002,4.107
		c0.019,0.079,0.156,0.046,0.206,0.026c0.978-0.407,1.989-0.716,2.997-1.046c0.17-0.054,0.135-0.21-0.043-0.157
		c-2.132,0.629-4.1,1.654-6.11,2.586c-0.16,0.073-0.055,0.177,0.081,0.143c3.045-0.724,6.083-1.488,9.223-1.655
		c0.012-0.055,0.021-0.116,0.037-0.171c-4.542,0.78-9.074,1.652-13.662,2.119c-0.015,0.055-0.026,0.114-0.038,0.172
		c4.137-0.454,8.339,0.002,12.446-0.756c0.096-0.019,0.268-0.163,0.073-0.174c-4.375-0.282-8.765,0.145-12.978,1.371
		c-0.094,0.026-0.198,0.158-0.035,0.164c4.107,0.163,8.226,0.452,12.333,0.149c0.073-0.005,0.267-0.133,0.108-0.167
		c-2.089-0.447-4.144-1.042-6.268-1.308c-1.778-0.226-3.943-0.393-5.455,0.768c-0.054,0.041-0.023,0.093,0.03,0.111
		c2.729,0.863,5.564,0.427,8.346,0.127c1.511-0.163,3.035-0.267,4.545-0.029c0.066,0.009,0.81,0.193,0.802,0.202
		c-0.175,0.202-0.389,0.373-0.608,0.525c-0.425,0.291-0.926,0.453-1.419,0.572c-2.198,0.526-4.661-0.015-6.831-0.418
		c-1.93-0.358-3.926-0.903-5.905-0.847c-0.112,0.002-0.312,0.174-0.112,0.172c0.693,0,1.37-0.011,2.051-0.161
		c0.098-0.019,0.195-0.163,0.036-0.163H5.964c-0.037,0.057-0.074,0.117-0.112,0.174c3.504-0.127,6.971,0.581,10.475,0.455
		c0.071-0.004,0.318-0.128,0.145-0.172c-3.35-0.869-6.795-0.325-10.205-0.457c-0.023,0.057-0.049,0.117-0.073,0.174
		c3.173-0.429,6.375-0.164,9.562-0.305c0.112-0.003,0.254-0.149,0.075-0.174c-1.846-0.227-3.698-0.018-5.542,0.118
		c-1.045,0.074-2.093,0.11-3.142,0.035c-0.509-0.035-1.009-0.124-1.508-0.235c-0.277-0.062,0.288-0.159,0.368-0.184
		c0.227-0.076,0.466-0.122,0.702-0.163c3.209-0.552,6.406,1.119,9.631,0.594c0.097-0.019,0.264-0.168,0.074-0.174
		c-3.592-0.108-7.109,1.084-10.703,0.756c-0.236-0.024-0.474-0.057-0.708-0.1c-0.191-0.03,0.382-0.191,0.391-0.196
		c0.44-0.186,0.898-0.314,1.36-0.437c0.963-0.252,1.957-0.369,2.945-0.456c1.757-0.156,3.52-0.151,5.275-0.302
		c0.106-0.011,0.257-0.175,0.075-0.173c-3.024,0.024-6.06,0.891-9.075,0.309c-0.022,0.053-0.045,0.106-0.066,0.161
		c1.608-0.487,3.327-0.648,5.004-0.635c1.625,0.013,3.616,0.199,4.856,1.371c0.075-0.048,0.15-0.094,0.226-0.14
		c-3.313-0.651-7.108-2.269-8.747-5.406c-0.093,0.034-0.188,0.066-0.282,0.097c1.519,1.572,2.386,3.838,2.417,6.013
		c0.097-0.019,0.197-0.036,0.293-0.055c-0.751-2.105-1.503-4.21-2.125-6.358c-0.031-0.106-0.322-0.03-0.294,0.079
		c0.489,1.835,0.749,3.533,0.631,5.436c0.093-0.024,0.189-0.052,0.282-0.075c-1.052-1.285-1.792-2.489-2.288-4.078
		c-0.034-0.107-0.312-0.032-0.294,0.079c0.274,1.667,0.433,3.278-0.728,4.656c0.091-0.018,0.183-0.035,0.274-0.053
		c-1.197-2.036-1.36-4.012-1.226-6.324c-0.098,0.018-0.197,0.037-0.295,0.054c0.461,1.919,0.604,3.946,0.152,5.881
		c0.099-0.015,0.197-0.023,0.295-0.034c-0.014-1.479-0.339-3.122,0.294-4.52c-0.094,0.013-0.19,0.021-0.284,0.032
		c0.281,1.773,0.321,3.586,0.911,5.297c0.034,0.1,0.289,0.041,0.294-0.055c0.111-2.062-0.721-4.02-0.759-6.076
		c-0.093,0.032-0.189,0.064-0.283,0.099c1.197,1.715,1.514,4.056,0.748,6.012C5.08,25,5.178,24.98,5.275,24.965
		c-0.535-1.036-0.64-2.274-0.599-3.424c0.042-1.139,0.299-2.604,1.303-3.301C5.9,18.238,5.819,18.235,5.74,18.231
		c0.733,2.288-0.805,4.609-1.67,6.636c0.098-0.012,0.198-0.021,0.294-0.034c0.306-1.69,0.463-3.852,1.794-5.101
		c-0.09,0.004-0.177,0.008-0.267,0.011c0.24,1.546-0.784,2.738-1.66,3.891c-0.044,0.057,0.038,0.091,0.083,0.093
		c2.084,0.13,4.13-0.304,6.149-0.767c0.139-0.032,0.167-0.181-0.002-0.164c-1.742,0.172-3.443,0.592-5.161,0.907
		c-0.14,0.025-0.243,0.201-0.037,0.172c3.342-0.479,6.789-0.272,10.058-1.217c0.064-0.019,0.207-0.128,0.067-0.162
		c-2.998-0.693-5.974,0.261-8.99,0.146c-0.013,0.056-0.022,0.11-0.035,0.167c2.563-0.597,5.177-1.034,7.816-0.899
		c0.025-0.059,0.051-0.116,0.076-0.174c-2.183,0.316-4.345,0.745-6.526,1.06c-0.145,0.021-0.242,0.197-0.038,0.172
		c2.56-0.295,5.129-0.441,7.704-0.302c0.117,0.007,0.313-0.156,0.113-0.175c-3.135-0.299-6.268-0.602-9.413-0.757
		c-0.083-0.005-0.31,0.15-0.145,0.171c2.136,0.284,4.977-0.077,6.481,1.791c0.091-0.039,0.181-0.078,0.272-0.117
		c-1.618-1.904-3.853-3.521-4.542-6.034c-0.094,0.034-0.188,0.064-0.283,0.099c1.323,1.197,2.23,2.815,2.722,4.521
		c0.094-0.032,0.188-0.065,0.282-0.098c-1.094-1.136-1.763-2.592-2.267-4.067c-0.088,0.038-0.174,0.075-0.263,0.112
		c1.709,1.144,2.664,3.073,3.309,4.961c0.093-0.031,0.188-0.063,0.283-0.096c-1.29-1.897-2.894-3.669-4.878-4.857
		c-0.066-0.041-0.34,0.043-0.252,0.131c1.579,1.613,2.665,3.648,3.48,5.73c0.097-0.025,0.197-0.052,0.293-0.078
		c-0.94-2.115-2.523-3.881-3.34-6.053c-0.093,0.032-0.188,0.063-0.282,0.098c1.926,1.702,1.846,4.286,1.985,6.646
		c0.093-0.032,0.189-0.065,0.281-0.098c-1.473-2.638-3.369-4.972-3.958-8.01c-0.097,0.023-0.195,0.051-0.293,0.078
		c0.963,2.305,1.62,5.747,0.162,7.977c0.093-0.013,0.189-0.021,0.284-0.034c-0.676-2.345-1.027-4.795-1.208-7.227
		c-0.182-2.431-0.244-5.102,0.6-7.43C4.725,9.874,4.631,9.897,4.536,9.923c0.908,1.246,0.944,2.963,0.936,4.442
		c-0.005,1.435-0.179,2.86-0.188,4.296c0.096-0.013,0.196-0.022,0.293-0.034c-0.027-2.036-0.579-4.02-0.606-6.054
		c-0.098,0.019-0.196,0.038-0.294,0.056c0.446,2.496,0.307,5.041,0,7.544c0.098-0.019,0.196-0.038,0.294-0.055
		c-0.482-1.457-0.839-2.955-1.083-4.467c-0.259-1.598-0.415-3.316,0.021-4.895c-0.078,0.033-0.158,0.067-0.236,0.102
		c1.979,0.649,2.827,2.851,3.372,4.668c0.563,1.879,0.787,3.834,1.276,5.729c0.03,0.117,0.268,0.024,0.293-0.054
		c1.179-3.603-0.876-7.259-0.151-10.896c-0.098,0.016-0.195,0.035-0.293,0.053c1.599,3.043,0.465,6.457,1.062,9.686
		c0.019,0.102,0.292,0.037,0.294-0.056c0.096-3.899-2.222-7.333-2.275-11.199C7.151,8.807,7.051,8.825,6.955,8.844
		c1.834,3.906,1.82,8.314,1.82,12.54c0.098-0.012,0.197-0.021,0.295-0.033c-0.007-3.772-0.309-7.98-3.351-10.636
		c-0.061-0.054-0.327-0.014-0.283,0.097c1.487,3.652,1.518,7.599,1.518,11.479c0.097-0.018,0.196-0.037,0.293-0.055
		c-0.346-3.547-1.944-6.803-2.581-10.291c-0.094,0.032-0.189,0.064-0.282,0.097c1.765,2.759,3.331,6.462,2.722,9.794
		c0.097-0.019,0.196-0.038,0.293-0.055C6.607,17.789,4.868,13.84,5.578,9.698C5.48,9.714,5.381,9.733,5.285,9.752
		c0.146,2.807-0.494,5.878-1.66,8.43c0.095-0.004,0.189-0.007,0.285-0.011c0.173-1.572,0.349-3.143,0.703-4.688
		c0.366-1.62,0.965-3.518,2.429-4.479c-0.08-0.01-0.159-0.02-0.24-0.031c-0.026,3.389-0.971,6.905-2.723,9.814
		c0.095-0.004,0.191-0.007,0.284-0.012c0.272-1.77,0.705-3.514,1.257-5.216c0.578-1.774,1.311-3.611,2.528-5.052
		C8.055,8.519,7.959,8.532,7.866,8.542c1.259,3.972-0.279,8.257-0.759,12.236c-0.017,0.128,0.27,0.065,0.294-0.034
		c1.035-4.338,1.498-8.779,2.277-13.167C9.58,7.596,9.48,7.615,9.382,7.633c1.092,4.157,0.942,8.701-0.152,12.843
		c-0.031,0.116,0.263,0.065,0.294-0.034c1.297-4.242,2.359-9.309,0.911-13.645c-0.037-0.109-0.308-0.034-0.294,0.08
		c0.479,3.766,1.419,8.067-0.446,11.609c0.095-0.004,0.189-0.008,0.284-0.014c0.019-3.893,0.732-7.826-0.153-11.675
		c-0.024-0.111-0.301-0.031-0.292,0.08c0.309,4.228-0.09,8.637-1.365,12.692c0.097-0.012,0.196-0.021,0.294-0.034
		c0.43-4.734-0.453-9.422-1.064-14.097C7.301,5.463,7.202,5.49,7.105,5.517c0.431,2.059,0.842,4.123,1.027,6.221
		c0.184,2.089,0.172,4.409-0.864,6.295c0.093-0.011,0.189-0.021,0.283-0.032c-0.274-1.98,0.007-4.018,0-6.011
		c-0.005-1.775-0.132-3.821-1.377-5.211c-0.056-0.062-0.28-0.022-0.283,0.076c-0.134,3.688,0.438,7.479-0.759,11.048
		c0.098-0.019,0.196-0.038,0.295-0.056c-0.448-3.365-0.459-6.764-0.76-10.141C4.57,7.733,4.471,7.76,4.374,7.786
		c0.329,2.958,1.413,6.406-0.143,9.187c0.094-0.013,0.189-0.021,0.284-0.034c-0.121-2.839,0.542-5.67-0.152-8.475
		C4.338,8.361,4.069,8.425,4.069,8.519c0,2.532-0.023,5.119,0.607,7.589c0.027,0.102,0.294,0.039,0.294-0.054
		c-0.016-2.983-0.847-7.229,1.918-9.321C6.809,6.731,6.729,6.728,6.651,6.724c0.903,2.34-1.284,4.856-2.572,6.614
		c-0.083,0.115,0.203,0.09,0.258,0.033c2.669-2.796,5.755-5.151,8.499-7.869c-0.085-0.012-0.17-0.021-0.256-0.034
		c-1.642,2.22-3.497,4.408-5.994,5.691c0.065,0.023,0.131,0.047,0.197,0.07c2.039-2.431,5.353-3.547,6.983-6.356
		c0.073-0.125-0.181-0.084-0.23-0.053c-2.349,1.505-3.999,4.142-6.759,4.965c0.046,0.035,0.091,0.07,0.14,0.106
		c2.653-2.268,6.228-3.527,9.616-4.188c-0.014-0.052-0.027-0.104-0.042-0.156c-2.364,0.468-4.803,0.84-7.021,1.828
		C9.382,7.417,9.339,7.531,9.474,7.53c3.425-0.017,6.808-0.593,10.209-0.909c0.148-0.013,0.238-0.181,0.038-0.171
		c-3.867,0.169-7.678,0.895-11.428,1.823C8.309,8.325,8.322,8.377,8.337,8.43c4.058-1.222,8.315-1.521,12.445-2.421
		c0.099-0.02,0.198-0.165,0.036-0.164C16.73,5.878,12.845,7.335,8.789,7.662c0,0.052,0.001,0.109,0.002,0.162
		c4.302-1.207,8.754-1.658,13.167-2.262c0.101-0.014,0.262-0.17,0.074-0.173c-4.981-0.109-9.741,1.93-14.725,1.665
		c0.001,0.051,0.003,0.101,0.003,0.152c4.159-1.645,8.744-1.375,13.017-2.559c0.093-0.026,0.199-0.164,0.035-0.167
		c-4.448-0.115-8.685,1.485-13.092,1.817c0,0.055,0.001,0.109,0.002,0.164c4.031-1.07,8.199-1.642,12.373-1.655
		c0.075-0.001,0.314-0.148,0.145-0.17c-4.366-0.583-8.715,0.575-13.087,0.298C6.689,4.99,6.679,5.045,6.667,5.1
		c3.854-0.897,7.83-0.902,11.762-1.049c0.071-0.003,0.322-0.13,0.145-0.17c-3.739-0.851-7.493-0.03-11.266-0.005
		c-0.114,0-0.309,0.174-0.112,0.174c3.496-0.005,6.999-0.131,10.475,0.304c0.037-0.058,0.075-0.118,0.112-0.175
		c-2.984-0.278-5.97-0.009-8.957,0c-0.115,0-0.31,0.175-0.111,0.175c2.418-0.006,4.863-0.152,7.252,0.298
		c0.051-0.056,0.097-0.113,0.145-0.17C12.436,4.524,9.194,6.42,5.601,6.903c0.024,0.045,0.05,0.089,0.073,0.134
		c1.086-0.64,2.266-1.144,3.463-1.539c0.632-0.207,1.283-0.363,1.943-0.44c0.223-0.025,1.986-0.045,1.688,0.456
		c-1.674,2.802-4.702,4.524-6.108,7.524c-0.059,0.127,0.174,0.091,0.23,0.053c1.255-0.878,2.405-1.908,3.393-3.079
		c0.989-1.175,1.888-2.681,1.671-4.271c-0.015-0.112-0.272-0.026-0.293,0.056c-0.905,3.52-1.217,7.196-2.581,10.592
		c0.098-0.012,0.197-0.022,0.294-0.034c1.114-3.19,2.288-6.74,1.819-10.161c-0.014-0.103-0.293-0.04-0.294,0.054
		c-0.01,2.786-0.3,5.558-0.606,8.324c-0.015,0.126,0.277,0.07,0.294-0.034c0.496-3.293,1.78-6.481,1.517-9.859
		c-0.009-0.121-0.265-0.013-0.293,0.055c-1.227,2.955-1.862,6.108-3.037,9.082c0.098-0.012,0.197-0.022,0.295-0.034
		c0.514-2.677,2.784-5.721,1.668-8.496c-0.041-0.101-0.242-0.04-0.284,0.032c-1.69,2.913-3.361,5.878-5.9,8.152
		c0.085,0.011,0.169,0.02,0.255,0.033c1.701-3.462,4.883-5.935,7.419-8.755c0.12-0.132-0.167-0.127-0.237-0.055
		C9.75,6.947,7.848,9.729,4.917,11.161c0.063,0.023,0.129,0.048,0.196,0.071c1.807-2.718,4.584-4.597,6.812-6.939
		c0.125-0.129-0.165-0.123-0.236-0.054c-2.272,2.129-4.256,4.716-7.077,6.166l0.198,0.071c1.63-2.687,4.324-4.486,6.224-6.959
		c0.084-0.113-0.184-0.089-0.23-0.055C8.287,5.267,6.506,7.887,3.974,9.665l0.229,0.054C5.6,7.893,7.367,6.373,8.604,4.424
		C8.685,4.295,8.399,4.342,8.35,4.39C7.026,5.604,6.157,7.538,4.461,8.286c0.07,0.017,0.138,0.032,0.206,0.048
		c0.769-2.283,2.752-3.519,4.922-4.305c0.06-0.023,0.125-0.091,0.057-0.14c-2.401-1.75-4.098,2.963-5.11,4.304
		c0.094-0.004,0.189-0.007,0.284-0.012c0.239-0.915,1.056-1.729,1.71-2.37c0.436-0.427,2.1-1.957,2.248-0.6
		C8.788,5.317,9.082,5.25,9.07,5.134"/>
	<path fill="#FFFFFF" d="M11.103,6.593C10.749,6.592,10.445,6.597,10.1,6.46c-0.03,0.053-0.06,0.104-0.09,0.16
		c3.908-0.957,7.997,0.575,11.915,0.765c0.086,0.004,0.313-0.141,0.142-0.179c-3.105-0.671-6.481-0.955-9.633-0.457
		c-0.07,0.011-0.27,0.14-0.105,0.177c3.298,0.754,6.696,0.611,10.051,0.761c0.121,0.007,0.312-0.159,0.109-0.184
		C18.964,7.067,15.366,7.466,11.895,6.6c-0.021,0.057-0.043,0.114-0.063,0.171c3.492-0.742,7.049,0.288,10.547,0.462
		c0.059,0.003,0.311-0.107,0.171-0.168C18.454,5.25,13.632,5.829,9.281,5.837c-0.122,0-0.309,0.185-0.109,0.185
		c3.896,0.001,7.794,0.006,11.688,0.152c0.085,0.003,0.314-0.137,0.143-0.179c-3.141-0.758-6.387-0.758-9.596-0.913
		c-0.023,0.059-0.049,0.122-0.072,0.183c3.736-0.142,7.47,0.01,11.196,0.304c0.09,0.007,0.308-0.152,0.141-0.179
		c-3.566-0.594-7.211-0.315-10.777-0.908c-0.021,0.057-0.043,0.114-0.063,0.17c3.602-0.716,7.246-0.29,10.852,0.16
		c0.036-0.06,0.073-0.123,0.109-0.184c-4.701-0.435-9.411-0.01-14.117,0C8.649,4.688,8.625,4.751,8.603,4.811
		c1.859-0.15,3.71-0.438,5.578-0.453c0.123-0.002,0.309-0.186,0.109-0.185c-2.298,0.013-4.579,0.295-6.868,0.454
		C7.437,4.681,7.451,4.735,7.465,4.79c0.663-0.266,1.326-0.547,2.048-0.585c0.114-0.007,0.252-0.183,0.071-0.183
		c-1.382,0-2.758,0.021-4.135,0.153C5.337,4.184,5.193,4.358,5.377,4.357c2.082-0.014,4.147-0.255,6.224,0
		c0.035-0.062,0.073-0.125,0.108-0.185C10.13,4.155,8.572,3.884,7.004,3.719C6.98,3.78,6.956,3.841,6.933,3.902
		c1.802-0.292,3.599-0.419,5.395-0.004c0.036-0.059,0.07-0.119,0.105-0.178c-2.881,0.271-5.77,0.02-8.653,0.15
		C3.713,3.874,3.606,3.922,3.616,4.001c0.241,2.063-0.715,4-0.608,6.053c0.005,0.112,0.255,0.034,0.285-0.03
		c0.949-2.068,1.789-4.248,1.981-6.531c0.013-0.133-0.281-0.08-0.295,0.031c-0.431,3.781-0.593,7.571-0.454,11.375
		c0.005,0.113,0.275,0.036,0.294-0.055c0.719-3.499-0.111-7.095,0.607-10.594C5.329,4.261,5.23,4.269,5.131,4.282
		c-0.316,2.923-0.884,5.857-0.453,8.799c0.018,0.124,0.27,0.027,0.294-0.054c0.81-2.523,0.806-5.758-0.619-8.065
		C4.278,5.011,4.204,5.061,4.13,5.107c2.602,0.412,5.1-0.412,7.66-0.752c0.105-0.016,0.26-0.171,0.071-0.183
		C9.668,4.039,7.486,4.608,5.409,5.241C5.315,5.269,5.21,5.42,5.377,5.416c2.403-0.041,4.66-1.023,7.019-1.363
		C12.382,4,12.368,3.946,12.353,3.892c-2.67,1.404-5.535,2.666-7.648,4.881C4.643,8.839,4.697,8.889,4.768,8.898
		C6.327,9.09,7.802,8.432,9.136,7.701c1.715-0.941,3.243-2.209,5.007-3.063c0.185-0.088,0.018-0.205-0.122-0.14
		C11.75,5.555,9.471,6.6,7.078,7.358c0.038,0.047,0.077,0.091,0.116,0.137c1.036-0.728,2.124-1.343,3.308-1.798
		c0.189-0.072,0.018-0.196-0.122-0.141C9.173,6.023,8.064,6.648,7.007,7.39C6.879,7.481,7.018,7.56,7.123,7.526
		c2.42-0.767,4.725-1.82,7.021-2.888c-0.039-0.047-0.081-0.092-0.121-0.14C11.447,5.741,9.317,7.899,6.49,8.621
		C6.083,8.725,5.664,8.76,5.245,8.75c-0.43-0.012,0.23-0.444,0.375-0.575C6.268,7.578,7,7.077,7.742,6.602
		c1.513-0.964,3.146-1.735,4.734-2.57c0.115-0.06,0.102-0.183-0.043-0.163C10.1,4.208,7.856,5.192,5.486,5.232
		C5.476,5.29,5.464,5.351,5.453,5.409c2.03-0.618,4.159-1.182,6.3-1.051c0.022-0.061,0.048-0.125,0.072-0.184
		c-2.504,0.333-4.97,1.162-7.52,0.761c-0.07-0.013-0.296,0.03-0.224,0.146c1.409,2.284,1.396,5.484,0.597,7.976
		c0.097-0.018,0.195-0.037,0.293-0.054c-0.429-2.928,0.141-5.847,0.456-8.755c0.015-0.132-0.273-0.075-0.296,0.033
		c-0.717,3.498,0.113,7.093-0.605,10.593c0.096-0.019,0.196-0.037,0.294-0.054C4.68,11.03,4.846,7.257,5.274,3.493
		c-0.097,0.01-0.195,0.021-0.295,0.031C4.788,5.79,3.958,7.955,3.016,10.007c0.095-0.01,0.189-0.019,0.284-0.03
		C3.193,7.923,4.15,5.989,3.908,3.923C3.854,3.967,3.799,4.01,3.744,4.051c2.886-0.129,5.774,0.121,8.652-0.15
		c0.075-0.007,0.266-0.142,0.105-0.178c-1.84-0.425-3.684-0.302-5.536-0.003C6.861,3.738,6.705,3.884,6.895,3.903
		C8.463,4.067,10.02,4.339,11.6,4.357c0.118,0.001,0.313-0.162,0.109-0.185c-2.079-0.255-4.141-0.013-6.224,0
		c-0.021,0.06-0.046,0.123-0.07,0.183c1.352-0.128,2.704-0.15,4.061-0.15C9.5,4.145,9.523,4.083,9.548,4.022
		C8.774,4.063,8.056,4.366,7.344,4.648C7.211,4.702,7.255,4.82,7.386,4.81c2.267-0.157,4.522-0.44,6.794-0.453
		c0.036-0.062,0.073-0.125,0.109-0.185c-1.894,0.016-3.768,0.304-5.653,0.455C8.525,4.636,8.382,4.811,8.565,4.81
		c4.706-0.009,9.417-0.435,14.116,0c0.125,0.012,0.309-0.16,0.109-0.184c-3.662-0.454-7.35-0.87-11.006-0.143
		c-0.07,0.016-0.203,0.147-0.065,0.171c3.567,0.593,7.21,0.315,10.777,0.908c0.049-0.06,0.095-0.119,0.143-0.178
		c-3.752-0.296-7.508-0.445-11.271-0.302c-0.114,0.004-0.253,0.173-0.07,0.183c3.186,0.155,6.413,0.15,9.53,0.902
		c0.049-0.059,0.094-0.121,0.143-0.178c-3.896-0.145-7.792-0.152-11.689-0.152C9.244,5.899,9.208,5.96,9.172,6.022
		c4.302-0.009,9.1-0.596,13.146,1.195c0.056-0.055,0.112-0.113,0.168-0.167c-3.558-0.177-7.148-1.2-10.701-0.446
		c-0.076,0.016-0.2,0.136-0.065,0.17c3.495,0.873,7.111,0.476,10.659,0.913c0.036-0.06,0.072-0.122,0.109-0.184
		c-3.333-0.15-6.711-0.003-9.986-0.75c-0.034,0.058-0.069,0.119-0.105,0.177c3.104-0.49,6.438-0.21,9.496,0.45
		c0.047-0.06,0.094-0.119,0.141-0.179c-3.98-0.194-8.096-1.722-12.071-0.75c-0.045,0.012-0.2,0.116-0.091,0.159
		c0.372,0.15,0.72,0.164,1.123,0.166C11.115,6.778,11.301,6.594,11.103,6.593"/>
	<path fill="#FFFFFF" d="M20.91,6.368V5.971c0-0.13-0.295-0.071-0.295,0.033c0,2.001-0.606,3.885,0,5.868
		c0.032,0.106,0.277,0.038,0.295-0.055c0.277-1.805,0.176-3.643,0.454-5.448c-0.095,0.012-0.196,0.021-0.295,0.032
		c-0.136,1.951,0.027,3.867,0.456,5.773c0.021,0.104,0.294,0.041,0.293-0.054c-0.006-2.449-0.144-4.908-0.759-7.287
		c-0.026-0.103-0.294-0.041-0.294,0.055c0.021,2.413,0.601,4.755,0.912,7.137c0.014,0.108,0.307,0.039,0.293-0.079
		c-0.298-2.453-0.264-5.147-1.681-7.285c-0.075,0.048-0.149,0.095-0.227,0.144c1.048,0.284,2.115,0.452,3.187,0.604
		c0.052-0.056,0.098-0.116,0.146-0.173c-1.627-0.018-3.234-0.286-4.825-0.6c-0.021,0.054-0.045,0.11-0.065,0.164
		c1.739-0.448,3.586-0.449,5.356-0.148c0.048-0.057,0.095-0.115,0.143-0.171h-3.641c0,0.052,0.002,0.102,0.004,0.155
		c0.882-0.41,1.79-0.558,2.735-0.285c0.01-0.051,0.021-0.1,0.028-0.151c-1.085,0.414-2.241,0.29-3.375,0.281
		c-0.038,0.058-0.073,0.118-0.111,0.176c1.522-0.009,3.033-0.11,4.521,0.299c0.022-0.054,0.048-0.109,0.066-0.164
		c-1.194,0.277-2.427,0.343-3.529,0.922c-0.151,0.08-0.06,0.182,0.082,0.146C22,5.557,23.213,5.256,24.428,4.953
		c0.181-0.046,0.133-0.195-0.045-0.161c-1.804,0.351-3.649,1.205-4.668,2.797c-0.072,0.113,0.149,0.092,0.197,0.073
		c1.516-0.639,2.715-1.779,4.13-2.591c-0.076-0.019-0.153-0.037-0.229-0.055c-0.915,1.206-1.92,2.368-2.439,3.807
		c-0.045,0.123,0.243,0.045,0.284-0.011c0.628-0.854,0.756-1.866,0.769-2.898c0.002-0.129-0.289-0.073-0.295,0.033
		c-0.129,2.599,0.282,5.17,0.607,7.741c0.015,0.109,0.305,0.038,0.293-0.08c-0.107-1.307-0.423-2.593-0.62-3.89
		c-0.201-1.342-0.448-3.016,0.31-4.236c-0.095,0.013-0.192,0.021-0.284,0.033c1.12,2.195,0.781,4.799,1.516,7.112
		c0.032,0.102,0.29,0.042,0.296-0.055c0.126-2.815-0.591-5.565-0.912-8.345c-0.097,0.025-0.198,0.053-0.295,0.078
		c0.673,2.631,1.802,5.399,1.217,8.151c0.098-0.019,0.196-0.038,0.293-0.055c-0.638-2.562-1.421-5.578-0.454-8.151
		c-0.092,0.024-0.189,0.051-0.281,0.076c1.762,2.364,0.789,5.947,0.293,8.584c0.096-0.011,0.196-0.021,0.295-0.033
		c0.441-2.653,0.167-5.347,0.304-8.019c-0.099,0.018-0.196,0.037-0.295,0.054c0.879,2.498,0.17,5.157,0.608,7.719
		c0.017,0.118,0.269,0.025,0.293-0.055c0.727-2.449,0.477-5.033-0.307-7.438c-0.02-0.064-0.119-0.052-0.166-0.041
		c-1.195,0.264-2.355,0.127-3.532-0.157C21.273,5,21.237,5.059,21.201,5.115c1.263-0.157,2.527-0.298,3.795-0.454
		c-0.014-0.052-0.027-0.103-0.041-0.155c-1.156,0.403-2.397,0.486-3.491,1.06c-0.092,0.047-0.128,0.142,0.003,0.156
		c0.656,0.064,1.3,0.033,1.954-0.02c0.383-0.031,0.77-0.069,1.153-0.098c0.205-0.014,0.413-0.023,0.619-0.032
		c-0.133,0.101-0.268,0.205-0.396,0.31c-1.066,0.844-2.064,1.837-2.651,3.074c-0.07,0.147,0.221,0.079,0.271,0.014
		c0.433-0.527,1.005-0.88,1.499-1.341c-0.089-0.003-0.174-0.008-0.267-0.013c-0.147,2.017-0.16,4.049-0.453,6.053
		c0.095-0.018,0.196-0.037,0.294-0.055c-0.584-1.175-1.415-2.254-2.798-2.444c-1.429-0.196-2.888,0.2-4.313,0.275
		c-0.013,0.058-0.023,0.117-0.036,0.176c1.604-0.146,3.207-0.293,4.819-0.302c0.118-0.001,0.31-0.178,0.111-0.178h-5.465
		c-0.014,0.055-0.021,0.112-0.033,0.169c1.733-0.596,3.573-0.596,5.387-0.597c0.118,0,0.31-0.178,0.111-0.178h-5.771
		c-0.022,0.059-0.048,0.118-0.072,0.176c1.654-0.188,3.306-0.438,4.975-0.453c0.021-0.058,0.048-0.118,0.073-0.176
		c-1.959,0.15-3.918,0.294-5.885,0.303c-0.025,0.057-0.05,0.117-0.073,0.175c0.892-0.134,1.791-0.15,2.693-0.15
		c0.038-0.058,0.075-0.118,0.111-0.178c-1.218,0.001-3.156,0-3.237,1.618c0.097-0.011,0.196-0.021,0.294-0.032
		c0.021-0.507,0.13-1.004,0.151-1.513c-0.097,0.012-0.197,0.021-0.294,0.033c0.001,0.574,0.026,1.125,0.152,1.688
		c0.023,0.108,0.28,0.036,0.293-0.055c0.202-1.411,1.439-1.677,2.682-1.559c0.024-0.059,0.052-0.118,0.073-0.176
		c-1.134,0.162-2.27,0.312-3.378,0.613c-0.102,0.027-0.193,0.155-0.033,0.167c1.471,0.132,2.933-0.134,4.402-0.151
		c0.023-0.058,0.052-0.117,0.073-0.177c-1.383,0.143-2.772,0.181-4.137,0.462c-0.102,0.019-0.195,0.169-0.034,0.167
		c1.384-0.011,2.761-0.151,4.134-0.304c0-0.056-0.002-0.112-0.002-0.167c-1.608,0.318-3.213,0.633-4.743,1.223
		c-0.132,0.052-0.092,0.169,0.041,0.155c1.555-0.17,3.094-0.575,4.668-0.454c0.013-0.056,0.022-0.112,0.033-0.168
		c-1.203,0.277-2.44,0.328-3.643,0.604c-0.103,0.024-0.19,0.157-0.034,0.168c1.524,0.125,3.032-0.133,4.555-0.152
		c0.022-0.058,0.049-0.117,0.073-0.176c-1.571,0.147-3.151,0.164-4.705,0.454c-0.094,0.019-0.266,0.176-0.073,0.176
		c1.519,0,3.038,0.011,4.553,0.152c0.038-0.059,0.075-0.119,0.111-0.177h-4.706c-0.025,0.058-0.05,0.118-0.073,0.175
		c1.655-0.141,3.298-0.13,4.939,0.149c0.049-0.057,0.095-0.116,0.145-0.173h-5.01c-0.025,0.058-0.05,0.118-0.073,0.177
		c0.625-0.061,1.168-0.411,1.748-0.627c0.032-0.013,0.105-0.059,0.086-0.106c-0.257-0.607-0.765-1.072-1.225-1.533
		c-0.062-0.063-0.199-0.023-0.254,0.03c-0.453,0.436-0.89,0.797-1.091,1.407c-0.017,0.05,0.057,0.071,0.091,0.071
		c1.786,0.017,3.556,0.296,5.279,0.751c0.073,0.019,0.341-0.09,0.204-0.158c-0.1-0.052-0.2-0.102-0.305-0.151
		c-0.086-0.043-0.228,0-0.264,0.09c-0.407,1.032-0.454,2.083-0.454,3.179c0.099-0.013,0.197-0.021,0.295-0.032
		c-0.015-1.173-0.151-2.371-0.454-3.503c-0.028-0.112-0.309-0.036-0.294,0.078c0.146,1.112,0.169,2.238,0.453,3.328
		c0.026,0.104,0.295,0.041,0.295-0.055c-0.002-0.817-0.009-1.635-0.153-2.443c-0.097,0.025-0.196,0.052-0.294,0.078
		c0.152,0.752,0.286,1.5,0.306,2.271c0.042-0.041,0.085-0.08,0.127-0.122c-1.378,0.275-2.78,0.154-4.174,0.143
		c-0.038,0.06-0.075,0.12-0.111,0.178c1.872-0.007,3.746-0.14,5.615,0c0.023-0.058,0.052-0.118,0.075-0.176
		c-1.725,0.306-3.488,0.474-5.088,1.231c-0.186,0.09-0.017,0.188,0.121,0.132c1.546-0.621,3.07-1.312,4.666-1.801
		c-0.037-0.042-0.076-0.087-0.114-0.128c-2.057,1.188-4.191,2.245-6.223,3.481c-0.163,0.097,0.058,0.151,0.152,0.116
		c2.347-0.904,4.36-2.381,6.409-3.8c-0.07-0.026-0.141-0.053-0.211-0.079c-1.74,1.866-3.818,3.361-5.768,4.995
		c0.081,0.019,0.159,0.039,0.237,0.058c1.708-1.56,3.288-3.269,5.134-4.671c-0.068-0.025-0.138-0.052-0.21-0.079
		c-1.451,1.581-3.175,2.889-4.555,4.542c-0.113,0.133,0.14,0.123,0.211,0.076c1.957-1.232,3.481-2.994,5.313-4.388
		c-0.071-0.025-0.142-0.053-0.21-0.079c-1.846,1.857-3.473,3.906-5.163,5.902c-0.112,0.133,0.141,0.126,0.212,0.08
		c2.703-1.745,4.062-4.905,6.099-7.285c-0.087-0.013-0.172-0.023-0.257-0.035c-1.544,3.046-3.469,5.882-5.008,8.929
		c-0.071,0.14,0.22,0.088,0.272,0.015c2.159-2.999,2.585-6.776,3.197-10.316c0.021-0.126-0.27-0.068-0.293,0.033
		c-0.563,2.149-0.006,4.267,0.453,6.379c0.024,0.116,0.272,0.027,0.294-0.056c0.722-2.503-0.142-5.01-0.76-7.438
		c-0.097,0.025-0.196,0.053-0.293,0.079c1.24,3.019,1.521,6.489,0.758,9.663c0.097-0.013,0.198-0.02,0.295-0.031
		c0.437-2.913,0.162-5.851,0.151-8.778c-0.093,0.025-0.189,0.051-0.28,0.075c2.58,2.526,1.527,7.081,1.202,10.249
		c-0.016,0.13,0.271,0.067,0.295-0.033c0.927-3.945,1.076-8.166,0.151-12.128c-0.027-0.116-0.298-0.033-0.295,0.079
		c0.171,3.965,0.716,7.921,1.52,11.804c0.022,0.119,0.27,0.023,0.293-0.055c1.181-3.797,0.94-7.855,0-11.676
		c-0.027-0.111-0.313-0.036-0.293,0.078c0.739,4.05,0.923,8.158,1.215,12.26c0.008,0.116,0.271,0.02,0.293-0.055
		c1.401-4.347,0.504-9.184-0.605-13.494c-0.029-0.113-0.307-0.034-0.294,0.079c0.456,4.896,0.743,9.82,1.518,14.68
		c0.019,0.115,0.247,0.021,0.284-0.033c1.188-1.845,1.294-4.371,1.248-6.491c-0.049-2.221-0.352-4.977-1.857-6.74
		c-0.062-0.075-0.263-0.017-0.281,0.076c-0.579,2.592-0.334,5.28-0.911,7.868c0.097-0.019,0.196-0.038,0.294-0.054
		c-0.389-4.172-5.094-1.222-6.794,0.311c-0.131,0.121,0.149,0.114,0.211,0.078c1.732-0.953,3.396-2.048,4.886-3.351
		c0.086-0.073-0.03-0.127-0.101-0.116c-2.245,0.407-3.978,2.086-5.878,3.217c0.061,0.03,0.124,0.062,0.186,0.096
		c1.49-0.903,2.875-1.96,4.249-3.026c0.15-0.116-0.054-0.155-0.151-0.118c-1.946,0.735-3.975,1.234-5.921,1.969
		c-0.162,0.06-0.054,0.188,0.082,0.146c1.974-0.602,3.968-1.177,6.031-1.355c0.107-0.012,0.258-0.163,0.073-0.176
		c-1.681-0.13-3.336,0.294-4.935,0.767c-0.177,0.052-0.134,0.196,0.043,0.159c2.142-0.438,4.251-1.168,6.449-1.2
		c0.015-0.056,0.024-0.113,0.034-0.168c-2.633,0.818-5.368,1.617-7.66,3.209c-0.078,0.054-0.063,0.136,0.038,0.138
		c3.167,0.099,5.813-1.991,8.729-2.886c-0.027-0.048-0.055-0.097-0.082-0.146c-2.644,1.238-5.311,2.427-7.895,3.783
		c-0.183,0.097-0.017,0.184,0.121,0.134c2.156-0.801,3.973-2.255,6.071-3.179c-0.059-0.033-0.121-0.064-0.178-0.095
		c-1.582,1.381-3.566,2.237-5.009,3.782c-0.111,0.12,0.109,0.124,0.178,0.095c2.015-0.813,3.604-2.367,5.615-3.179
		c-0.058-0.032-0.118-0.064-0.177-0.095c-1.744,1.688-4.058,2.566-6.047,3.913c-0.157,0.105,0.055,0.154,0.151,0.117
		c2.438-0.947,4.394-2.697,6.561-4.104c0.164-0.109-0.088-0.163-0.187-0.097c-2.137,1.379-4.154,2.924-6.097,4.56
		c-0.129,0.107,0.12,0.117,0.179,0.095c2.766-0.967,4.658-3.26,6.887-5.033c-0.078-0.018-0.158-0.04-0.236-0.056
		c-2.09,1.754-4.374,3.342-5.939,5.62c-0.075,0.107,0.151,0.096,0.198,0.073c2.259-1.18,3.627-3.416,5.371-5.183
		c-0.087-0.012-0.169-0.023-0.255-0.034c-1.638,2.199-3.634,4.122-5.009,6.507c-0.081,0.14,0.205,0.074,0.256,0.035
		c2.074-1.638,3.323-4.042,4.725-6.229c-0.093,0.005-0.19,0.009-0.285,0.012c-0.68,2.114-1.913,3.994-2.731,6.052
		c0.096-0.012,0.196-0.021,0.293-0.032c0.472-2.076,0.726-4.243,1.66-6.183c-0.095,0.013-0.191,0.021-0.284,0.034
		c0.355,2.216,0.282,4.471,0.781,6.668c0.023,0.105,0.288,0.039,0.293-0.055c0.162-2.644,0.763-5.142-0.02-7.751
		c-0.032-0.111-0.322-0.034-0.294,0.078c0.609,2.347,0.893,4.75,1.389,7.121c0.025,0.119,0.271,0.029,0.295-0.054
		c0.94-3.346,0.286-6.632,0.129-10.021c-0.099,0.025-0.199,0.052-0.295,0.078c0.899,3.178,1.503,6.422,1.975,9.686
		c0.019,0.121,0.266,0.019,0.293-0.055c0.638-1.82,0.142-3.71-0.415-5.484c-0.564-1.8-1.449-3.799-0.953-5.714
		c-0.092,0.024-0.189,0.051-0.281,0.076c1.348,1.41,1.401,3.526,1.435,5.363c0.029,1.764-0.141,3.687,0.527,5.36
		c0.043,0.104,0.272,0.039,0.295-0.054c0.781-3.879,0.492-8.17-1.066-11.828c-0.046-0.11-0.296-0.035-0.293,0.079
		c0.155,3.99,0.276,8.013-0.606,11.935c-0.024,0.119,0.271,0.074,0.297-0.033c0.885-3.937,0.76-7.975,0.603-11.979
		c-0.096,0.026-0.194,0.053-0.293,0.079c1.556,3.65,1.843,7.913,1.064,11.784c0.096-0.019,0.197-0.038,0.295-0.056
		c-0.695-1.732-0.493-3.717-0.532-5.541c-0.037-1.802-0.134-3.842-1.453-5.223c-0.068-0.07-0.257-0.018-0.282,0.077
		c-0.448,1.724,0.229,3.516,0.756,5.144c0.63,1.942,1.319,4.039,0.611,6.053c0.095-0.019,0.194-0.036,0.293-0.054
		c-0.472-3.265-1.072-6.512-1.973-9.686c-0.034-0.115-0.302-0.033-0.295,0.077c0.157,3.374,0.806,6.651-0.129,9.976
		c0.099-0.019,0.197-0.037,0.293-0.054c-0.493-2.373-0.777-4.776-1.388-7.123c-0.098,0.025-0.198,0.054-0.294,0.078
		c0.781,2.592,0.179,5.081,0.021,7.705c0.097-0.018,0.197-0.037,0.293-0.054c-0.497-2.197-0.423-4.451-0.78-6.669
		c-0.019-0.107-0.252-0.032-0.282,0.032c-0.944,1.955-1.205,4.134-1.68,6.23c-0.031,0.126,0.257,0.055,0.293-0.033
		c0.817-2.059,2.051-3.94,2.733-6.052c0.037-0.123-0.243-0.055-0.286,0.01c-1.39,2.168-2.628,4.557-4.688,6.183
		c0.09,0.013,0.172,0.022,0.258,0.036c1.376-2.386,3.372-4.309,5.009-6.508c0.089-0.116-0.199-0.092-0.256-0.036
		c-1.703,1.726-3.05,3.955-5.252,5.107c0.062,0.023,0.129,0.048,0.198,0.073c1.553-2.264,3.824-3.835,5.904-5.577
		c0.132-0.112-0.165-0.119-0.238-0.058c-2.194,1.742-4.053,4.007-6.772,4.957c0.058,0.033,0.119,0.065,0.177,0.095
		c1.93-1.62,3.928-3.151,6.049-4.52c-0.063-0.032-0.125-0.065-0.186-0.098c-2.146,1.395-4.083,3.132-6.495,4.069
		c0.052,0.039,0.103,0.076,0.153,0.116c2.007-1.362,4.337-2.252,6.098-3.955c0.118-0.114-0.114-0.123-0.179-0.094
		c-2.013,0.811-3.604,2.367-5.615,3.179c0.06,0.031,0.12,0.063,0.179,0.095c1.442-1.544,3.43-2.403,5.008-3.785
		c0.125-0.105-0.114-0.123-0.178-0.094c-2.096,0.925-3.915,2.379-6.072,3.18c0.04,0.045,0.08,0.089,0.122,0.133
		c2.583-1.358,5.25-2.547,7.892-3.783c0.155-0.074,0.057-0.19-0.08-0.147c-2.626,0.804-4.949,2.508-7.719,2.842
		c-0.222,0.026-0.929,0.229-0.438-0.097c0.265-0.175,0.54-0.332,0.819-0.487c0.708-0.396,1.46-0.717,2.212-1.017
		c1.34-0.537,2.728-0.956,4.103-1.383c0.092-0.029,0.201-0.173,0.034-0.171c-2.259,0.034-4.411,0.771-6.604,1.221
		c0.015,0.054,0.028,0.105,0.042,0.159c1.549-0.456,3.153-0.876,4.782-0.745c0.022-0.059,0.049-0.119,0.073-0.177
		c-2.09,0.182-4.113,0.759-6.113,1.37c0.026,0.048,0.054,0.095,0.082,0.146c1.947-0.734,3.973-1.234,5.922-1.97
		c-0.054-0.038-0.103-0.078-0.153-0.115c-1.376,1.068-2.759,2.124-4.251,3.028c-0.169,0.103,0.087,0.16,0.186,0.097
		c1.819-1.081,3.513-2.75,5.657-3.142c-0.033-0.038-0.067-0.076-0.102-0.115c-1.473,1.288-3.115,2.366-4.83,3.309
		c0.069,0.023,0.142,0.053,0.211,0.079c0.982-0.89,2.117-1.663,3.36-2.136c0.649-0.246,1.407-0.382,2.042-0.032
		c0.645,0.356,0.799,1.217,0.86,1.875c0.011,0.112,0.271,0.029,0.295-0.056c0.577-2.591,0.332-5.278,0.911-7.868
		c-0.096,0.025-0.189,0.052-0.284,0.076c1.422,1.666,1.717,4.216,1.822,6.315c0.109,2.182,0.009,4.888-1.216,6.785
		c0.093-0.011,0.188-0.02,0.282-0.032c-0.777-4.86-1.062-9.783-1.516-14.681c-0.099,0.026-0.197,0.054-0.295,0.079
		c1.108,4.3,2.007,9.11,0.606,13.447c0.097-0.018,0.197-0.037,0.293-0.054c-0.291-4.098-0.476-8.21-1.215-12.261
		c-0.097,0.025-0.197,0.053-0.293,0.08c0.936,3.806,1.178,7.847-0.002,11.629c0.098-0.018,0.198-0.038,0.295-0.055
		c-0.805-3.884-1.35-7.839-1.518-11.804c-0.097,0.025-0.196,0.053-0.295,0.079c0.926,3.95,0.775,8.148-0.151,12.085
		c0.098-0.014,0.198-0.022,0.294-0.034c0.327-3.188,1.377-7.788-1.226-10.334c-0.056-0.056-0.28-0.027-0.28,0.076
		c0.01,2.926,0.282,5.868-0.153,8.776c-0.019,0.128,0.271,0.068,0.294-0.033c0.767-3.183,0.487-6.681-0.758-9.708
		c-0.044-0.105-0.321-0.033-0.294,0.078c0.613,2.415,1.476,4.906,0.758,7.395c0.096-0.02,0.197-0.038,0.294-0.055
		c-0.454-2.095-1.01-4.198-0.454-6.335c-0.098,0.012-0.196,0.022-0.293,0.033c-0.61,3.521-1.029,7.285-3.18,10.268
		c0.091,0.004,0.184,0.011,0.273,0.016c1.544-3.047,3.468-5.883,5.008-8.93c0.068-0.132-0.203-0.095-0.256-0.036
		c-2.016,2.357-3.373,5.517-6.047,7.245c0.071,0.026,0.141,0.052,0.211,0.079c1.69-1.995,3.315-4.047,5.162-5.903
		c0.121-0.122-0.142-0.131-0.212-0.079c-1.832,1.395-3.356,3.155-5.312,4.389c0.07,0.025,0.141,0.054,0.211,0.079
		c1.381-1.649,3.103-2.96,4.554-4.542c0.115-0.125-0.142-0.13-0.211-0.078c-1.867,1.417-3.461,3.137-5.187,4.712
		c-0.131,0.119,0.163,0.121,0.237,0.056c1.949-1.634,4.026-3.13,5.768-4.996c0.119-0.127-0.142-0.127-0.21-0.078
		c-2.031,1.406-4.018,2.871-6.343,3.766c0.051,0.039,0.101,0.077,0.153,0.116c2.032-1.236,4.163-2.292,6.224-3.48
		c0.138-0.082-0.017-0.161-0.114-0.129c-1.623,0.499-3.171,1.197-4.745,1.83c0.04,0.045,0.08,0.089,0.121,0.132
		c1.549-0.735,3.261-0.894,4.93-1.188c0.099-0.019,0.266-0.165,0.073-0.176c-1.87-0.139-3.742-0.009-5.614,0
		c-0.117,0-0.311,0.176-0.111,0.176c1.451,0.011,2.895,0.128,4.326-0.161c0.058-0.012,0.127-0.054,0.126-0.119
		c-0.019-0.77-0.153-1.517-0.306-2.271c-0.02-0.11-0.312-0.037-0.293,0.078c0.142,0.794,0.152,1.594,0.152,2.399
		c0.099-0.02,0.197-0.038,0.293-0.057c-0.285-1.089-0.309-2.215-0.453-3.327c-0.098,0.025-0.198,0.053-0.293,0.078
		c0.301,1.116,0.442,2.303,0.453,3.458c0.001,0.129,0.294,0.071,0.294-0.032c0.002-1.096,0.05-2.147,0.455-3.18
		c-0.089,0.029-0.176,0.06-0.263,0.091c0.101,0.051,0.2,0.101,0.304,0.151c0.068-0.053,0.136-0.105,0.202-0.158
		c-1.012-0.271-2.039-0.468-3.077-0.606c-0.593-0.079-1.186-0.124-1.781-0.146c-0.772-0.032,0.411-1.032,0.64-1.253
		c-0.084,0.01-0.169,0.02-0.255,0.029c0.378,0.378,0.749,0.753,1.053,1.192c0.226,0.325-0.08,0.322-0.296,0.42
		c-0.341,0.155-0.679,0.323-1.058,0.359c-0.107,0.012-0.257,0.176-0.073,0.176h5.009c0.077,0,0.315-0.143,0.144-0.172
		c-1.688-0.288-3.378-0.301-5.079-0.156c-0.107,0.01-0.257,0.176-0.073,0.176h4.706c0.112,0,0.312-0.159,0.11-0.177
		c-1.514-0.142-3.034-0.152-4.555-0.153c-0.023,0.059-0.049,0.119-0.073,0.176c1.554-0.291,3.136-0.307,4.706-0.455
		c0.106-0.011,0.255-0.179,0.073-0.175c-1.521,0.018-3.034,0.274-4.555,0.151c-0.012,0.056-0.021,0.113-0.034,0.168
		c1.203-0.277,2.441-0.328,3.644-0.604c0.104-0.024,0.191-0.158,0.033-0.169c-1.601-0.125-3.16,0.283-4.742,0.455
		c0.015,0.051,0.029,0.102,0.042,0.155c1.507-0.582,3.088-0.885,4.669-1.198c0.142-0.028,0.164-0.187-0.003-0.167
		c-1.353,0.149-2.703,0.291-4.062,0.302c-0.012,0.055-0.023,0.112-0.034,0.168c1.339-0.276,2.702-0.307,4.057-0.447
		c0.107-0.012,0.26-0.179,0.075-0.176c-1.47,0.018-2.934,0.283-4.402,0.152c-0.011,0.056-0.021,0.112-0.033,0.168
		c1.082-0.293,2.191-0.441,3.3-0.599c0.103-0.015,0.263-0.159,0.073-0.175c-1.38-0.131-2.859,0.194-3.087,1.77
		c0.097-0.018,0.197-0.037,0.295-0.055c-0.124-0.549-0.152-1.081-0.152-1.643c0-0.13-0.29-0.072-0.294,0.033
		c-0.022,0.504-0.133,1.001-0.155,1.508c-0.007,0.13,0.288,0.073,0.293-0.032c0.074-1.447,1.739-1.406,2.833-1.407
		c0.117,0,0.31-0.177,0.11-0.177c-0.926,0.001-1.848,0.015-2.768,0.152c-0.1,0.015-0.263,0.177-0.073,0.176
		c1.991-0.007,3.972-0.152,5.958-0.304c0.109-0.009,0.258-0.178,0.075-0.176c-1.694,0.015-3.367,0.265-5.047,0.454
		c-0.105,0.012-0.259,0.176-0.075,0.176h5.769c0.037-0.059,0.074-0.118,0.11-0.177c-1.865,0-3.759,0.003-5.541,0.614
		c-0.087,0.03-0.202,0.168-0.033,0.168h5.465c0.038-0.059,0.075-0.12,0.111-0.177c-1.637,0.008-3.266,0.156-4.895,0.304
		c-0.148,0.015-0.237,0.186-0.036,0.175c1.267-0.07,2.532-0.363,3.803-0.318c1.511,0.054,2.422,1.122,3.051,2.389
		c0.048,0.095,0.277,0.048,0.295-0.055c0.294-2.006,0.307-4.036,0.454-6.053c0.011-0.127-0.218-0.058-0.267-0.013
		c-0.511,0.477-1.09,0.842-1.537,1.385c0.092,0.004,0.186,0.009,0.272,0.014c0.68-1.43,1.901-2.499,3.145-3.438
		c0.069-0.053,0.069-0.139-0.037-0.137c-1.318,0.018-2.635,0.28-3.948,0.151c0.001,0.053,0.003,0.104,0.005,0.156
		c1.088-0.572,2.342-0.657,3.491-1.059c0.133-0.047,0.092-0.171-0.042-0.155c-1.264,0.157-2.529,0.299-3.795,0.455
		c-0.07,0.008-0.268,0.133-0.105,0.171c1.252,0.299,2.483,0.427,3.752,0.146c-0.055-0.014-0.112-0.027-0.167-0.04
		c0.779,2.39,1.027,4.958,0.306,7.393c0.097-0.019,0.194-0.037,0.293-0.054C24.878,10,25.587,7.345,24.708,4.844
		c-0.034-0.1-0.288-0.043-0.293,0.055c-0.133,2.672,0.138,5.368-0.305,8.021c-0.02,0.125,0.272,0.073,0.296-0.033
		c0.501-2.664,1.467-6.275-0.317-8.667c-0.062-0.087-0.252-0.005-0.279,0.075c-0.97,2.583-0.187,5.626,0.453,8.194
		c0.028,0.111,0.273,0.033,0.295-0.055c0.592-2.767-0.54-5.55-1.215-8.195c-0.028-0.111-0.31-0.035-0.295,0.08
		c0.32,2.765,1.036,5.5,0.909,8.301c0.098-0.018,0.198-0.037,0.295-0.055c-0.734-2.312-0.396-4.918-1.517-7.112
		c-0.052-0.098-0.236-0.044-0.284,0.032c-0.672,1.088-0.547,2.494-0.409,3.709c0.17,1.511,0.578,2.993,0.703,4.509
		c0.098-0.026,0.197-0.053,0.293-0.079c-0.324-2.556-0.737-5.111-0.604-7.695c-0.099,0.011-0.198,0.021-0.296,0.033
		c-0.014,1.013-0.13,2.013-0.748,2.853c0.094-0.003,0.19-0.006,0.284-0.01c0.513-1.422,1.516-2.571,2.416-3.76
		c0.091-0.121-0.188-0.081-0.229-0.056c-1.396,0.798-2.573,1.925-4.066,2.556c0.066,0.023,0.132,0.049,0.198,0.073
		c0.97-1.518,2.716-2.315,4.44-2.651c-0.019-0.054-0.029-0.106-0.045-0.161c-1.215,0.304-2.429,0.605-3.644,0.908
		c0.027,0.05,0.054,0.098,0.081,0.146c1.075-0.563,2.289-0.624,3.454-0.894c0.073-0.019,0.199-0.127,0.065-0.164
		c-1.509-0.415-3.038-0.316-4.587-0.308c-0.116,0-0.31,0.174-0.11,0.176c1.225,0.012,2.438,0.122,3.605-0.323
		c0.073-0.027,0.135-0.123,0.028-0.152c-1.038-0.299-2.063-0.128-3.032,0.32c-0.089,0.04-0.129,0.155,0.004,0.155h3.644
		c0.077,0,0.316-0.142,0.145-0.171c-1.841-0.315-3.76-0.311-5.577,0.155c-0.062,0.017-0.203,0.137-0.064,0.164
		c1.612,0.316,3.244,0.593,4.889,0.608c0.078,0.001,0.312-0.148,0.143-0.171c-1.071-0.155-2.14-0.32-3.187-0.606
		c-0.064-0.018-0.295,0.039-0.225,0.144c1.406,2.119,1.364,4.812,1.658,7.244c0.1-0.025,0.196-0.052,0.293-0.078
		c-0.308-2.365-0.887-4.695-0.909-7.09c-0.099,0.019-0.196,0.037-0.295,0.055c0.613,2.366,0.753,4.811,0.76,7.244
		c0.096-0.019,0.196-0.037,0.293-0.056c-0.426-1.892-0.591-3.792-0.455-5.728c0.011-0.128-0.275-0.071-0.294,0.033
		c-0.278,1.806-0.178,3.643-0.453,5.448c0.095-0.019,0.195-0.037,0.293-0.055c-0.604-1.972,0.002-3.839,0.002-5.824
		c0-0.13-0.295-0.07-0.295,0.033v0.395C20.615,6.532,20.91,6.471,20.91,6.368"/>
	<path fill="#FFFFFF" d="M18.752,11.606c-0.168-0.076-0.16-0.338-0.4-0.348c-0.305-0.016-0.531,0.203-0.744,0.395
		c-0.128,0.114,0.142,0.126,0.211,0.078c0.6-0.417,1.27-0.631,1.942-0.89c-0.052-0.04-0.103-0.078-0.153-0.117
		c-0.537,0.363-1.062,0.739-1.637,1.042c-0.179,0.093-0.018,0.201,0.119,0.133c0.868-0.439,1.713-0.924,2.582-1.362
		c0.181-0.091,0.017-0.194-0.121-0.132c-0.802,0.357-1.415,0.938-2.032,1.55c-0.124,0.123,0.142,0.125,0.212,0.079
		c0.872-0.589,1.708-1.227,2.58-1.816c-0.07-0.025-0.142-0.052-0.211-0.078c-0.698,0.684-1.457,1.314-1.991,2.141
		c-0.08,0.123,0.182,0.089,0.229,0.055c0.936-0.641,1.725-1.428,2.455-2.291c0.117-0.138-0.167-0.128-0.239-0.057
		c-0.962,0.963-1.931,1.944-2.453,3.223c-0.045,0.109,0.203,0.055,0.237,0.033c1.337-0.922,2.369-2.162,3.233-3.524
		c0.078-0.123-0.183-0.09-0.23-0.055c-1.493,1.045-2.546,2.741-3.091,4.455c-0.038,0.119,0.227,0.054,0.266,0.013
		c1.619-1.763,3.515-3.434,4.573-5.622c0.061-0.127-0.176-0.094-0.23-0.054c-2.897,2.097-4.75,5.725-5.977,8.996
		c-0.043,0.115,0.229,0.054,0.268,0.012c2.321-2.487,4.349-5.223,6.24-8.045c0.082-0.12-0.2-0.095-0.257-0.035
		c-2.534,2.874-4.463,6.205-6.546,9.405c-0.085,0.131,0.208,0.075,0.258,0.035c2.725-2.234,5.159-5.171,6.698-8.345
		c0.065-0.136-0.201-0.091-0.255-0.035c-2.674,2.837-5.109,5.978-6.701,9.558c-0.06,0.14,0.203,0.09,0.258,0.035
		c2.642-2.646,5.077-5.499,7.305-8.499c0.085-0.112-0.2-0.097-0.257-0.035c-2.444,2.74-4.978,5.424-7.001,8.499
		c-0.085,0.127,0.219,0.083,0.274,0.014c2.002-2.442,4.234-4.693,6.072-7.266c0.085-0.117-0.201-0.093-0.257-0.035
		c-2.476,2.634-4.717,5.474-6.697,8.498c-0.082,0.124,0.201,0.088,0.257,0.035c2.312-2.345,3.813-5.411,6.501-7.395
		c-0.078-0.019-0.154-0.037-0.231-0.055c-1.43,3.058-4.319,5.074-5.92,8.021c-0.075,0.14,0.203,0.077,0.257,0.035
		c2.47-2.023,4.523-4.51,6.088-7.285c0.075-0.133-0.201-0.089-0.257-0.036c-2.214,2.234-4.053,4.913-5.034,7.916
		c-0.037,0.11,0.247,0.07,0.283-0.012c1.2-2.679,2.569-5.278,3.945-7.868c-0.091-0.004-0.183-0.01-0.273-0.014
		c-1.186,2.271-1.514,4.928-1.832,7.437c-0.018,0.139,0.258,0.054,0.293-0.032c1.757-4.21,2.271-8.963,2.127-13.492
		c-0.007-0.11-0.254-0.025-0.284,0.032c-1.617,3.014-1.276,6.926-0.769,10.184c0.017,0.106,0.29,0.041,0.293-0.054
		c0.146-3.856-0.282-7.723-0.911-11.524c-0.018-0.109-0.28-0.036-0.293,0.055c-0.298,2.14-0.663,4.269-0.784,6.428
		c-0.114,2.005-0.085,4.237,0.946,6.024c0.043,0.073,0.215,0.016,0.256-0.03c1.356-1.508,1.492-3.84,1.589-5.759
		c0.119-2.331-0.091-4.673,0.109-6.999c0.012-0.14-0.262-0.055-0.296,0.033c-1.472,3.788-0.926,7.844-0.911,11.805
		c0.002,0.128,0.295,0.071,0.295-0.033c-0.005-2.141-0.114-4.277,0.002-6.418c0.108-1.981,0.248-4.891,1.944-6.25
		c-0.089,0.005-0.177,0.007-0.266,0.011c0.562,3.402-1.043,6.744-0.454,10.14c0.018,0.11,0.305,0.037,0.294-0.078
		c-0.318-3.349-1.047-6.641-1.365-9.989c-0.099,0.025-0.196,0.053-0.293,0.079c1.604,3.636,1.232,7.94,0.758,11.782
		c0.097-0.011,0.195-0.021,0.295-0.032c0.01-1.996,0.355-4.391-0.924-6.096c-0.055-0.077-0.201-0.016-0.255,0.028
		c-1.911,1.532-1.395,4.407-1.696,6.553c0.097-0.019,0.195-0.039,0.293-0.054c-0.312-2.025-0.608-4.055-1.062-6.054
		c-0.027-0.113-0.308-0.035-0.293,0.078c0.163,1.872,0.729,3.693,0.755,5.578c0.098-0.018,0.199-0.037,0.294-0.055
		c-0.17-1.888-0.593-3.735-0.909-5.6c-0.019-0.111-0.306-0.037-0.296,0.078c0.151,1.726,0.173,3.462,0.608,5.146
		c0.026,0.107,0.246,0.032,0.284-0.034c1.29-2.344,1.361-5.144,1.678-7.74c0.019-0.133-0.263-0.061-0.293,0.033
		c-1.081,3.377-0.472,7.001-0.304,10.465c0.005,0.108,0.254,0.026,0.282-0.032c1.082-2.124,0.767-4.584,0.464-6.856
		c-0.014-0.104-0.286-0.038-0.293,0.056c-0.137,1.793-0.361,3.58-0.424,5.376c-0.065,1.828,0.153,3.63,0.6,5.401
		c0.026,0.11,0.243,0.023,0.282-0.034c1.49-2.216,2.045-4.871,3.471-7.121c-0.093,0.002-0.189,0.006-0.284,0.011
		c-0.829,2.612-1.61,5.126-1.494,7.9c0.004,0.111,0.252,0.024,0.282-0.03c1.237-2.223,1.925-4.47,1.509-7.019
		c-0.019-0.106-0.288-0.04-0.297,0.056c-0.131,2.042-0.536,4.029-0.431,6.086c0.007,0.12,0.27,0.021,0.295-0.054
		c0.384-1.144,2.049-2.379,1.342-3.665c-0.056-0.102-0.229-0.036-0.284,0.033c-1.357,1.636-2.22,3.178-1.959,5.353
		c0.012,0.107,0.281,0.036,0.295-0.055c0.545-4.27-6.896-1.544-8.709-0.654c-0.092,0.046-0.124,0.142,0.005,0.155
		c2.964,0.314,6.597-0.306,9.08-2.017c0.078-0.054,0.065-0.132-0.035-0.136c-2.925-0.124-5.944,0.962-8.324,2.622
		c0.063,0.032,0.126,0.065,0.186,0.098c1.847-1.357,4.625-2.457,5.193-4.919c0.024-0.101-0.163-0.071-0.206-0.052
		c-2.12,1.021-3.677,2.859-5.649,4.104c-0.106,0.065-0.029,0.154,0.074,0.135c2.286-0.4,4.529-0.702,6.756,0.148
		c0.08,0.03,0.362-0.05,0.231-0.148c-1.281-0.965-2.646-1.822-4.233-2.16c-1.591-0.338-3.192,0.082-4.615,0.795
		c-0.048,0.023-0.111,0.066-0.075,0.127c0.334,0.564,0.81,0.64,1.416,0.782c0.099,0.022,0.346-0.128,0.177-0.167
		c-0.39-0.091-0.781-0.142-1.097-0.41c-0.408-0.346,0.503-0.567,0.721-0.652c0.98-0.382,2.047-0.488,3.084-0.344
		c1.643,0.231,3.101,1.201,4.394,2.176c0.077-0.051,0.154-0.097,0.232-0.147c-2.296-0.878-4.587-0.59-6.951-0.173
		c0.023,0.045,0.052,0.091,0.073,0.133c1.952-1.228,3.492-3.061,5.583-4.066c-0.068-0.018-0.137-0.033-0.206-0.052
		c-0.554,2.395-3.282,3.463-5.084,4.787c-0.162,0.118,0.089,0.166,0.187,0.098c1.265-0.886,2.669-1.538,4.139-1.996
		c0.757-0.236,1.538-0.396,2.322-0.494c0.37-0.046,0.745-0.061,1.117-0.064c0.525-0.005,0.024,0.128-0.203,0.259
		c-2.331,1.341-5.519,1.836-8.171,1.554c0,0.053,0.004,0.104,0.006,0.155c1.747-0.856,8.811-3.479,8.293,0.558
		c0.099-0.019,0.197-0.038,0.294-0.056c-0.255-2.143,0.611-3.657,1.942-5.26c-0.093,0.012-0.189,0.021-0.283,0.031
		c0.675,1.232-0.962,2.497-1.344,3.619c0.097-0.019,0.196-0.037,0.293-0.057c-0.104-2.04,0.304-4.012,0.435-6.039
		c-0.099,0.019-0.198,0.037-0.297,0.055c0.418,2.525-0.261,4.723-1.483,6.923c0.094-0.011,0.19-0.021,0.283-0.032
		c-0.114-2.758,0.672-5.258,1.497-7.856c0.037-0.122-0.245-0.055-0.284,0.01c-1.43,2.252-1.979,4.907-3.47,7.123
		c0.095-0.011,0.188-0.02,0.284-0.032c-0.446-1.762-0.647-3.536-0.6-5.355c0.046-1.798,0.286-3.585,0.424-5.377
		c-0.097,0.018-0.196,0.037-0.295,0.055c0.299,2.237,0.622,4.67-0.446,6.766c0.095-0.013,0.188-0.022,0.283-0.033
		c-0.168-3.452-0.773-7.055,0.304-10.42c-0.096,0.012-0.194,0.021-0.293,0.033c-0.315,2.574-0.38,5.369-1.659,7.695
		c0.095-0.011,0.192-0.021,0.283-0.031c-0.436-1.687-0.455-3.424-0.605-5.147c-0.097,0.026-0.196,0.054-0.295,0.078
		c0.318,1.866,0.741,3.714,0.912,5.602c0.012,0.1,0.298,0.04,0.296-0.056c-0.03-1.9-0.597-3.736-0.76-5.622
		c-0.099,0.026-0.197,0.053-0.293,0.078c0.453,2,0.747,4.028,1.062,6.053c0.017,0.109,0.279,0.036,0.295-0.054
		c0.296-2.095-0.227-4.966,1.64-6.462c-0.085,0.007-0.17,0.018-0.256,0.026c1.259,1.681,0.91,4.051,0.899,6.013
		c0,0.131,0.281,0.073,0.295-0.032c0.477-3.848,0.85-8.183-0.76-11.827c-0.048-0.107-0.305-0.039-0.293,0.079
		c0.318,3.348,1.048,6.64,1.366,9.988c0.097-0.025,0.196-0.054,0.293-0.08c-0.588-3.393,1.019-6.736,0.454-10.139
		c-0.019-0.109-0.224-0.023-0.266,0.011c-1.612,1.29-1.814,3.896-1.965,5.783c-0.184,2.325-0.044,4.65-0.039,6.976
		c0.097-0.015,0.198-0.021,0.295-0.033c-0.016-3.961-0.561-8.017,0.911-11.804c-0.097,0.011-0.198,0.021-0.295,0.032
		c-0.18,2.123-0.023,4.267-0.085,6.393c-0.056,2.028-0.118,4.671-1.557,6.271c0.087-0.009,0.168-0.018,0.255-0.026
		c-1.054-1.83-1.03-4.123-0.913-6.159c0.122-2.085,0.486-4.144,0.771-6.208c-0.096,0.013-0.195,0.032-0.293,0.051
		c0.628,3.786,1.057,7.638,0.91,11.479c0.097-0.019,0.196-0.037,0.295-0.055c-0.5-3.224-0.854-7.108,0.747-10.094
		c-0.093,0.011-0.188,0.021-0.282,0.032c0.146,4.511-0.379,9.252-2.126,13.446c0.097-0.013,0.197-0.02,0.293-0.033
		c0.315-2.489,0.637-5.138,1.812-7.393c0.067-0.131-0.227-0.104-0.272-0.014c-1.378,2.595-2.745,5.191-3.947,7.867
		c0.093-0.003,0.19-0.007,0.283-0.008c0.969-2.968,2.795-5.619,4.982-7.827c-0.087-0.012-0.17-0.022-0.258-0.035
		c-1.556,2.761-3.597,5.229-6.051,7.243c0.088,0.013,0.171,0.022,0.256,0.035c1.602-2.946,4.491-4.962,5.92-8.021
		c0.06-0.127-0.174-0.096-0.229-0.055c-2.712,2.002-4.224,5.07-6.557,7.435c0.088,0.014,0.17,0.023,0.256,0.035
		c1.972-3.003,4.198-5.832,6.663-8.451c-0.087-0.013-0.17-0.022-0.258-0.036c-1.837,2.571-4.07,4.822-6.072,7.265
		c0.092,0.003,0.185,0.009,0.274,0.015c2.016-3.06,4.532-5.729,6.963-8.453c-0.087-0.012-0.17-0.022-0.255-0.036
		c-2.216,2.987-4.639,5.821-7.269,8.453c0.086,0.013,0.169,0.023,0.256,0.036c1.58-3.562,4.001-6.689,6.661-9.513
		c-0.085-0.013-0.17-0.022-0.255-0.036c-1.533,3.165-3.943,6.073-6.662,8.302c0.086,0.014,0.169,0.022,0.256,0.036
		c2.071-3.182,3.987-6.502,6.51-9.36c-0.085-0.013-0.17-0.023-0.256-0.036c-1.882,2.805-3.896,5.527-6.204,7.998
		c0.088,0.005,0.177,0.01,0.266,0.015c1.197-3.202,3.03-6.811,5.868-8.864c-0.078-0.018-0.156-0.037-0.232-0.055
		c-1.051,2.17-2.925,3.825-4.536,5.578c0.092,0.003,0.18,0.008,0.269,0.013c0.527-1.652,1.544-3.318,2.98-4.323
		c-0.076-0.02-0.153-0.038-0.229-0.056c-0.843,1.325-1.84,2.541-3.144,3.438c0.082,0.011,0.162,0.021,0.238,0.033
		c0.512-1.243,1.465-2.198,2.402-3.134c-0.08-0.019-0.159-0.038-0.239-0.057c-0.715,0.846-1.481,1.619-2.401,2.25
		c0.077,0.019,0.155,0.037,0.231,0.055c0.525-0.81,1.272-1.427,1.954-2.096c0.125-0.122-0.142-0.126-0.211-0.079
		c-0.872,0.589-1.707,1.227-2.581,1.816c0.071,0.025,0.14,0.052,0.212,0.078c0.578-0.576,1.154-1.137,1.914-1.475
		c-0.041-0.044-0.082-0.09-0.121-0.133c-0.867,0.44-1.712,0.924-2.58,1.362c0.039,0.044,0.08,0.089,0.119,0.133
		c0.6-0.314,1.145-0.701,1.703-1.077c0.156-0.105-0.057-0.152-0.153-0.116c-0.695,0.27-1.388,0.496-2.005,0.925
		c0.068,0.026,0.138,0.053,0.209,0.079c0.665-0.6,0.346-0.102,0.676,0.046C18.616,11.797,18.882,11.663,18.752,11.606"/>
	<path fill="#FFFFFF" d="M20.919,18.191c0.14-0.193,0.182-0.394,0.234-0.625c-0.094,0.02-0.193,0.044-0.291,0.063
		c0.025,0.259-0.368,0.706-0.491,0.881c-0.236,0.326-0.478,0.646-0.714,0.972c-0.432,0.599-0.811,1.221-1.064,1.916
		c-0.028,0.082,0.209,0.014,0.232,0.001c1.483-0.782,2.55-2.089,3.474-3.454c0.028-0.045-0.235-0.03-0.279,0.031
		c-1.002,1.406-1.971,2.851-3.186,4.088c-0.068,0.068,0.215,0.036,0.268-0.019c1.14-1.136,2.275-2.271,3.416-3.404
		c-0.093,0.014-0.186,0.021-0.279,0.032c-0.914,1.54-2.255,2.717-3.402,4.069c-0.073,0.088,0.223,0.022,0.268-0.018
		c1.504-1.298,2.825-2.784,4.326-4.086c-0.091,0.005-0.177,0.011-0.266,0.016c-1.104,1.319-2.205,2.637-3.417,3.861
		c0.092-0.013,0.187-0.021,0.277-0.032c1.142-1.771,2.713-3.174,4.089-4.751c-0.091,0.014-0.187,0.022-0.277,0.032
		c-1.392,2.05-3.138,3.807-4.771,5.658c0.092-0.007,0.179-0.012,0.268-0.017c1.474-1.954,2.973-3.887,4.339-5.919
		c-0.095,0.019-0.194,0.032-0.288,0.05c-1.59,2.66-4.009,4.675-5.693,7.264c-0.043,0.066,0.215,0.009,0.231,0.001
		c1.981-0.901,3.646-2.263,5.287-3.664c0.075-0.065-0.203-0.032-0.247-0.002c-1.538,1.078-3.328,1.548-5.141,1.943
		c-0.751,0.163-1.506,0.315-2.251,0.492c-0.165,0.039-0.328,0.082-0.491,0.124c-0.149,0.039-0.771,0.348-0.243,0.053
		c0.542-0.307,1.187-0.374,1.796-0.398c0.765-0.03,1.538,0.091,2.291,0.199c0.255,0.036,0.689,0.188,0.935,0.114
		c-0.48,0.145-0.969,0.247-1.463,0.343c-1.875,0.351-3.813,0.362-5.716,0.334c-0.781-0.012-1.559-0.036-2.339-0.055
		c-0.418-0.012-0.836-0.019-1.255-0.022c-0.66-0.01,0.079-0.066,0.297-0.124c2.062-0.542,4.173-0.876,6.301-1.034
		c0.482-0.035,0.965-0.055,1.448-0.068c0.194-0.005,0.384-0.008,0.577-0.01c0.046-0.036,0.089-0.071,0.129-0.107
		c-0.189,0.017-0.381,0.032-0.568,0.051c-0.846,0.075-1.69,0.179-2.529,0.297c-1.724,0.24-3.43,0.59-5.116,1.003
		c-0.042,0.014-0.215,0.107-0.08,0.119c2.898,0.198,5.758-0.823,8.626-0.005c0.049-0.041,0.097-0.082,0.145-0.121
		c-3.082,0.392-6.199,0.272-9.298,0.233c-0.279-0.005-0.558-0.009-0.837-0.01c-0.175-0.066-0.3-0.024-0.375,0.127
		c0.186-0.003,0.371-0.01,0.556-0.019c0.656-0.025,1.31-0.095,1.96-0.174c1.448-0.172,2.883-0.44,4.33-0.625
		c0.799-0.102,1.601-0.161,2.405-0.181c0.452-0.01,0.896,0.013,1.343,0.043c0.186,0.014,0.369,0.03,0.557,0.055
		c0.218,0.121,0.309,0.104,0.272-0.053c-1.335-0.018-2.668-0.104-4.001-0.158c-2.439-0.096-4.94-0.111-7.288,0.637
		c-0.051,0.017-0.151,0.092-0.041,0.104c4.399,0.446,8.825,0.233,13.239,0.227c0.085,0,0.318-0.128,0.125-0.128
		c-4.71-0.008-9.408-0.444-14.117-0.454c-0.086,0-0.319,0.127-0.125,0.127c3.279,0.011,6.543,0.326,9.794,0.732
		c0.785,0.096,1.572,0.201,2.358,0.309c0.396,0.053,0.791,0.105,1.188,0.16c0.2,0.027,0.398,0.055,0.6,0.084
		c0.128,0.018,0.921-0.04,0.213-0.077c-1.654-0.089-3.301-0.231-4.949-0.389c-1.666-0.161-3.326-0.346-4.99-0.524
		c-0.777-0.085-1.552-0.167-2.33-0.247c-0.385-0.039-0.771-0.08-1.155-0.119c-0.178-0.06-0.344-0.042-0.494,0.06
		c0.309-0.019,0.617-0.008,0.925,0.007c2.695,0.119,5.286,1.236,8.001,1.058c0.02-0.001,0.272-0.08,0.2-0.115
		c-1.725-0.899-3.7-1.071-5.615-1.041c-1,0.018-1.999,0.119-2.99,0.257c-0.213,0.027-0.472,0.164-0.608-0.099
		c-0.149-0.279-0.269-0.575-0.382-0.872c-0.224-0.577-0.358-1.187-0.458-1.798C5.597,16.969,7.799,12.6,7.047,8.169
		c-0.014-0.075-0.278,0-0.293,0.061c-1.133,4.495-2.48,8.962-2.506,13.636c0,0.065,0.273,0.002,0.292-0.062
		c1.11-3.93,0.247-8.07,1.138-12.031c-0.096,0.02-0.194,0.043-0.291,0.063c1.761,3.896,0.924,8.581,0.91,12.711
		c0,0.061,0.282,0.008,0.292-0.062c0.66-4.592-0.235-9.356,1.139-13.846C7.627,8.662,7.529,8.682,7.434,8.703
		c1.434,3.942,0.934,8.432,0.229,12.47c-0.015,0.084,0.266,0.023,0.291-0.048c1.494-4.578,1.373-9.558,1.594-14.315
		C9.451,6.835,9.353,6.863,9.254,6.888c0.626,4.886-0.879,9.657-0.91,14.528c-0.002,0.059,0.279,0.008,0.291-0.062
		c0.731-4.365,1.626-9.042,0.456-13.408C9.072,7.866,8.82,7.949,8.8,8.008c-1.592,4.869-1.366,10.113-2.96,14.982
		c0.097-0.02,0.194-0.042,0.291-0.062c0.023-4.037,0.899-8.009,1.139-12.031c-0.097,0.025-0.194,0.052-0.293,0.077
		c0.196,4.831-0.617,9.405-2.328,13.917c0.096-0.017,0.193-0.032,0.29-0.048c0.458-3.639,2.608-8.051,0.283-11.451
		c-0.046-0.065-0.271-0.01-0.293,0.062C3.819,16.96,4.896,20.594,5.154,24.14c0.006,0.073,0.272-0.009,0.292-0.064
		c1.189-3.169,1.362-6.65,1.366-10.002c0-0.078-0.266,0.018-0.291,0.062c-1.555,2.727-1.816,5.793-1.823,8.867
		c0,0.068,0.272,0,0.292-0.062c1.122-3.642,1.591-7.432,2.506-11.123c-0.098,0.021-0.195,0.042-0.293,0.062
		c-0.273,2.834-1.569,5.425-2.274,8.158c-0.021,0.086,0.257,0.013,0.291-0.048c1.169-2.111,2.247-4.275,2.96-6.584
		c0.026-0.086-0.245-0.006-0.278,0.031c-1.358,1.589-2.657,3.277-3.428,5.238c-0.028,0.073,0.245,0.016,0.279-0.032
		c1.211-1.676,2.543-3.261,3.653-5.009l-0.29,0.048c-1.119,2.207-2.477,4.292-3.415,6.584c-0.03,0.073,0.252,0.01,0.29-0.049
		c1.434-2.152,2.766-4.369,4.097-6.583c-0.096,0.017-0.193,0.031-0.29,0.048c-1.132,2.465-2.446,4.871-3.188,7.492
		c-0.023,0.088,0.246,0.009,0.278-0.03c1.176-1.434,2.118-3.034,3.187-4.541c-0.091,0.013-0.186,0.02-0.278,0.032
		c-1.293,2.717-3.689,4.706-4.152,7.802c-0.015,0.099,0.244,0,0.278-0.03c1.252-1.199,2.898-1.836,4.151-3.035
		c-0.09,0.007-0.178,0.012-0.267,0.017c-0.841,1.146-2.396,1.199-3.241,2.355c-0.066,0.09,0.157,0.041,0.186,0.031
		c1.305-0.437,2.677,0.337,3.958-0.327c-0.073-0.008-0.146-0.013-0.22-0.019c-1.105,1.234-3.191,1.291-3.709,3.054
		c-0.024,0.09,0.247,0.003,0.279-0.032c2.391-2.652,3.049-6.607,3.649-9.998c0.331-1.883,0.718-3.735,0.55-5.655
		C10.064,8.535,9.343,6.37,9.32,4.085C9.318,4.002,9.055,4.107,9.029,4.15c-0.859,1.272-1.8,2.491-2.505,3.858
		C6.62,7.987,6.719,7.966,6.815,7.943c-0.602-1.257-0.84-2.601-1.831-3.645c-0.053-0.056-0.228,0.017-0.271,0.06
		C3.863,5.243,2.758,6.793,3.562,8.023C3.61,8.094,3.826,8.029,3.853,7.959c0.509-1.251,1.088-2.491,0.913-3.874
		C4.758,4.016,4.483,4.083,4.474,4.15C4.232,5.934,3.563,7.809,4.019,9.61c0.018,0.076,0.274,0,0.291-0.061
		C4.758,7.75,5.176,5.937,5.448,4.102C5.378,4.13,5.309,4.159,5.24,4.19c0.578-0.023,1.203-0.212,1.762-0.004
		c0.081-0.042,0.161-0.082,0.241-0.121c-1.054-0.2-1.956-0.198-2.938,0.261C4.158,4.396,4.331,4.42,4.405,4.405
		c0.502-0.121,1.008-0.2,1.516-0.291c0.214-0.038,0.686-0.278,0.367-0.009C5.513,4.765,4.862,5.535,4.05,6.158
		c0.084,0,0.164,0,0.246,0c0.658-0.636,1.393-1.182,2.05-1.815c-0.09,0.007-0.177,0.01-0.266,0.015
		C5.471,5.222,5.203,6.299,4.486,7.083C4.418,7.157,4.703,7.12,4.753,7.067c0.714-0.75,1.21-1.664,1.821-2.496
		c-0.092,0.01-0.186,0.021-0.279,0.03C5.67,6.253,4.991,7.886,4.02,9.37c-0.041,0.06,0.239,0,0.276-0.033
		C5.888,7.951,7.171,6.276,8.395,4.57C8.303,4.581,8.21,4.592,8.118,4.603C7.231,6.355,6.27,8.069,5.384,9.823
		C5.347,9.898,5.618,9.828,5.645,9.808c1.635-1.206,2.729-2.925,3.89-4.557C9.442,5.263,9.347,5.272,9.256,5.283
		C8.555,6.681,7.84,8.063,6.98,9.371C6.939,9.429,7.208,9.38,7.238,9.354c1.83-1.446,3.787-2.673,5.995-3.456
		c2.2-0.78,4.551-1.106,6.846-1.486c0.044-0.007,0.27-0.107,0.119-0.125c-1.772-0.214-3.527,0.254-5.156,0.932
		c-0.191,0.081-0.011,0.125,0.106,0.08c0.674-0.258,1.36-0.454,2.064-0.621c0.334-0.08,0.672-0.146,1.009-0.214
		c-0.054,0.012-0.429,0.433-0.509,0.502C16.841,5.722,15.93,6.42,15.187,7.31c-0.053,0.063,0.077,0.059,0.109,0.053
		c1.538-0.3,2.714-1.265,3.802-2.338c-0.09,0.005-0.177,0.01-0.269,0.016c-0.637,0.656-1.183,1.387-1.821,2.043
		c-0.075,0.077,0.205,0.033,0.246,0c0.857-0.653,1.648-1.388,2.506-2.042c-0.084-0.001-0.164-0.001-0.249-0.001
		c-0.579,0.617-0.926,1.352-1.378,2.059C18.091,7.166,18.346,7.11,18.365,7.1c1.043-0.528,2.044-1.154,2.78-2.076
		c-0.091,0.011-0.186,0.02-0.279,0.032c-0.527,0.829-0.897,1.752-1.579,2.48c-0.07,0.074,0.216,0.033,0.266-0.017
		c0.7-0.676,1.447-1.274,2.054-2.043c-0.092,0.005-0.18,0.01-0.271,0.017c-0.6,0.839-0.901,1.751-1.148,2.74
		c-0.024,0.091,0.244,0.001,0.274-0.031c1.019-1.044,1.831-2.268,2.735-3.406c-0.093,0.013-0.188,0.021-0.278,0.033
		c-0.461,1.977-1.327,3.861-1.366,5.917c-0.002,0.058,0.281,0.009,0.291-0.064c0.249-2.158,0.688-4.29,1.365-6.355
		c-0.098,0.02-0.195,0.042-0.292,0.062c0.007,2.796,0.215,5.607-0.227,8.383c-0.016,0.085,0.268,0.022,0.291-0.048
		c0.708-2.166,1.108-4.417,1.821-6.584c-0.097,0.017-0.196,0.032-0.289,0.049c-1.178,3.833-1.407,8.14-0.458,12.046
		c0.02,0.078,0.271-0.005,0.293-0.063c0.704-1.904,1.118-3.883,1.142-5.916c0.002-0.072-0.27,0.01-0.291,0.062
		c-1.302,2.837-2.904,5.708-3.19,8.869c-0.003,0.055,0.276,0.012,0.293-0.062c0.419-2.188,0.455-4.451,1.138-6.583
		c-0.096,0.017-0.194,0.031-0.291,0.048c-0.929,3.173-2.561,6.06-3.87,9.079c0.096-0.017,0.194-0.029,0.291-0.047
		c0.293-2.812,2.419-4.902,4.087-7.021c0.073-0.09-0.21-0.028-0.247-0.001c-2.586,1.853-5.701,3.195-7.76,5.69
		c-0.02,0.023-0.016,0.041,0.017,0.053c1.353,0.563,2.909,0.163,4.193-0.408c1.655-0.738,3.19-1.794,4.484-3.064
		c0.082-0.08-0.19-0.031-0.22-0.02c-2.095,1.05-4.308,2.28-5.523,4.362c-0.022,0.039,0.068,0.041,0.084,0.041
		c0.392-0.031,0.747-0.197,1.14-0.229c0.084-0.007,0.316-0.145,0.125-0.128c-0.286,0.021-1.132,0.37-0.826-0.107
		c0.435-0.683,1.044-1.253,1.666-1.762c1.062-0.867,2.291-1.518,3.51-2.128c-0.073-0.006-0.146-0.013-0.22-0.018
		c-1.017,0.999-2.184,1.842-3.435,2.529c-1.353,0.745-3.045,1.403-4.583,0.872c-0.205-0.073,1.502-1.617,1.599-1.693
		c0.624-0.497,1.291-0.942,1.956-1.376c1.338-0.872,2.725-1.669,4.024-2.601c-0.084,0-0.164,0-0.247,0
		c-1.671,2.125-3.813,4.232-4.11,7.052c-0.01,0.091,0.263,0.018,0.292-0.049c1.308-3.02,2.938-5.907,3.869-9.079
		c0.022-0.071-0.266-0.03-0.289,0.048c-0.68,2.133-0.715,4.396-1.14,6.585c0.099-0.022,0.196-0.044,0.293-0.063
		c0.284-3.145,1.891-6.014,3.185-8.837c-0.097,0.02-0.195,0.042-0.291,0.062c-0.021,2.024-0.439,3.992-1.138,5.888
		c0.095-0.021,0.196-0.043,0.291-0.062c-0.952-3.899-0.726-8.189,0.448-12.017c0.021-0.071-0.266-0.029-0.289,0.049
		c-0.709,2.165-1.112,4.416-1.823,6.583c0.096-0.017,0.194-0.032,0.292-0.048c0.44-2.786,0.235-5.608,0.228-8.413
		c0-0.068-0.272,0.001-0.291,0.062c-0.678,2.066-1.115,4.197-1.366,6.355c0.098-0.02,0.197-0.042,0.292-0.062
		c0.039-2.046,0.905-3.919,1.364-5.887c0.021-0.09-0.246-0.009-0.278,0.031c-0.904,1.139-1.713,2.361-2.731,3.406
		c0.092-0.013,0.186-0.022,0.277-0.033c0.245-0.975,0.535-1.878,1.128-2.707c0.061-0.089-0.224-0.04-0.27,0.017
		c-0.602,0.769-1.354,1.365-2.05,2.043c0.09-0.005,0.177-0.01,0.269-0.017c0.691-0.737,1.067-1.673,1.604-2.513
		c0.034-0.052-0.236-0.021-0.276,0.032c-0.714,0.893-1.676,1.498-2.686,2.01c0.078,0,0.154,0,0.231,0.001
		c0.442-0.694,0.785-1.419,1.357-2.025c0.073-0.082-0.207-0.033-0.248-0.002c-0.855,0.654-1.649,1.389-2.504,2.043
		c0.085,0,0.165,0.001,0.247,0.001c0.637-0.655,1.184-1.388,1.821-2.042c0.069-0.072-0.215-0.036-0.269,0.016
		c-0.48,0.473-0.972,0.923-1.517,1.322c-0.361,0.262-0.755,0.476-1.166,0.649c-0.667,0.284-0.52,0.062-0.203-0.271
		c0.827-0.875,1.835-1.562,2.698-2.401c0.061-0.06-0.084-0.058-0.107-0.054c-0.907,0.181-1.825,0.357-2.707,0.648
		c-0.088,0.029-0.174,0.057-0.263,0.088c-0.278,0.01-0.339,0.068-0.18,0.171c0.242-0.1,0.49-0.189,0.738-0.276
		c0.635-0.225,1.294-0.379,1.958-0.485c0.595-0.093,1.225-0.01,1.794-0.104c-0.477,0.079-0.956,0.159-1.433,0.24
		c-0.872,0.148-1.744,0.306-2.608,0.496C12.525,5.804,9.671,7.23,7.013,9.334c0.085-0.002,0.17-0.007,0.256-0.013
		c0.861-1.306,1.577-2.69,2.278-4.087c0.031-0.062-0.241-0.019-0.279,0.033C8.118,6.881,7.037,8.595,5.416,9.79
		c0.087-0.004,0.173-0.009,0.258-0.016c0.887-1.752,1.848-3.467,2.733-5.22c0.031-0.061-0.241-0.02-0.277,0.033
		c-1.225,1.704-2.509,3.38-4.099,4.766c0.092-0.011,0.186-0.02,0.278-0.031C5.282,7.84,5.962,6.208,6.585,4.555
		c0.028-0.076-0.244-0.015-0.278,0.033c-0.61,0.829-1.11,1.746-1.821,2.495c0.089-0.005,0.177-0.011,0.268-0.017
		C5.473,6.28,5.737,5.207,6.347,4.342c0.068-0.094-0.224-0.024-0.266,0.016C5.42,4.992,4.686,5.539,4.03,6.175
		c-0.075,0.072,0.204,0.034,0.247,0c0.9-0.69,1.617-1.574,2.505-2.271c0.105-0.083-0.082-0.072-0.127-0.06
		C6.001,4,5.336,4.088,4.678,4.228c0.677-0.143,1.509-0.199,2.327-0.043c0.057,0.012,0.345-0.081,0.24-0.12
		C6.64,3.842,5.987,4.034,5.366,4.061c-0.045,0.001-0.2,0.026-0.208,0.089C4.887,5.986,4.467,7.797,4.02,9.597
		c0.095-0.021,0.194-0.043,0.292-0.063C3.859,7.741,4.524,5.879,4.765,4.102c-0.098,0.02-0.195,0.041-0.293,0.061
		c0.174,1.374-0.404,2.603-0.909,3.844c0.096-0.02,0.196-0.042,0.292-0.063c-0.789-1.207,0.292-2.735,1.125-3.6
		c-0.089,0.019-0.182,0.04-0.27,0.061c0.986,1.038,1.213,2.369,1.812,3.618c0.04,0.08,0.263-0.004,0.293-0.063
		C7.52,6.591,8.459,5.373,9.318,4.101C9.222,4.122,9.124,4.142,9.027,4.163c0.021,2.116,0.601,4.137,0.888,6.22
		c0.275,2.008-0.116,3.939-0.455,5.91C8.868,19.727,8.219,23.78,5.8,26.465c0.093-0.014,0.188-0.021,0.278-0.033
		c0.503-1.713,2.598-1.804,3.687-3.02c0.077-0.087-0.191-0.032-0.22-0.019c-1.201,0.621-2.629-0.126-3.892,0.298
		c0.062,0.012,0.125,0.02,0.188,0.031c0.84-1.146,2.395-1.199,3.24-2.356c0.067-0.09-0.224-0.023-0.266,0.02
		c-1.254,1.198-2.901,1.834-4.154,3.033C4.754,24.408,4.848,24.4,4.94,24.39c0.46-3.095,2.858-5.093,4.151-7.804
		c0.031-0.064-0.241-0.019-0.276,0.032c-1.072,1.507-2.014,3.106-3.188,4.539c0.093-0.012,0.186-0.021,0.278-0.031
		c0.741-2.621,2.054-5.027,3.186-7.492c0.029-0.064-0.25-0.018-0.29,0.048c-1.333,2.215-2.666,4.431-4.097,6.584
		c0.095-0.016,0.193-0.032,0.29-0.048c0.939-2.294,2.298-4.379,3.415-6.584c0.03-0.059-0.246-0.018-0.29,0.048
		c-1.104,1.737-2.428,3.313-3.631,4.978c0.091-0.01,0.186-0.021,0.277-0.03c0.764-1.949,2.053-3.625,3.404-5.206
		c-0.093,0.012-0.186,0.02-0.279,0.032c-0.71,2.307-1.79,4.476-2.96,6.584c0.097-0.019,0.194-0.032,0.291-0.05
		c0.708-2.743,2.003-5.342,2.279-8.188c0.005-0.053-0.275-0.007-0.293,0.064c-0.914,3.69-1.383,7.483-2.504,11.125
		c0.096-0.021,0.195-0.044,0.292-0.064c0.007-3.067,0.271-6.121,1.821-8.836c-0.098,0.02-0.196,0.042-0.293,0.062
		c-0.005,3.343-0.177,6.812-1.364,9.975c0.097-0.02,0.196-0.043,0.292-0.062c-0.259-3.538-1.337-7.158-0.229-10.654
		c-0.098,0.02-0.194,0.042-0.293,0.063c2.321,3.393,0.181,7.78-0.278,11.42c-0.011,0.089,0.265,0.019,0.291-0.048
		c1.715-4.526,2.527-9.11,2.331-13.949c-0.003-0.063-0.288-0.008-0.293,0.078c-0.238,4.023-1.115,7.995-1.139,12.03
		c0,0.068,0.272,0,0.291-0.062C7.722,18.074,7.499,12.831,9.09,7.962C8.993,7.981,8.896,8.002,8.798,8.023
		c1.167,4.36,0.273,9.02-0.455,13.376c0.099-0.018,0.196-0.04,0.293-0.06c0.031-4.873,1.537-9.643,0.91-14.529
		c-0.009-0.072-0.29-0.003-0.292,0.079c-0.222,4.749-0.099,9.713-1.592,14.285l0.291-0.048c0.708-4.052,1.211-8.551-0.227-12.5
		c-0.028-0.076-0.274,0-0.292,0.062c-1.375,4.493-0.48,9.257-1.14,13.847c0.097-0.02,0.196-0.044,0.291-0.063
		c0.014-4.129,0.851-8.815-0.91-12.711C5.645,9.689,5.401,9.755,5.384,9.823c-0.89,3.962-0.027,8.103-1.138,12.03
		c0.096-0.02,0.195-0.041,0.292-0.061c0.026-4.666,1.374-9.12,2.504-13.606C6.943,8.208,6.847,8.229,6.75,8.249
		c0.91,5.363-2.487,10.974,0.228,16.116c0.02,0.037,0.089,0.026,0.123,0.02c2.905-0.472,6.297-0.735,8.994,0.673
		c0.066-0.039,0.134-0.078,0.2-0.116c-3.099,0.203-6.051-1.239-9.16-1.051c-0.051,0.005-0.31,0.116-0.156,0.128
		c4.855,0.465,9.696,1.121,14.572,1.362c0.061,0.004,0.345-0.107,0.188-0.128c-4.456-0.604-8.921-1.239-13.425-1.349
		c-0.191-0.005-0.382-0.007-0.573-0.01c-0.095-0.002-0.191-0.002-0.286-0.004c-0.072-0.007-0.12,0.036-0.144,0.128
		c0.686,0.002,1.372,0.017,2.058,0.032c1.19,0.031,2.38,0.085,3.571,0.138c2.242,0.104,4.483,0.224,6.727,0.27
		c0.391,0.01,0.783,0.014,1.179,0.016c0.041-0.043,0.085-0.086,0.126-0.128c-0.188,0-0.378,0-0.564,0.003
		c-0.284,0.002-0.569,0.006-0.854,0.007c-1.149,0.013-2.303,0.029-3.45,0.041c-2.299,0.021-4.595,0-6.886-0.173
		c-0.23-0.018-1.265,0.011-0.547-0.183c0.526-0.142,1.068-0.227,1.608-0.299c1.145-0.151,2.313-0.161,3.468-0.145
		c1.932,0.025,3.861,0.19,5.794,0.197c0.054,0,0.31-0.105,0.157-0.127c-4.055-0.627-8.003,0.787-12.044,0.819
		c-0.087,0.002-0.32,0.129-0.126,0.129c3.579,0.008,7.176,0.225,10.738-0.232c0.024-0.003,0.249-0.09,0.145-0.121
		c-2.549-0.727-5.094-0.057-7.676,0.023c-0.254,0.009-0.569-0.039-0.818,0.022c0.351-0.088,0.705-0.167,1.058-0.246
		c0.783-0.177,1.571-0.327,2.36-0.463c1.544-0.271,3.103-0.452,4.665-0.573c0.082-0.008,0.323-0.129,0.127-0.127
		c-3.27,0.014-6.496,0.49-9.639,1.372c-0.081,0.022-0.208,0.118-0.048,0.118c3.897,0.011,7.898,0.446,11.688-0.695
		c0.043-0.014,0.213-0.097,0.078-0.116c-1.971-0.257-4.165-0.811-5.952,0.368c-0.112,0.075,0.085,0.073,0.127,0.062
		c2.961-0.887,6.208-1.031,8.806-2.853c-0.084,0-0.165,0-0.246-0.002c-1.616,1.378-3.244,2.711-5.19,3.601c0.078,0,0.157,0,0.233,0
		c1.685-2.589,4.102-4.604,5.69-7.264c0.029-0.052-0.241-0.02-0.289,0.049c-1.362,2.019-2.853,3.941-4.314,5.886
		c-0.064,0.087,0.222,0.036,0.268-0.016c1.642-1.864,3.396-3.632,4.793-5.69c0.034-0.05-0.235-0.02-0.279,0.03
		c-1.384,1.589-2.961,3-4.11,4.782c-0.036,0.058,0.238,0.011,0.279-0.03c1.211-1.221,2.313-2.541,3.415-3.86
		c0.073-0.088-0.222-0.021-0.268,0.017c-1.502,1.301-2.823,2.786-4.326,4.087c0.091-0.006,0.178-0.011,0.268-0.017
		c1.158-1.362,2.507-2.553,3.427-4.102c0.038-0.062-0.237-0.007-0.277,0.031c-1.14,1.137-2.274,2.27-3.415,3.404
		c0.091-0.006,0.177-0.011,0.269-0.017c1.217-1.236,2.184-2.681,3.188-4.087c-0.093,0.012-0.187,0.021-0.279,0.03
		c-0.891,1.317-1.925,2.601-3.358,3.356c0.079,0.001,0.156,0.001,0.232,0.001c0.308-0.841,0.803-1.559,1.328-2.276
		c0.258-0.346,0.992-1.062,0.947-1.522c-0.009-0.069-0.277,0-0.294,0.065c-0.049,0.213-0.078,0.403-0.21,0.589
		C20.588,18.292,20.874,18.251,20.919,18.191"/>
</g>
</svg>
