<?xml version="1.0" encoding="utf-8"?>
<!-- Generator: Adobe Illustrator 16.0.0, SVG Export Plug-In . SVG Version: 6.00 Build 0)  -->
<!DOCTYPE svg PUBLIC "-//W3C//DTD SVG 1.1//EN" "http://www.w3.org/Graphics/SVG/1.1/DTD/svg11.dtd">
<svg version="1.1" id="Calque_1" xmlns="http://www.w3.org/2000/svg" xmlns:xlink="http://www.w3.org/1999/xlink" x="0px" y="0px"
	 width="625.501px" height="15px" viewBox="-187.251 0 625.501 15" enable-background="new -187.251 0 625.501 15"
	 xml:space="preserve">
<g>
	<g>
		<defs>
			<rect id="SVGID_1_" x="-187.25" width="625.5" height="15"/>
		</defs>
		<clipPath id="SVGID_2_">
			<use xlink:href="#SVGID_1_"  overflow="visible"/>
		</clipPath>
		<polygon clip-path="url(#SVGID_2_)" fill="none" stroke="#DC1F26" stroke-width="1.35" stroke-miterlimit="300" points="
			-186.264,7.5 -179.256,0.926 -172.249,7.5 -179.256,14.074 		"/>
	</g>
	<g>
		<defs>
			<rect id="SVGID_3_" x="-187.25" width="625.5" height="15"/>
		</defs>
		<clipPath id="SVGID_4_">
			<use xlink:href="#SVGID_3_"  overflow="visible"/>
		</clipPath>
		<polygon clip-path="url(#SVGID_4_)" fill="none" stroke="#DC1F26" stroke-width="1.35" stroke-miterlimit="300" points="
			-171.026,7.5 -164.019,0.926 -157.011,7.5 -164.019,14.074 		"/>
	</g>
	<g>
		<defs>
			<rect id="SVGID_5_" x="-187.25" width="625.5" height="15"/>
		</defs>
		<clipPath id="SVGID_6_">
			<use xlink:href="#SVGID_5_"  overflow="visible"/>
		</clipPath>
		<polygon clip-path="url(#SVGID_6_)" fill="none" stroke="#DC1F26" stroke-width="1.35" stroke-miterlimit="300" points="
			-155.788,7.5 -148.781,0.926 -141.773,7.5 -148.781,14.074 		"/>
	</g>
	<g>
		<defs>
			<rect id="SVGID_7_" x="-187.25" width="625.5" height="15"/>
		</defs>
		<clipPath id="SVGID_8_">
			<use xlink:href="#SVGID_7_"  overflow="visible"/>
		</clipPath>
		<polygon clip-path="url(#SVGID_8_)" fill="none" stroke="#DC1F26" stroke-width="1.35" stroke-miterlimit="300" points="
			-140.55,7.5 -133.543,0.926 -126.535,7.5 -133.543,14.074 		"/>
	</g>
	<g>
		<defs>
			<rect id="SVGID_9_" x="-187.25" width="625.5" height="15"/>
		</defs>
		<clipPath id="SVGID_10_">
			<use xlink:href="#SVGID_9_"  overflow="visible"/>
		</clipPath>
		<polygon clip-path="url(#SVGID_10_)" fill="none" stroke="#DC1F26" stroke-width="1.35" stroke-miterlimit="300" points="
			-125.312,7.5 -118.305,0.926 -111.297,7.5 -118.305,14.074 		"/>
	</g>
	<g>
		<defs>
			<rect id="SVGID_11_" x="-187.25" width="625.5" height="15"/>
		</defs>
		<clipPath id="SVGID_12_">
			<use xlink:href="#SVGID_11_"  overflow="visible"/>
		</clipPath>
		<polygon clip-path="url(#SVGID_12_)" fill="none" stroke="#DC1F26" stroke-width="1.35" stroke-miterlimit="300" points="
			-110.074,7.5 -103.067,0.926 -96.06,7.5 -103.067,14.074 		"/>
	</g>
	<g>
		<defs>
			<rect id="SVGID_13_" x="-187.25" width="625.5" height="15"/>
		</defs>
		<clipPath id="SVGID_14_">
			<use xlink:href="#SVGID_13_"  overflow="visible"/>
		</clipPath>
		<polygon clip-path="url(#SVGID_14_)" fill="none" stroke="#DC1F26" stroke-width="1.35" stroke-miterlimit="300" points="
			-94.836,7.5 -87.83,0.926 -80.822,7.5 -87.83,14.074 		"/>
	</g>
	<g>
		<defs>
			<rect id="SVGID_15_" x="-187.25" width="625.5" height="15"/>
		</defs>
		<clipPath id="SVGID_16_">
			<use xlink:href="#SVGID_15_"  overflow="visible"/>
		</clipPath>
		<polygon clip-path="url(#SVGID_16_)" fill="none" stroke="#DC1F26" stroke-width="1.35" stroke-miterlimit="300" points="
			-79.599,7.5 -72.592,0.926 -65.584,7.5 -72.592,14.074 		"/>
	</g>
	<g>
		<defs>
			<rect id="SVGID_17_" x="-187.25" width="625.5" height="15"/>
		</defs>
		<clipPath id="SVGID_18_">
			<use xlink:href="#SVGID_17_"  overflow="visible"/>
		</clipPath>
		<polygon clip-path="url(#SVGID_18_)" fill="none" stroke="#DC1F26" stroke-width="1.35" stroke-miterlimit="300" points="
			-64.361,7.5 -57.354,0.926 -50.346,7.5 -57.354,14.074 		"/>
	</g>
	<g>
		<defs>
			<rect id="SVGID_19_" x="-187.25" width="625.5" height="15"/>
		</defs>
		<clipPath id="SVGID_20_">
			<use xlink:href="#SVGID_19_"  overflow="visible"/>
		</clipPath>
		<polygon clip-path="url(#SVGID_20_)" fill="none" stroke="#DC1F26" stroke-width="1.35" stroke-miterlimit="300" points="
			-49.123,7.5 -42.116,0.926 -35.108,7.5 -42.116,14.074 		"/>
	</g>
	<g>
		<defs>
			<rect id="SVGID_21_" x="-187.25" width="625.5" height="15"/>
		</defs>
		<clipPath id="SVGID_22_">
			<use xlink:href="#SVGID_21_"  overflow="visible"/>
		</clipPath>
		<polygon clip-path="url(#SVGID_22_)" fill="none" stroke="#DC1F26" stroke-width="1.35" stroke-miterlimit="300" points="
			-33.885,7.5 -26.878,0.926 -19.871,7.5 -26.878,14.074 		"/>
	</g>
	<g>
		<defs>
			<rect id="SVGID_23_" x="-187.25" width="625.5" height="15"/>
		</defs>
		<clipPath id="SVGID_24_">
			<use xlink:href="#SVGID_23_"  overflow="visible"/>
		</clipPath>
		<polygon clip-path="url(#SVGID_24_)" fill="none" stroke="#DC1F26" stroke-width="1.35" stroke-miterlimit="300" points="
			-18.647,7.5 -11.641,0.926 -4.633,7.5 -11.641,14.074 		"/>
	</g>
	<g>
		<defs>
			<rect id="SVGID_25_" x="-187.25" width="625.5" height="15"/>
		</defs>
		<clipPath id="SVGID_26_">
			<use xlink:href="#SVGID_25_"  overflow="visible"/>
		</clipPath>
		<polygon clip-path="url(#SVGID_26_)" fill="none" stroke="#DC1F26" stroke-width="1.35" stroke-miterlimit="300" points="
			-3.41,7.5 3.597,0.926 10.605,7.5 3.597,14.074 		"/>
	</g>
	<g>
		<defs>
			<rect id="SVGID_27_" x="-187.25" width="625.5" height="15"/>
		</defs>
		<clipPath id="SVGID_28_">
			<use xlink:href="#SVGID_27_"  overflow="visible"/>
		</clipPath>
		<polygon clip-path="url(#SVGID_28_)" fill="none" stroke="#DC1F26" stroke-width="1.35" stroke-miterlimit="300" points="
			11.828,7.5 18.835,0.926 25.843,7.5 18.835,14.074 		"/>
	</g>
	<g>
		<defs>
			<rect id="SVGID_29_" x="-187.25" width="625.5" height="15"/>
		</defs>
		<clipPath id="SVGID_30_">
			<use xlink:href="#SVGID_29_"  overflow="visible"/>
		</clipPath>
		<polygon clip-path="url(#SVGID_30_)" fill="none" stroke="#DC1F26" stroke-width="1.35" stroke-miterlimit="300" points="
			27.066,7.5 34.073,0.926 41.081,7.5 34.073,14.074 		"/>
	</g>
	<g>
		<defs>
			<rect id="SVGID_31_" x="-187.25" width="625.5" height="15"/>
		</defs>
		<clipPath id="SVGID_32_">
			<use xlink:href="#SVGID_31_"  overflow="visible"/>
		</clipPath>
		<polygon clip-path="url(#SVGID_32_)" fill="none" stroke="#DC1F26" stroke-width="1.35" stroke-miterlimit="300" points="
			42.304,7.5 49.311,0.926 56.318,7.5 49.311,14.074 		"/>
	</g>
	<g>
		<defs>
			<rect id="SVGID_33_" x="-187.25" width="625.5" height="15"/>
		</defs>
		<clipPath id="SVGID_34_">
			<use xlink:href="#SVGID_33_"  overflow="visible"/>
		</clipPath>
		<polygon clip-path="url(#SVGID_34_)" fill="none" stroke="#DC1F26" stroke-width="1.35" stroke-miterlimit="300" points="
			57.542,7.5 64.548,0.926 71.557,7.5 64.548,14.074 		"/>
	</g>
	<g>
		<defs>
			<rect id="SVGID_35_" x="-187.25" width="625.5" height="15"/>
		</defs>
		<clipPath id="SVGID_36_">
			<use xlink:href="#SVGID_35_"  overflow="visible"/>
		</clipPath>
		<polygon clip-path="url(#SVGID_36_)" fill="none" stroke="#DC1F26" stroke-width="1.35" stroke-miterlimit="300" points="
			72.779,7.5 79.786,0.926 86.794,7.5 79.786,14.074 		"/>
	</g>
	<g>
		<defs>
			<rect id="SVGID_37_" x="-187.25" width="625.5" height="15"/>
		</defs>
		<clipPath id="SVGID_38_">
			<use xlink:href="#SVGID_37_"  overflow="visible"/>
		</clipPath>
		<polygon clip-path="url(#SVGID_38_)" fill="none" stroke="#DC1F26" stroke-width="1.35" stroke-miterlimit="300" points="
			88.017,7.5 95.024,0.926 102.032,7.5 95.024,14.074 		"/>
	</g>
	<g>
		<defs>
			<rect id="SVGID_39_" x="-187.25" width="625.5" height="15"/>
		</defs>
		<clipPath id="SVGID_40_">
			<use xlink:href="#SVGID_39_"  overflow="visible"/>
		</clipPath>
		<polygon clip-path="url(#SVGID_40_)" fill="none" stroke="#DC1F26" stroke-width="1.35" stroke-miterlimit="300" points="
			103.255,7.5 110.262,0.926 117.27,7.5 110.262,14.074 		"/>
	</g>
	<g>
		<defs>
			<rect id="SVGID_41_" x="-187.25" width="625.5" height="15"/>
		</defs>
		<clipPath id="SVGID_42_">
			<use xlink:href="#SVGID_41_"  overflow="visible"/>
		</clipPath>
		<polygon clip-path="url(#SVGID_42_)" fill="none" stroke="#DC1F26" stroke-width="1.35" stroke-miterlimit="300" points="
			118.493,7.5 125.5,0.926 132.508,7.5 125.5,14.074 		"/>
	</g>
	<g>
		<defs>
			<rect id="SVGID_43_" x="-187.25" width="625.5" height="15"/>
		</defs>
		<clipPath id="SVGID_44_">
			<use xlink:href="#SVGID_43_"  overflow="visible"/>
		</clipPath>
		<polygon clip-path="url(#SVGID_44_)" fill="none" stroke="#DC1F26" stroke-width="1.35" stroke-miterlimit="300" points="
			133.73,7.5 140.737,0.926 147.744,7.5 140.737,14.074 		"/>
	</g>
	<g>
		<defs>
			<rect id="SVGID_45_" x="-187.25" width="625.5" height="15"/>
		</defs>
		<clipPath id="SVGID_46_">
			<use xlink:href="#SVGID_45_"  overflow="visible"/>
		</clipPath>
		<polygon clip-path="url(#SVGID_46_)" fill="none" stroke="#DC1F26" stroke-width="1.35" stroke-miterlimit="300" points="
			148.968,7.5 155.976,0.926 162.983,7.5 155.976,14.074 		"/>
	</g>
	<g>
		<defs>
			<rect id="SVGID_47_" x="-187.25" width="625.5" height="15"/>
		</defs>
		<clipPath id="SVGID_48_">
			<use xlink:href="#SVGID_47_"  overflow="visible"/>
		</clipPath>
		<polygon clip-path="url(#SVGID_48_)" fill="none" stroke="#DC1F26" stroke-width="1.35" stroke-miterlimit="300" points="
			164.205,7.5 171.213,0.926 178.221,7.5 171.213,14.074 		"/>
	</g>
	<g>
		<defs>
			<rect id="SVGID_49_" x="-187.25" width="625.5" height="15"/>
		</defs>
		<clipPath id="SVGID_50_">
			<use xlink:href="#SVGID_49_"  overflow="visible"/>
		</clipPath>
		<polygon clip-path="url(#SVGID_50_)" fill="none" stroke="#DC1F26" stroke-width="1.35" stroke-miterlimit="300" points="
			179.443,7.5 186.45,0.926 193.459,7.5 186.45,14.074 		"/>
	</g>
	<g>
		<defs>
			<rect id="SVGID_51_" x="-187.25" width="625.5" height="15"/>
		</defs>
		<clipPath id="SVGID_52_">
			<use xlink:href="#SVGID_51_"  overflow="visible"/>
		</clipPath>
		<polygon clip-path="url(#SVGID_52_)" fill="none" stroke="#DC1F26" stroke-width="1.35" stroke-miterlimit="300" points="
			194.682,7.5 201.688,0.926 208.696,7.5 201.688,14.074 		"/>
	</g>
	<g>
		<defs>
			<rect id="SVGID_53_" x="-187.25" width="625.5" height="15"/>
		</defs>
		<clipPath id="SVGID_54_">
			<use xlink:href="#SVGID_53_"  overflow="visible"/>
		</clipPath>
		<polygon clip-path="url(#SVGID_54_)" fill="none" stroke="#DC1F26" stroke-width="1.35" stroke-miterlimit="300" points="
			209.919,7.5 216.927,0.926 223.935,7.5 216.927,14.074 		"/>
	</g>
	<g>
		<defs>
			<rect id="SVGID_55_" x="-187.25" width="625.5" height="15"/>
		</defs>
		<clipPath id="SVGID_56_">
			<use xlink:href="#SVGID_55_"  overflow="visible"/>
		</clipPath>
		<polygon clip-path="url(#SVGID_56_)" fill="none" stroke="#DC1F26" stroke-width="1.35" stroke-miterlimit="300" points="
			225.156,7.5 232.163,0.926 239.172,7.5 232.163,14.074 		"/>
	</g>
	<g>
		<defs>
			<rect id="SVGID_57_" x="-187.25" width="625.5" height="15"/>
		</defs>
		<clipPath id="SVGID_58_">
			<use xlink:href="#SVGID_57_"  overflow="visible"/>
		</clipPath>
		<polygon clip-path="url(#SVGID_58_)" fill="none" stroke="#DC1F26" stroke-width="1.35" stroke-miterlimit="300" points="
			240.396,7.5 247.402,0.926 254.409,7.5 247.402,14.074 		"/>
	</g>
	<g>
		<defs>
			<rect id="SVGID_59_" x="-187.25" width="625.5" height="15"/>
		</defs>
		<clipPath id="SVGID_60_">
			<use xlink:href="#SVGID_59_"  overflow="visible"/>
		</clipPath>
		<polygon clip-path="url(#SVGID_60_)" fill="none" stroke="#DC1F26" stroke-width="1.35" stroke-miterlimit="300" points="
			255.633,7.5 262.64,0.926 269.647,7.5 262.64,14.074 		"/>
	</g>
	<g>
		<defs>
			<rect id="SVGID_61_" x="-187.25" width="625.5" height="15"/>
		</defs>
		<clipPath id="SVGID_62_">
			<use xlink:href="#SVGID_61_"  overflow="visible"/>
		</clipPath>
		<polygon clip-path="url(#SVGID_62_)" fill="none" stroke="#DC1F26" stroke-width="1.35" stroke-miterlimit="300" points="
			270.87,7.5 277.878,0.926 284.886,7.5 277.878,14.074 		"/>
	</g>
	<g>
		<defs>
			<rect id="SVGID_63_" x="-187.25" width="625.5" height="15"/>
		</defs>
		<clipPath id="SVGID_64_">
			<use xlink:href="#SVGID_63_"  overflow="visible"/>
		</clipPath>
		<polygon clip-path="url(#SVGID_64_)" fill="none" stroke="#DC1F26" stroke-width="1.35" stroke-miterlimit="300" points="
			286.108,7.5 293.115,0.926 300.122,7.5 293.115,14.074 		"/>
	</g>
	<g>
		<defs>
			<rect id="SVGID_65_" x="-187.25" width="625.5" height="15"/>
		</defs>
		<clipPath id="SVGID_66_">
			<use xlink:href="#SVGID_65_"  overflow="visible"/>
		</clipPath>
		<polygon clip-path="url(#SVGID_66_)" fill="none" stroke="#DC1F26" stroke-width="1.35" stroke-miterlimit="300" points="
			301.347,7.5 308.354,0.926 315.361,7.5 308.354,14.074 		"/>
	</g>
	<g>
		<defs>
			<rect id="SVGID_67_" x="-187.25" width="625.5" height="15"/>
		</defs>
		<clipPath id="SVGID_68_">
			<use xlink:href="#SVGID_67_"  overflow="visible"/>
		</clipPath>
		<polygon clip-path="url(#SVGID_68_)" fill="none" stroke="#DC1F26" stroke-width="1.35" stroke-miterlimit="300" points="
			316.584,7.5 323.591,0.926 330.599,7.5 323.591,14.074 		"/>
	</g>
	<g>
		<defs>
			<rect id="SVGID_69_" x="-187.25" width="625.5" height="15"/>
		</defs>
		<clipPath id="SVGID_70_">
			<use xlink:href="#SVGID_69_"  overflow="visible"/>
		</clipPath>
		<polygon clip-path="url(#SVGID_70_)" fill="none" stroke="#DC1F26" stroke-width="1.35" stroke-miterlimit="300" points="
			331.822,7.5 338.828,0.926 345.837,7.5 338.828,14.074 		"/>
	</g>
	<g>
		<defs>
			<rect id="SVGID_71_" x="-187.25" width="625.5" height="15"/>
		</defs>
		<clipPath id="SVGID_72_">
			<use xlink:href="#SVGID_71_"  overflow="visible"/>
		</clipPath>
		<polygon clip-path="url(#SVGID_72_)" fill="none" stroke="#DC1F26" stroke-width="1.35" stroke-miterlimit="300" points="
			347.06,7.5 354.066,0.926 361.073,7.5 354.066,14.074 		"/>
	</g>
	<g>
		<defs>
			<rect id="SVGID_73_" x="-187.25" width="625.5" height="15"/>
		</defs>
		<clipPath id="SVGID_74_">
			<use xlink:href="#SVGID_73_"  overflow="visible"/>
		</clipPath>
		<polygon clip-path="url(#SVGID_74_)" fill="none" stroke="#DC1F26" stroke-width="1.35" stroke-miterlimit="300" points="
			362.298,7.5 369.305,0.926 376.312,7.5 369.305,14.074 		"/>
	</g>
	<g>
		<defs>
			<rect id="SVGID_75_" x="-187.25" width="625.5" height="15"/>
		</defs>
		<clipPath id="SVGID_76_">
			<use xlink:href="#SVGID_75_"  overflow="visible"/>
		</clipPath>
		<polygon clip-path="url(#SVGID_76_)" fill="none" stroke="#DC1F26" stroke-width="1.35" stroke-miterlimit="300" points="
			377.534,7.5 384.541,0.926 391.55,7.5 384.541,14.074 		"/>
	</g>
	<g>
		<defs>
			<rect id="SVGID_77_" x="-187.25" width="625.5" height="15"/>
		</defs>
		<clipPath id="SVGID_78_">
			<use xlink:href="#SVGID_77_"  overflow="visible"/>
		</clipPath>
		<polygon clip-path="url(#SVGID_78_)" fill="none" stroke="#DC1F26" stroke-width="1.35" stroke-miterlimit="300" points="
			392.773,7.5 399.78,0.926 406.787,7.5 399.78,14.074 		"/>
	</g>
	<g>
		<defs>
			<rect id="SVGID_79_" x="-187.25" width="625.5" height="15"/>
		</defs>
		<clipPath id="SVGID_80_">
			<use xlink:href="#SVGID_79_"  overflow="visible"/>
		</clipPath>
		<polygon clip-path="url(#SVGID_80_)" fill="none" stroke="#DC1F26" stroke-width="1.35" stroke-miterlimit="300" points="
			408.011,7.5 415.018,0.926 422.025,7.5 415.018,14.074 		"/>
	</g>
	<g>
		<defs>
			<rect id="SVGID_81_" x="-187.25" width="625.5" height="15"/>
		</defs>
		<clipPath id="SVGID_82_">
			<use xlink:href="#SVGID_81_"  overflow="visible"/>
		</clipPath>
		<polygon clip-path="url(#SVGID_82_)" fill="none" stroke="#DC1F26" stroke-width="1.35" stroke-miterlimit="300" points="
			423.248,7.5 430.256,0.926 437.264,7.5 430.256,14.074 		"/>
	</g>
</g>
</svg>
